<svg xmlns="http://www.w3.org/2000/svg" xmlns:xlink="http://www.w3.org/1999/xlink"><defs><style>
    .sprite-symbol-usage {display: none;}
    .sprite-symbol-usage:target {display: inline;}
  </style><symbol fill="none" viewBox="0 0 160 160" id="disconnect"><path fill="#8E8E8E" fill-opacity=".07" d="M160 80A79.99 79.99 0 1 0 .02 80 79.99 79.99 0 0 0 160 80" /><g filter="url(#disconnect_a)"><path fill="#8F8F8F" d="M60.86 123.47h42.1V128h-42.1z" /></g><g filter="url(#disconnect_b)"><path fill="url(#disconnect_c)" d="M93.47 98.73v12.26H69.89v-9.05z" /></g><g filter="url(#disconnect_d)"><rect width="80.16" height="54.7" x="35" y="51.74" fill="url(#disconnect_e)" rx="4" transform="rotate(-8 35 51.74)" /></g><rect width="74.23" height="44.43" x="37.65" y="53.38" fill="url(#disconnect_f)" rx="3" transform="rotate(-8 37.65 53.38)" /><path fill="#fff" d="M38.13 55.13v.12z" /><path fill="#000" d="M38.13 55.16v.08z" /><path fill="#fff" d="M112.82 54.3c-.08-.07-.11-.18-.04-.27l.04.26Z" /><path fill="#000" d="M112.78 54.03a.2.2 0 0 0 .04.26z" /><path fill="#C6C6C6" d="M81.16 98a1.73 1.73 0 1 0 0-3.46c-.96 0-1.74.78-1.74 1.73 0 .96.78 1.73 1.74 1.73M70.47 65.91a.94.94 0 0 1-.44 1.68.94.94 0 0 1-.7-.18l-3.53-2.64-2.65 3.5a.94.94 0 0 1-1.69-.41.92.92 0 0 1 .19-.7l2.65-3.51-3.53-2.64a.94.94 0 0 1 .45-1.68c.24-.03.5.03.7.19l3.53 2.63 2.65-3.5a.95.95 0 0 1 1.7.43c.04.24-.02.5-.18.7l-2.65 3.5zm21.49-1.68a.92.92 0 0 1-.62.36.94.94 0 0 1-.7-.18l-3.52-2.63-2.65 3.5a.94.94 0 0 1-1.7-.42.92.92 0 0 1 .2-.7l2.64-3.5-3.52-2.64a.94.94 0 0 1 .45-1.68c.24-.03.5.02.7.18l3.52 2.63 2.65-3.5a.95.95 0 0 1 1.7.43c.04.24-.02.5-.18.7l-2.65 3.5 3.53 2.64c.39.3.47.9.15 1.31m1.24 10.38c.08.49-.3.89-.74.97l-.94.2-5.27 1.08-2.37.47a1111 1111 0 0 1-19.81 3.75c-.48.08-.9-.29-.98-.73-.08-.47.3-.89.73-.96a1123 1123 0 0 0 19.68-3.73 770 770 0 0 0 8.72-1.78c.46-.1.89.3.97.73Z" /><path fill="#C6C6C6" d="M88.89 81.72c-2.1.48-4.2-.82-4.67-2.91l-.34-1.49 2.37-.47c1.77-.35 3.52-.71 5.27-1.09l.3 1.3a3.88 3.88 0 0 1-2.93 4.66" /><g filter="url(#disconnect_g)"><path fill="#C6C6C6" d="M63.32 110.99h36.72c.53 0 .97.38.97.85v2.07c0 .47-.44.85-.97.85H63.32c-.53 0-.97-.39-.97-.85v-2.07c0-.48.44-.85.97-.85" /></g><path fill="#C6C6C6" d="m114.02 42.86-1.55 3.83-2.34 5.84-3.13 7.78c-.15.4-.76.25-.7-.18l1.73-13 .2-1.53a.37.37 0 0 0-.33-.4l-3.12-.33-2.56-.27a.37.37 0 0 1-.3-.5l6.24-15.87c.16-.4.77-.25.7.19l-1.64 12.08c-.02.18.1.37.28.41l6.22 1.47c.26.03.38.27.3.48m2.88 6.02c-.05.08-.05.2.02.27l2.5 2.42c.08.09.08.23-.03.3l-5.56 4.19-2.67 2a.2.2 0 0 1-.25 0c-.08-.07-.11-.18-.04-.27l.01-.01 2.71-3.38 2.31-2.86c.07-.09.05-.22-.04-.3l-2.49-1.87c-.1-.08-.1-.24 0-.3l7.41-5.68c.19-.14.43.1.28.3l-4.15 5.19Zm-12.24 10.78-2.77-5.76a.15.15 0 0 0-.22-.08l-2.22 1.13a.16.16 0 0 1-.23-.11l-1.38-6.64-.13-.65c-.04-.18.22-.27.3-.1l.33.68 1.97 4.12c.04.07.12.11.2.09l2.63-.95c.1-.03.2.03.22.12l1.6 8.04c.04.2-.21.28-.3.11" /><g filter="url(#disconnect_h)"><path fill="url(#disconnect_i)" d="M106.52 100.43h24.77c2.4 0 3.9-2.6 2.7-4.68l-12.38-21.33a3.1 3.1 0 0 0-2.7-1.56 3.1 3.1 0 0 0-2.72 1.56L103.8 95.75a3.12 3.12 0 0 0 2.72 4.68" /></g><path fill="#F4F4F4" d="M105.26 98.04c.12.22.5.72 1.26.72h24.77c.76 0 1.14-.5 1.26-.72s.38-.8 0-1.45l-12.38-21.34a1.44 1.44 0 0 0-1.27-.72c-.25 0-.88.07-1.26.72l-12.4 21.34a1.4 1.4 0 0 0 .02 1.45m15.2-16.92-.34 10.17h-2.43l-.34-10.17h3.1Zm-3.2 13.3c0-.44.15-.82.45-1.1.3-.3.7-.44 1.2-.44.48 0 .87.14 1.17.43.3.3.45.67.45 1.1 0 .44-.14.81-.45 1.1-.3.3-.69.44-1.18.44-.5 0-.88-.15-1.19-.44-.3-.28-.45-.65-.45-1.09" /><path fill="#C6C6C6" d="M117.26 94.42c0 .45.15.81.45 1.1.3.3.7.44 1.2.44.48 0 .87-.15 1.17-.44s.45-.65.45-1.1c0-.44-.14-.8-.45-1.1-.3-.29-.69-.43-1.18-.43-.5 0-.88.14-1.19.43-.3.28-.45.66-.45 1.1m.09-13.3.34 10.16h2.43l.34-10.16z" /><path fill="#fff" d="m116.89 86.48.1-.2zm.31-1-.05.27.04-.27Z" /><path fill="#000" d="m117.2 85.48-.05.27.04-.27Z" /><defs><filter id="disconnect_a" width="90.47" height="52.9" x="36.68" y="99.29" color-interpolation-filters="sRGB" filterUnits="userSpaceOnUse"><feFlood flood-opacity="0" result="BackgroundImageFix"></feFlood><feBlend in="SourceGraphic" in2="BackgroundImageFix" result="shape"></feBlend><feGaussianBlur result="effect1_foregroundBlur_220_1005" stdDeviation="12.09"></feGaussianBlur></filter><filter id="disconnect_b" width="23.93" height="12.51" x="69.89" y="98.73" color-interpolation-filters="sRGB" filterUnits="userSpaceOnUse"><feFlood flood-opacity="0" result="BackgroundImageFix"></feFlood><feBlend in="SourceGraphic" in2="BackgroundImageFix" result="shape"></feBlend><feColorMatrix in="SourceAlpha" result="hardAlpha" values="0 0 0 0 0 0 0 0 0 0 0 0 0 0 0 0 0 0 127 0"></feColorMatrix><feOffset dx=".5" dy=".25"></feOffset><feGaussianBlur stdDeviation=".17"></feGaussianBlur><feComposite in2="hardAlpha" k2="-1" k3="1" operator="arithmetic"></feComposite><feColorMatrix values="0 0 0 0 1 0 0 0 0 1 0 0 0 0 1 0 0 0 1 0"></feColorMatrix><feBlend in2="shape" result="effect1_innerShadow_220_1005"></feBlend></filter><filter id="disconnect_d" width="85.99" height="64.11" x="35.59" y="41.48" color-interpolation-filters="sRGB" filterUnits="userSpaceOnUse"><feFlood flood-opacity="0" result="BackgroundImageFix"></feFlood><feBlend in="SourceGraphic" in2="BackgroundImageFix" result="shape"></feBlend><feColorMatrix in="SourceAlpha" result="hardAlpha" values="0 0 0 0 0 0 0 0 0 0 0 0 0 0 0 0 0 0 127 0"></feColorMatrix><feOffset dx=".5" dy=".25"></feOffset><feGaussianBlur stdDeviation=".17"></feGaussianBlur><feComposite in2="hardAlpha" k2="-1" k3="1" operator="arithmetic"></feComposite><feColorMatrix values="0 0 0 0 1 0 0 0 0 1 0 0 0 0 1 0 0 0 1 0"></feColorMatrix><feBlend in2="shape" result="effect1_innerShadow_220_1005"></feBlend></filter><filter id="disconnect_g" width="39.01" height="4.02" x="62.35" y="110.99" color-interpolation-filters="sRGB" filterUnits="userSpaceOnUse"><feFlood flood-opacity="0" result="BackgroundImageFix"></feFlood><feBlend in="SourceGraphic" in2="BackgroundImageFix" result="shape"></feBlend><feColorMatrix in="SourceAlpha" result="hardAlpha" values="0 0 0 0 0 0 0 0 0 0 0 0 0 0 0 0 0 0 127 0"></feColorMatrix><feOffset dx=".5" dy=".25"></feOffset><feGaussianBlur stdDeviation=".17"></feGaussianBlur><feComposite in2="hardAlpha" k2="-1" k3="1" operator="arithmetic"></feComposite><feColorMatrix values="0 0 0 0 1 0 0 0 0 1 0 0 0 0 1 0 0 0 1 0"></feColorMatrix><feBlend in2="shape" result="effect1_innerShadow_220_1005"></feBlend></filter><filter id="disconnect_h" width="31.39" height="27.77" x="103.03" y="72.66" color-interpolation-filters="sRGB" filterUnits="userSpaceOnUse"><feFlood flood-opacity="0" result="BackgroundImageFix"></feFlood><feBlend in="SourceGraphic" in2="BackgroundImageFix" result="shape"></feBlend><feColorMatrix in="SourceAlpha" result="hardAlpha" values="0 0 0 0 0 0 0 0 0 0 0 0 0 0 0 0 0 0 127 0"></feColorMatrix><feOffset dx="-.4" dy="-.2"></feOffset><feGaussianBlur stdDeviation=".17"></feGaussianBlur><feComposite in2="hardAlpha" k2="-1" k3="1" operator="arithmetic"></feComposite><feColorMatrix values="0 0 0 0 0.726823 0 0 0 0 0.726823 0 0 0 0 0.726823 0 0 0 1 0"></feColorMatrix><feBlend in2="shape" result="effect1_innerShadow_220_1005"></feBlend></filter></defs></symbol><linearGradient id="disconnect_c" x1="81.68" x2="81.68" y1="98.73" y2="110.99" gradientUnits="userSpaceOnUse"><stop stop-color="#B7B7B7" /><stop offset="1" stop-color="#D7D7D7" /></linearGradient><linearGradient id="disconnect_e" x1="75.08" x2="75.08" y1="51.74" y2="106.44" gradientUnits="userSpaceOnUse"><stop stop-color="#EEF0F3" /><stop offset=".93" stop-color="#D8D8D8" /></linearGradient><linearGradient id="disconnect_f" x1="74.77" x2="74.77" y1="53.38" y2="97.82" gradientUnits="userSpaceOnUse"><stop stop-color="#FDFDFD" /><stop offset=".93" stop-color="#D5D5D5" /></linearGradient><linearGradient id="disconnect_i" x1="118.9" x2="118.9" y1="72.86" y2="100.43" gradientUnits="userSpaceOnUse"><stop stop-color="#EEF0F3" /><stop offset=".93" stop-color="#D8D8D8" /></linearGradient><symbol fill="none" viewBox="0 0 160 160" id="empty-pack"><path fill="#8E8E8E" fill-opacity=".07" d="M160 80A80 80 0 1 0 0 80a80 80 0 0 0 160 0" /><path stroke="#ABAAAA" stroke-linecap="round" stroke-linejoin="round" stroke-width="4" d="M65.33 59.44V47.11C65.33 40.42 71.3 35 78.67 35 86.03 35 92 40.42 92 47.1v12.34" /><path stroke="url(#empty-pack_a)" stroke-linecap="round" stroke-linejoin="round" stroke-width="4" d="M65.33 59.44V47.11C65.33 40.42 71.3 35 78.67 35 86.03 35 92 40.42 92 47.1v12.34" /><g filter="url(#empty-pack_b)"><path fill="#8F8F8F" d="M54.04 116.51h49.6v4.8h-49.6z" /></g><path fill="url(#empty-pack_c)" d="M56.44 46.11h45.75l.92 18.89H55.33z" /><path fill="#C6C6C6" fill-rule="evenodd" d="M102 46.11 103.11 65H112l-4.44-6.11L102 46.1Zm-45.56 0L55.34 65h-8.9l4.45-6.11z" clip-rule="evenodd" /><path fill="url(#empty-pack_d)" d="M46.44 65H112v51.67a5 5 0 0 1-5 5H51.44a5 5 0 0 1-5-5z" /><path fill="url(#empty-pack_e)" fill-rule="evenodd" d="M66.04 89.7c0-.27.15-.53.4-.66a6.2 6.2 0 0 1 2.64-.75 5.9 5.9 0 0 1 2.59.75c.24.13.37.38.37.66 0 .64-.74 1.06-1.34.84a4.9 4.9 0 0 0-1.64-.31c-.59 0-1.18.15-1.68.33-.6.21-1.34-.2-1.34-.85Z" clip-rule="evenodd" opacity=".5" /><path fill="url(#empty-pack_f)" fill-rule="evenodd" d="M86.44 89.7c0-.27.15-.53.4-.66a6.2 6.2 0 0 1 2.64-.75 5.9 5.9 0 0 1 2.59.75c.24.13.37.38.37.66 0 .64-.74 1.06-1.34.84a4.9 4.9 0 0 0-1.64-.31c-.59 0-1.18.15-1.68.33-.6.21-1.34-.2-1.34-.85Z" clip-rule="evenodd" opacity=".5" /><ellipse cx="79.24" cy="97.89" fill="url(#empty-pack_g)" opacity=".5" rx="6.4" ry="2.8" /><path stroke="url(#empty-pack_h)" stroke-linecap="round" stroke-linejoin="round" stroke-width="4" d="M64.22 71.67V57.09c0-7.9 6.47-14.31 14.45-14.31 7.97 0 14.44 6.4 14.44 14.3v14.59" /><circle cx="110.89" cy="111.67" r="7.78" fill="url(#empty-pack_i)" /><path fill="#fff" d="M108.34 114.89v-.84c0-.49.08-.9.24-1.21.16-.33.39-.6.69-.8.3-.21.68-.39 1.12-.52l.67-.21c.25-.08.45-.18.62-.3a1.21 1.21 0 0 0 .52-1v-.03c0-.33-.11-.6-.34-.8q-.345-.3-.93-.3c-.585 0-.7.12-.94.33-.23.2-.35.5-.35.9v.18h-1.28v-.16c0-.5.11-.94.34-1.3.23-.34.53-.61.92-.8.4-.19.83-.28 1.31-.28s.91.1 1.3.28.69.44.91.77c.23.33.34.71.34 1.16v.1c0 .45-.1.83-.28 1.14-.18.3-.43.56-.74.76s-.67.35-1.07.48l-.64.2c-.29.09-.51.18-.67.29a.9.9 0 0 0-.34.34 1 1 0 0 0-.09.44v.04h3.77v1.14z" /><defs><filter id="empty-pack_b" width="97.97" height="53.17" x="29.86" y="92.32" color-interpolation-filters="sRGB" filterUnits="userSpaceOnUse"><feFlood flood-opacity="0" result="BackgroundImageFix"></feFlood><feBlend in="SourceGraphic" in2="BackgroundImageFix" result="shape"></feBlend><feGaussianBlur result="effect1_foregroundBlur_212_408" stdDeviation="12.09"></feGaussianBlur></filter></defs></symbol><linearGradient id="empty-pack_a" x1="78.67" x2="78.67" y1="35" y2="59.44" gradientUnits="userSpaceOnUse"><stop stop-color="#B9BBBE" /><stop offset=".93" stop-color="#8F8F8F" /></linearGradient><linearGradient id="empty-pack_c" x1="79.22" x2="79.22" y1="46.11" y2="65" gradientUnits="userSpaceOnUse"><stop stop-color="#ECEEF1" /><stop offset=".93" stop-color="#D8D8D8" /></linearGradient><linearGradient id="empty-pack_d" x1="79.22" x2="79.22" y1="65" y2="121.67" gradientUnits="userSpaceOnUse"><stop stop-color="#F9F9F9" /><stop offset="1" stop-color="#fff" /></linearGradient><linearGradient id="empty-pack_e" x1="69.04" x2="69.04" y1="88.29" y2="90.97" gradientUnits="userSpaceOnUse"><stop stop-color="#B9BBBE" /><stop offset=".93" stop-color="#8F8F8F" /></linearGradient><linearGradient id="empty-pack_f" x1="89.44" x2="89.44" y1="88.29" y2="90.97" gradientUnits="userSpaceOnUse"><stop stop-color="#B9BBBE" /><stop offset=".93" stop-color="#8F8F8F" /></linearGradient><linearGradient id="empty-pack_g" x1="79.24" x2="79.24" y1="95.09" y2="100.69" gradientUnits="userSpaceOnUse"><stop stop-color="#B9BBBE" /><stop offset=".93" stop-color="#8F8F8F" /></linearGradient><linearGradient id="empty-pack_h" x1="78.67" x2="78.67" y1="42.78" y2="71.67" gradientUnits="userSpaceOnUse"><stop stop-color="#B9BBBE" /><stop offset=".93" stop-color="#8F8F8F" /></linearGradient><linearGradient id="empty-pack_i" x1="103.11" x2="121.13" y1="115.56" y2="112.68" gradientUnits="userSpaceOnUse"><stop stop-color="#008BCA" /><stop offset="1" stop-color="#00A3FF" /></linearGradient><symbol fill="none" viewBox="0 0 160 160" id="empty-page"><path fill="#8E8E8E" fill-opacity=".07" d="M160 80A80 80 0 1 0 0 80a80 80 0 0 0 160 0" /><g filter="url(#empty-page_a)"><path fill="#8F8F8F" d="M58 113.73h44.64v4.8H58z" /></g><path fill="#C6C6C6" d="M111.98 54.65h-62.4a3.18 3.18 0 0 0-3.18 3.17v57.26a3.18 3.18 0 0 0 3.17 3.18h62.41a3.18 3.18 0 0 0 3.18-3.18V57.82a3.18 3.18 0 0 0-3.18-3.17" /><path fill="#F9F9F9" d="M107.87 98.36H53.68a3.18 3.18 0 0 1-3.17-3.18V44.6a3.18 3.18 0 0 1 3.17-3.17h54.2a3.17 3.17 0 0 1 3.17 3.17v50.6a3.17 3.17 0 0 1-3.18 3.17Z" /><path fill="url(#empty-page_b)" d="M51.51 96.19V45.6a3.18 3.18 0 0 1 3.18-3.18h54.19c.62 0 1.2.18 1.68.5a3.17 3.17 0 0 0-2.69-1.5H53.68a3.18 3.18 0 0 0-3.17 3.17v50.6c0 1.13.6 2.12 1.49 2.68a3.16 3.16 0 0 1-.49-1.68" /><path fill="#fff" d="M101.2 52.1H60.35v2.34h40.85zm0 8.9H60.35v2.33h40.85zm0 8.89H60.35v2.33h40.85zm0 8.89H60.35v2.33h40.85z" /><path fill="url(#empty-page_c)" d="m65 71 11 10H65z" /><path fill="#C6C6C6" d="M115.16 82.38V58.76l-4.11-4.11v27.73h4.1Z" /><path fill="url(#empty-page_d)" d="m119.97 84.51-4.43 31.34a3.18 3.18 0 0 1-3.14 2.73H49.16a3.18 3.18 0 0 1-3.15-2.73l-5.98-42.34a3.17 3.17 0 0 1 3.15-3.62H62.7a3.17 3.17 0 0 1 3.14 2.73l.78 5.54a3.17 3.17 0 0 0 3.15 2.74h47.05c1.92 0 3.4 1.7 3.14 3.61Z" /><path fill="#C6C6C6" d="M99.66 104.44H61.34c-.2 0-.41-.04-.57-.13-.16-.08-.26-.2-.28-.32l-.48-2.3a.33.33 0 0 1 .03-.21c.03-.07.1-.14.18-.2a1.4 1.4 0 0 1 .65-.18h39.27c.12.01.24.03.35.06s.21.07.3.13c.07.05.14.12.17.19.04.07.05.14.03.22l-.48 2.29c-.02.13-.12.24-.28.32-.16.09-.36.13-.57.13" /><defs><filter id="empty-page_a" width="93.01" height="53.17" x="33.81" y="89.55" color-interpolation-filters="sRGB" filterUnits="userSpaceOnUse"><feFlood flood-opacity="0" result="BackgroundImageFix"></feFlood><feBlend in="SourceGraphic" in2="BackgroundImageFix" result="shape"></feBlend><feGaussianBlur result="effect1_foregroundBlur_212_390" stdDeviation="12.09"></feGaussianBlur></filter></defs></symbol><linearGradient id="empty-page_b" x1="82.64" x2="42.49" y1="71.75" y2="31.59" gradientUnits="userSpaceOnUse"><stop stop-color="#fff" /></linearGradient><linearGradient id="empty-page_c" x1="72.27" x2="60.24" y1="82.6" y2="69.37" gradientUnits="userSpaceOnUse"><stop stop-color="#C6C6C6" stop-opacity=".06" /><stop offset=".18" stop-color="#C6C6C6" stop-opacity=".18" /><stop offset="1" stop-color="#C6C6C6" /></linearGradient><linearGradient id="empty-page_d" x1="80" x2="80" y1="69.89" y2="118.58" gradientUnits="userSpaceOnUse"><stop stop-color="#ECEEF1" /><stop offset=".93" stop-color="#D8D8D8" /></linearGradient><symbol fill="none" viewBox="0 0 160 160" id="no-media"><path fill="#8E8E8E" fill-opacity=".07" d="M160 80A80 80 0 0 0 80 0a80 80 0 1 0 80 80" /><g filter="url(#no-media_a)"><rect width="60" height="50" x="49" y="66" fill="url(#no-media_b)" rx="5" /></g><path fill="url(#no-media_c)" d="M47.206 56.553c-.666-3.647 1.765-7.14 5.43-7.804l47.26-8.549c3.666-.663 7.177 1.756 7.843 5.403l1.288 7.05a1 1 0 0 1-.804 1.161L49.658 64.408a1 1 0 0 1-1.164-.806z" /><path fill="#fff" d="m52.435 49.962-.955.173a4.23 4.23 0 0 0-3.325 3.012l7.514 9.037 6.023-1.09zm20.815 9.042-6.023 1.09L57.97 48.96l6.024-1.09zm11.558-2.091-6.023 1.09L69.53 46.87l6.023-1.09zm11.559-2.091-6.023 1.09-9.257-11.133 6.023-1.09zm11.525-2.13.008.044-5.998 1.085-9.257-11.133 6.023-1.09z" /><path fill="url(#no-media_d)" d="m90.083 93.877-4.68-5.182c-1.56-1.726-4.278-1.711-5.868.032l-5.037 5.523-.683-.751c-1.57-1.73-4.305-1.697-5.886.069l-.521.583c-2.317 2.588-.52 6.663 2.921 6.625l9.996-.111 6.8-.102c3.431-.051 5.245-4.153 2.958-6.686" /><path fill="url(#no-media_e)" d="M72.533 87.518a3.75 3.75 0 0 0 3.782-3.759A3.695 3.695 0 0 0 72.58 80a3.75 3.75 0 0 0-3.782 3.76 3.695 3.695 0 0 0 3.736 3.758Z" /><defs><filter id="no-media_a" width="104" height="94" x="27" y="55" color-interpolation-filters="sRGB" filterUnits="userSpaceOnUse"><feFlood flood-opacity="0" result="BackgroundImageFix"></feFlood><feColorMatrix in="SourceAlpha" result="hardAlpha" values="0 0 0 0 0 0 0 0 0 0 0 0 0 0 0 0 0 0 127 0"></feColorMatrix><feOffset dy="11"></feOffset><feGaussianBlur stdDeviation="11"></feGaussianBlur><feColorMatrix values="0 0 0 0 0.624442 0 0 0 0 0.624442 0 0 0 0 0.624442 0 0 0 0.27 0"></feColorMatrix><feBlend in2="BackgroundImageFix" result="effect1_dropShadow_229_379"></feBlend><feBlend in="SourceGraphic" in2="effect1_dropShadow_229_379" result="shape"></feBlend><feColorMatrix in="SourceAlpha" result="hardAlpha" values="0 0 0 0 0 0 0 0 0 0 0 0 0 0 0 0 0 0 127 0"></feColorMatrix><feOffset dx=".5" dy="-.5"></feOffset><feGaussianBlur stdDeviation=".5"></feGaussianBlur><feComposite in2="hardAlpha" k2="-1" k3="1" operator="arithmetic"></feComposite><feColorMatrix values="0 0 0 0 1 0 0 0 0 1 0 0 0 0 1 0 0 0 1 0"></feColorMatrix><feBlend in2="shape" result="effect2_innerShadow_229_379"></feBlend></filter></defs></symbol><linearGradient id="no-media_b" x1="79" x2="79" y1="66" y2="116" gradientUnits="userSpaceOnUse"><stop stop-color="#fff" /><stop offset=".927" stop-color="#E9E9E9" /></linearGradient><linearGradient id="no-media_c" x1="76.266" x2="78.915" y1="44.475" y2="59.116" gradientUnits="userSpaceOnUse"><stop stop-color="#B7B7B7" /><stop offset="1" stop-color="#D7D7D7" /></linearGradient><linearGradient id="no-media_d" x1="77.092" x2="79.155" y1="86.158" y2="102.55" gradientUnits="userSpaceOnUse"><stop stop-color="#B7B7B7" /><stop offset="1" stop-color="#D7D7D7" /></linearGradient><linearGradient id="no-media_e" x1="72.579" x2="72.579" y1="80" y2="87.518" gradientUnits="userSpaceOnUse"><stop stop-color="#B7B7B7" /><stop offset="1" stop-color="#D7D7D7" /></linearGradient><symbol fill="none" viewBox="0 0 160 160" id="no-plugins"><path fill="#8E8E8E" fill-opacity=".07" d="M160 80A79.99 79.99 0 1 0 .02 80 79.99 79.99 0 0 0 160 80" /><g filter="url(#no-plugins_a)"><path fill="url(#no-plugins_b)" d="M80 88.33v20.36a5.3 5.3 0 0 1-2.6 4.42l-16.2 9c-.9.6-2.13.89-3.2.89V97.62l21.24-11.8c.45.74.76 1.62.76 2.5Z" /><g filter="url(#no-plugins_c)"><path fill="url(#no-plugins_d)" d="M58 97.62V123a6.6 6.6 0 0 1-3.2-.89l-16.2-9a4.82 4.82 0 0 1-2.6-4.42V88.33c0-.89.3-1.77.76-2.5z" /></g><path fill="#fff" d="M79.24 85.82 58 97.62 36.61 85.67a4.9 4.9 0 0 1 1.99-1.91l16.65-9.3a5.84 5.84 0 0 1 5.2-.15l17.1 9.6h.16c.6.58 1.22 1.17 1.53 1.91" /><path fill="url(#no-plugins_e)" d="M124 88.33v20.36a5.3 5.3 0 0 1-2.6 4.42l-16.2 9c-.9.6-2.13.89-3.2.89V97.62l21.24-11.8c.45.74.76 1.62.76 2.5Z" /><path fill="url(#no-plugins_f)" d="M102 97.62V123a6.6 6.6 0 0 1-3.2-.89l-16.2-9a4.82 4.82 0 0 1-2.6-4.42V88.33c0-.89.3-1.77.76-2.5z" /><path fill="#fff" d="M123.24 85.82 102 97.62 80.61 85.67a4.9 4.9 0 0 1 1.99-1.91l16.65-9.3a5.84 5.84 0 0 1 5.2-.15l17.1 9.6h.16c.6.58 1.22 1.17 1.53 1.91" /><path fill="url(#no-plugins_g)" d="M102.6 50.33v20.79a5.1 5.1 0 0 1-2.8 4.59L83.17 85c-.98.55-2.1.82-3.21.82V59.78l21.94-12.15c.42.81.7 1.76.7 2.7" /><g filter="url(#no-plugins_h)"><path fill="url(#no-plugins_i)" d="M79.96 59.78v26.05a6.7 6.7 0 0 1-3.22-.81l-7.26-4.05-9.5-5.26a5.64 5.64 0 0 1-2.8-4.46V50.2c0-.95.28-1.9.7-2.7z" /></g><path fill="#fff" d="M101.76 47.63 79.82 59.78 57.88 47.5a4.34 4.34 0 0 1 1.95-1.9l17.05-9.57a5.7 5.7 0 0 1 5.31-.14l17.61 9.85s.14 0 .14.14c.84.54 1.4 1.08 1.82 1.75" /><path fill="#C6C6C6" fill-rule="evenodd" d="M100.96 32c.65 0 1.18.53 1.18 1.18v7.05a1.18 1.18 0 1 1-2.35 0v-7.05c0-.65.52-1.18 1.17-1.18m15.74.34c.45.46.45 1.2 0 1.67l-8.63 8.62a1.18 1.18 0 1 1-1.66-1.66l8.62-8.63c.46-.45 1.2-.45 1.66 0Zm-9.86 16.52c0-.65.53-1.18 1.18-1.18h7.84a1.18 1.18 0 1 1 0 2.35h-7.84c-.65 0-1.18-.52-1.18-1.17" clip-rule="evenodd" /><path fill="#C6C6C6" d="M91.26 86.16c-.24 1.02-.6 2.1-1.02 3a11.77 11.77 0 0 1-5.17 5.09 11.75 11.75 0 1 1-2.94-21.98c2.28.47 4.26 1.61 5.95 3.17a11.68 11.68 0 0 1 3.18 10.72" /><path fill="#fff" d="M83.45 82.75h-2.68v-2.68a1 1 0 0 0-1-1.01 1 1 0 0 0-1.02 1v2.69h-2.68a1 1 0 0 0-1.01 1.01c0 .6.41 1.01 1.01 1.01h2.68v2.68a1 1 0 0 0 1.01 1.02 1 1 0 0 0 1.01-1.02v-2.68h2.68a1 1 0 0 0 1.02-1 1 1 0 0 0-1.02-1.02" /></g><defs><filter id="no-plugins_a" width="132" height="135" x="14" y="21" color-interpolation-filters="sRGB" filterUnits="userSpaceOnUse"><feFlood flood-opacity="0" result="BackgroundImageFix"></feFlood><feColorMatrix in="SourceAlpha" result="hardAlpha" values="0 0 0 0 0 0 0 0 0 0 0 0 0 0 0 0 0 0 127 0"></feColorMatrix><feOffset dy="11"></feOffset><feGaussianBlur stdDeviation="11"></feGaussianBlur><feColorMatrix values="0 0 0 0 0.624442 0 0 0 0 0.624442 0 0 0 0 0.624442 0 0 0 0.27 0"></feColorMatrix><feBlend in2="BackgroundImageFix" result="effect1_dropShadow_227_379"></feBlend><feBlend in="SourceGraphic" in2="effect1_dropShadow_227_379" result="shape"></feBlend></filter><filter id="no-plugins_c" width="22.5" height="37.68" x="36" y="85.82" color-interpolation-filters="sRGB" filterUnits="userSpaceOnUse"><feFlood flood-opacity="0" result="BackgroundImageFix"></feFlood><feBlend in="SourceGraphic" in2="BackgroundImageFix" result="shape"></feBlend><feColorMatrix in="SourceAlpha" result="hardAlpha" values="0 0 0 0 0 0 0 0 0 0 0 0 0 0 0 0 0 0 127 0"></feColorMatrix><feOffset dx=".5" dy=".5"></feOffset><feGaussianBlur stdDeviation=".5"></feGaussianBlur><feComposite in2="hardAlpha" k2="-1" k3="1" operator="arithmetic"></feComposite><feColorMatrix values="0 0 0 0 1 0 0 0 0 1 0 0 0 0 1 0 0 0 1 0"></feColorMatrix><feBlend in2="shape" result="effect1_innerShadow_227_379"></feBlend></filter><filter id="no-plugins_h" width="23.28" height="38.83" x="57.18" y="47.5" color-interpolation-filters="sRGB" filterUnits="userSpaceOnUse"><feFlood flood-opacity="0" result="BackgroundImageFix"></feFlood><feBlend in="SourceGraphic" in2="BackgroundImageFix" result="shape"></feBlend><feColorMatrix in="SourceAlpha" result="hardAlpha" values="0 0 0 0 0 0 0 0 0 0 0 0 0 0 0 0 0 0 127 0"></feColorMatrix><feOffset dx=".5" dy=".5"></feOffset><feGaussianBlur stdDeviation=".5"></feGaussianBlur><feComposite in2="hardAlpha" k2="-1" k3="1" operator="arithmetic"></feComposite><feColorMatrix values="0 0 0 0 1 0 0 0 0 1 0 0 0 0 1 0 0 0 1 0"></feColorMatrix><feBlend in2="shape" result="effect1_innerShadow_227_379"></feBlend></filter></defs></symbol><linearGradient id="no-plugins_b" x1="80" x2="58" y1="104.41" y2="104.41" gradientUnits="userSpaceOnUse"><stop stop-color="#FDFDFD" /><stop offset=".93" stop-color="#E6E6E6" /></linearGradient><linearGradient id="no-plugins_d" x1="47" x2="47" y1="85.82" y2="123" gradientUnits="userSpaceOnUse"><stop stop-color="#FDFDFD" /><stop offset=".93" stop-color="#D5D5D5" /></linearGradient><linearGradient id="no-plugins_e" x1="124" x2="102" y1="104.41" y2="104.41" gradientUnits="userSpaceOnUse"><stop stop-color="#FDFDFD" /><stop offset=".93" stop-color="#E6E6E6" /></linearGradient><linearGradient id="no-plugins_f" x1="91" x2="91" y1="85.82" y2="123" gradientUnits="userSpaceOnUse"><stop stop-color="#FDFDFD" /><stop offset=".93" stop-color="#D5D5D5" /></linearGradient><linearGradient id="no-plugins_g" x1="102.6" x2="79.96" y1="66.73" y2="66.73" gradientUnits="userSpaceOnUse"><stop stop-color="#FDFDFD" /><stop offset=".93" stop-color="#E6E6E6" /></linearGradient><linearGradient id="no-plugins_i" x1="68.57" x2="68.57" y1="47.5" y2="85.83" gradientUnits="userSpaceOnUse"><stop stop-color="#FDFDFD" /><stop offset=".93" stop-color="#D5D5D5" /></linearGradient><symbol fill="none" viewBox="0 0 160 163" id="not-found"><path fill="#8E8E8E" fill-opacity=".07" d="M160 80A80 80 0 0 0 80 0a80 80 0 1 0 80 80" /><path fill="#999" d="M118 114.5c0 1.933-15.5 3.5-39 3.5-23 0-39-1.567-39-3.5s17.46-3.5 39-3.5 39 1.567 39 3.5" /><path fill="#C6C6C6" d="m81.498 26 4.299 1.28-2.104 18.294-2.287-.823zm-.274 20.855 2.103.823-.274 1.738-2.104-.732zm7.958-11.068 4.299 1.19-2.013 11.707-2.378-.823zm-.275 14.086 2.104.824-.274 1.646-2.104-.732z" /><path fill="url(#not-found_a)" d="M107 117c-22.731 1.593-34.964 1.532-56 0 0-3 2-5.5 3-7-.274-3.659.972-14.038 5.271-17.605v-.274C57.167 71.174 77.5 74.5 77.5 74.5l25.219 2.528s0 6.769-.641 10.336c-.548 3.201-1.28 7.043-1.463 8.964C102.677 99.542 107 105.5 107 117" /><path fill="url(#not-found_b)" d="M93.938 93.961c-.732.458-1.647.823-2.47 1.098-1.097.366-2.378.732-3.567.915-3.659.731-7.41.914-11.16.091-3.11-.64-6.22-1.646-9.055-3.293a14.7 14.7 0 0 1-2.744-1.92c-4.665-3.934-7.134-6.86-6.037-12.898s2.47-10.519 2.47-10.519c.091-.457.823-1.097 1.097-1.463.458-.457.732-1.006 1.19-1.464a65 65 0 0 1 2.378-2.835c1.83-1.83 3.841-3.293 6.22-4.208 3.841-1.372 7.957-1.189 11.89-.64 2.928.366 5.855 1.006 8.416 2.47 2.287 1.28 4.024 3.018 5.488 5.122 1.555 2.287 2.653 4.848 3.933 7.409 0 0 .457 4.756.274 10.885 0 6.128-3.018 8.323-8.323 11.25" /><path fill="#D7D6D6" d="M74.18 78.412c-.914.64-2.286 3.11-6.128 1.097-5.396-2.927-4.024-10.244-.64-12.257 6.037-3.567 11.525-1.006 11.8 4.574.274 5.945-3.11 5.397-5.031 6.586Z" /><path fill="#fff" d="M71.07 77.222c2.379.275 4.483-1.463 4.757-3.841s-1.463-4.482-3.842-4.757-4.482 1.464-4.756 3.842c-.275 2.378 1.463 4.482 3.842 4.757Z" /><path fill="#C6C6C6" d="M75.278 73.838c-.183 1.83-1.83 3.202-3.658 3.019-1.83-.183-3.202-1.83-3.019-3.66.275.275.64.55 1.006.641.823.092 1.555-.457 1.647-1.372.091-.823-.458-1.555-1.28-1.646.64-.458 1.463-.64 2.286-.55 1.92.092 3.201 1.647 3.018 3.568" /><path fill="#fff" d="M91.925 79.418c2.379.274 4.482-1.464 4.757-3.842s-1.464-4.482-3.842-4.756c-2.378-.275-4.482 1.463-4.756 3.841-.275 2.47 1.463 4.574 3.841 4.757" /><path fill="#C6C6C6" d="M88.45 75.21c-.183 1.83 1.189 3.476 3.018 3.659 1.83.183 3.476-1.19 3.659-3.019-.274.275-.732.458-1.098.366-.823-.091-1.463-.823-1.372-1.646.092-.823.824-1.372 1.647-1.372a3.5 3.5 0 0 0-2.104-1.006c-1.83-.183-3.476 1.097-3.75 3.018M73.723 62.679c-1.555.274-2.927.549-4.025 1.28-1.097.732-2.195 1.921-2.744 3.293 0 .092-.091.092-.183.092-.091 0-.091-.092-.091-.092.091-.731.457-1.554.915-2.195.365-.732 1.006-1.28 1.737-1.738s1.373-.823 2.196-1.097c.823-.092 1.646-.183 2.378.183-.092 0 .091.182-.183.274q.136 0 0 0m18.752 3.293c1.372.549 2.56 1.098 3.567 2.012.915.915 1.646 2.287 1.92 3.659 0 .091.092.091.184.091.091 0 .091-.091.091-.091.092-.732-.183-1.555-.366-2.195-.274-.732-.64-1.464-1.28-2.013-.55-.548-1.098-1.097-1.83-1.463-.731-.274-1.555-.457-2.286-.366-.092.092-.092.183 0 .366 0 0-.183 0 0 0m8.14-4.025c-1.646-2.195-4.024-1.555-3.11 1.006 1.464 4.025 4.208 5.946 4.94 20.947.183 2.652 9.055-3.019 9.055-12.44 0-1.738-2.104-2.378-2.104-2.378-1.28-.366-6.128-3.75-8.781-7.135" /><path fill="#EEE" d="M25.244 69.082s-9.695-2.836-8.14.366 5.854 9.604 12.714 11.159c6.86 1.463 2.744-4.574 2.835-4.482z" /><g filter="url(#not-found_c)"><path fill="url(#not-found_d)" d="M15 62.862c2.47 2.744 12.806 6.769 21.221 6.403 1.19 8.78 2.104 11.433 3.659 12.53-4.208 1.099-15.55.184-17.105-8.323-7.958.366-7.775-10.61-7.775-10.61" /></g><g filter="url(#not-found_e)"><path fill="url(#not-found_f)" d="M124.305 95.333c2.744-1.829 7.684-10.336 8.416-17.653 7.774 0 10.153-.366 11.433-1.647.366 3.842-.366 13.263-6.951 18.843-7.318.732-12.898.457-12.898.457" /></g><g filter="url(#not-found_g)"><path fill="url(#not-found_h)" d="M103.725 125.244c-12.714 2.103-15.001 2.469-19.849 1.829S72.26 125.609 69.973 130c-1.006-5.763-2.973-11.908-5-13 .274-.366.457-.915.457-1.463 0-1.098-.64-2.013-1.647-2.379q.275-.549.275-1.097a2.557 2.557 0 0 0-2.561-2.561c-.824 0-1.555.365-2.013 1.006.092-.458.183-.824.183-1.006 0-1.372-1.167-2-2.167-2-2.606.154-3.5 2.5-3.5 2.5l-12.748-4.239c3.933-7.775 22.592-19.117 36.038-17.013 8.598 1.28 18.294 3.658 23.233 13.08-.274-.092-.548-.183-.823-.183-.091 0-.274 0-.457.091-.457-.64-1.19-1.006-2.012-1.006-1.28 0-2.287.915-2.47 2.104h-.732a2.46 2.46 0 0 0-2.47 2.469c0 1.007.64 1.921 1.556 2.287-.458.457-.732 1.006-.732 1.738a2.46 2.46 0 0 0 2.47 2.47c.914 0 1.646-.458 2.103-1.098.458.64 1.19 1.098 2.104 1.098a2.46 2.46 0 0 0 2.47-2.47v-.183c.64-.274 1.189-.823 1.372-1.463 1.189 4.573 1.646 10.336.823 17.562" /></g><path fill="#fff" d="M71.802 118.566c3.567-1.097 18.751-4.482 27.44-3.475z" /><path fill="#D7D6D6" fill-rule="evenodd" d="M83.696 116.627c-5.31.854-9.97 1.97-11.719 2.508l-.35-1.137c1.818-.559 6.535-1.685 11.88-2.546 5.337-.858 11.373-1.465 15.804-.952l-.136 1.181c-4.259-.493-10.159.09-15.479.946" clip-rule="evenodd" /><path fill="#fff" d="M68.235 113.718c2.927-1.28 17.013-4.207 24.148-4.481z" /><path fill="#D7D6D6" fill-rule="evenodd" d="M72.383 113.094c-1.846.459-3.23.872-3.91 1.17l-.476-1.09c.783-.343 2.258-.776 4.099-1.234a131 131 0 0 1 6.522-1.424c4.787-.927 10.128-1.735 13.742-1.874l.046 1.189c-3.52.135-8.79.929-13.562 1.853-2.381.462-4.63.954-6.46 1.41Z" clip-rule="evenodd" /><path fill="#fff" d="M64.85 108.322c11.617-6.494 20.764-3.75 28.264-9.513z" /><path fill="#D7D6D6" fill-rule="evenodd" d="M80.632 103.876c-4.674.846-9.777 1.771-15.491 4.965l-.58-1.038c5.89-3.293 11.16-4.247 15.83-5.092l.03-.005c4.695-.85 8.713-1.588 12.331-4.368l.725.943c-3.868 2.971-8.157 3.747-12.794 4.586l-.05.009Z" clip-rule="evenodd" /><path fill="#fff" d="M61.1 104.206c4.94-3.385 9.147-4.94 14.818-5.397z" /><path fill="#D7D6D6" fill-rule="evenodd" d="M75.966 99.402c-5.56.448-9.67 1.964-14.53 5.294l-.672-.981c5.018-3.438 9.324-5.032 15.106-5.499z" clip-rule="evenodd" /><path fill="#A5A5A5" d="M91.743 90.851v.459c0 .091 0 .183-.092.274-.549 1.464-2.927 3.201-5.397 3.476s-5.03-.732-6.128-4.848c-2.653 2.561-5.214 2.927-7.318 2.378-2.744-.731-4.573-2.927-4.664-3.567 0-.274 0-.549.091-.823.64-5.946 6.403-10.153 12.897-9.421 6.494.823 11.25 6.22 10.61 12.073Z" /><path fill="#C6C6C6" d="M81.132 79.692a5.5 5.5 0 0 0-1.738 0c-.731.183-1.829.366-2.012 1.28-.091 1.19 2.47 2.562 3.201 2.653.732.092 3.568-.64 3.75-1.829.092-1.19-.914-1.647-1.829-1.92-.457-.092-1.006-.275-1.372-.184" /><path fill="#C6C6C6" fill-rule="evenodd" d="M80.375 85.817a30 30 0 0 0-.314-3.293l.74-.114c.126.821.278 2.126.322 3.381.022.627.017 1.25-.032 1.796-.048.537-.143 1.04-.325 1.404l-.67-.334c.118-.235.204-.623.25-1.137.046-.504.05-1.093.03-1.703Z" clip-rule="evenodd" /><path fill="#A5A5A5" d="m65.857 61.49-.091 1.006c-.458.457-.824 1.006-1.281 1.555-2.378 3.201-4.574 7.409-5.214 12.714-.183-.64-2.104-7.5-2.47-8.78-.09-.275-.182-.458-.182-.458v-1.921l1.738-3.842 4.482-2.286z" /><path fill="#C6C6C6" d="M69.882 58.654a22.3 22.3 0 0 0-4.117 3.842c-.457.457-.823 1.006-1.28 1.555-.183-2.561-3.202-2.927-3.202-2.927-.365 2.287-2.378 4.848-4.573 6.86-1.83 1.647-3.842 2.836-5.122 2.927-.366 0-.64-.274-.458-.64.915-2.378.64-5.854.915-7.592.366-1.92 5.854-4.848 8.69-5.946 2.195-.823 7.957.366 9.147 1.921" /><defs><filter id="not-found_c" width="44.88" height="39.308" x="1" y="52.862" color-interpolation-filters="sRGB" filterUnits="userSpaceOnUse"><feFlood flood-opacity="0" result="BackgroundImageFix"></feFlood><feColorMatrix in="SourceAlpha" result="hardAlpha" values="0 0 0 0 0 0 0 0 0 0 0 0 0 0 0 0 0 0 127 0"></feColorMatrix><feOffset dx="-4"></feOffset><feGaussianBlur stdDeviation="5"></feGaussianBlur><feColorMatrix values="0 0 0 0 0.562537 0 0 0 0 0.562537 0 0 0 0 0.562537 0 0 0 0.15 0"></feColorMatrix><feBlend in2="BackgroundImageFix" result="effect1_dropShadow_223_1069"></feBlend><feBlend in="SourceGraphic" in2="effect1_dropShadow_223_1069" result="shape"></feBlend></filter><filter id="not-found_e" width="39.925" height="39.35" x="110.305" y="66.033" color-interpolation-filters="sRGB" filterUnits="userSpaceOnUse"><feFlood flood-opacity="0" result="BackgroundImageFix"></feFlood><feColorMatrix in="SourceAlpha" result="hardAlpha" values="0 0 0 0 0 0 0 0 0 0 0 0 0 0 0 0 0 0 127 0"></feColorMatrix><feOffset dx="-4"></feOffset><feGaussianBlur stdDeviation="5"></feGaussianBlur><feColorMatrix values="0 0 0 0 0.562537 0 0 0 0 0.562537 0 0 0 0 0.562537 0 0 0 0.15 0"></feColorMatrix><feBlend in2="BackgroundImageFix" result="effect1_dropShadow_223_1069"></feBlend><feBlend in="SourceGraphic" in2="effect1_dropShadow_223_1069" result="shape"></feBlend></filter><filter id="not-found_g" width="106.891" height="85.508" x="19.252" y="77.492" color-interpolation-filters="sRGB" filterUnits="userSpaceOnUse"><feFlood flood-opacity="0" result="BackgroundImageFix"></feFlood><feColorMatrix in="SourceAlpha" result="hardAlpha" values="0 0 0 0 0 0 0 0 0 0 0 0 0 0 0 0 0 0 127 0"></feColorMatrix><feOffset dy="11"></feOffset><feGaussianBlur stdDeviation="11"></feGaussianBlur><feColorMatrix values="0 0 0 0 0.576823 0 0 0 0 0.576823 0 0 0 0 0.576823 0 0 0 0.27 0"></feColorMatrix><feBlend in2="BackgroundImageFix" result="effect1_dropShadow_223_1069"></feBlend><feBlend in="SourceGraphic" in2="effect1_dropShadow_223_1069" result="shape"></feBlend></filter></defs></symbol><linearGradient id="not-found_a" x1="89.5" x2="79.44" y1="94.5" y2="117.269" gradientUnits="userSpaceOnUse"><stop stop-color="#CFCFCF" /><stop offset=".927" stop-color="#B3B3B3" /></linearGradient><linearGradient id="not-found_b" x1="80.476" x2="80.476" y1="56.414" y2="96.607" gradientUnits="userSpaceOnUse"><stop stop-color="#FDFDFD" /><stop offset=".927" stop-color="#D5D5D5" /></linearGradient><linearGradient id="not-found_d" x1="27.44" x2="27.44" y1="62.862" y2="82.169" gradientUnits="userSpaceOnUse"><stop stop-color="#F9F9F9" /><stop offset="1" stop-color="#fff" /></linearGradient><linearGradient id="not-found_f" x1="134.268" x2="134.268" y1="76.033" y2="95.384" gradientUnits="userSpaceOnUse"><stop stop-color="#F9F9F9" /><stop offset="1" stop-color="#fff" /></linearGradient><linearGradient id="not-found_h" x1="72.697" x2="72.697" y1="88.492" y2="130" gradientUnits="userSpaceOnUse"><stop stop-color="#F9F9F9" /><stop offset="1" stop-color="#fff" /></linearGradient><symbol fill="none" viewBox="0 0 160 160" id="success"><path fill="#8E8E8E" fill-opacity=".07" d="M160 80A79.99 79.99 0 1 0 .02 80 79.99 79.99 0 0 0 160 80" /><g filter="url(#success_a)"><path fill="#8F8F8F" d="M39.37 121h40v1h-40z" /></g><g filter="url(#success_b)"><path fill="url(#success_c)" d="M41.63 116.53c1.39 1.63 7.51-1.14 12.25-3.43l25.3-10.61c1.96-.82 4.74-1.88 6.78-4.57 1.8-2.37 6.53-12.41-3.02-22.61-9.8-10.37-19.76-7.51-23.51-4.9-2.2 1.63-4.08 5.14-4.9 6.94-3.35 7.59-8.16 21.38-10.2 26.85-1.4 4.09-4.09 10.78-2.7 12.33" /></g><path fill="#C6C6C6" d="M53.55 79.63a48.2 48.2 0 0 0 3.27 13.15c1.48 3.85 4.37 7 8.08 8.81a29.4 29.4 0 0 0 8.65 3.27l-4.24 1.71s-2.45-.49-5.96-2.2c-3.27-1.64-6.7-4.41-9.23-9.8a28.9 28.9 0 0 1-2.61-9.88zm-5.14 13.15s.49 4.24 4 9.55a16.32 16.32 0 0 0 9.8 7.34l-3.76 1.47s-4.25-1.22-8.33-6.77c-2.45-3.43-3.18-7.51-3.18-7.51zm-3.6 10.04s.9 3.67 3.03 6.36c2.45 3.27 5.63 4.17 5.63 4.17l-2.94 1.3s-2.2-.49-4.57-3.5c-1.88-2.37-2.45-4.99-2.45-4.99z" /><path fill="url(#success_d)" d="M63.84 90.49c7.75 8.98 16.57 7.92 19.5 5.63 2.95-2.28 5.23-10.2-2.44-19.1-8.17-9.3-17.23-6.7-19.35-4.65-2.12 2.04-4.9 9.8 2.29 18.12" /><path fill="url(#success_e)" d="M92.72 92.61c-2.97-1.8-4.5-1.44-6.62-.84a24.4 24.4 0 0 1-12.73 0L74.5 90c3.4.84 6.5-.75 8.63-1.66 2.8-1.2 6.53-2.76 12.39.79 2.54 1.44 5 2.4 6.79 1.98 1.36-.36 2.12-1.8 2.46-2.89l.09-.6c.33-1.8.84-5.6 4.92-7.52 4.24-2.1 8.74-2.1 8.74-2.1l.85 5.71a9.9 9.9 0 0 0-4.76.6c-4.58 1.8-.59 8.66-7.63 11-6.88 2.23-12.48-1.61-14.26-2.7" /><path fill="url(#success_f)" d="M65.35 83.91 63 82c4.65-6.4 3.22-11.96 2.35-15.39a23.1 23.1 0 0 1-.87-7.66 19.1 19.1 0 0 1-2.62-5.76c-1.09-4.05-.29-8.02 1.6-11.71C67.16 34 74 34 74 34l2.26 7.48c-1.67 0-7.35 0-9.1 3.42-2.17 4.33-.72 6.94-.72 7.2l1.31-1.61c2.76-3.07 5.16-3.43 6.69-3.34.91.14 1.8.51 2.59 1.1.8.57 1.48 1.34 2.03 2.26.54.92.93 1.97 1.14 3.08a8.87 8.87 0 0 1-1.15 6.57 6.9 6.9 0 0 1-2.21 2.22c-3.13 1.98-5.82 1.8-7.56.99v.18l.43 1.44c1.02 3.97 2.91 10.18-4.43 19.01zm4.22-26.94 1.09.81c1.24.54 2.54.36 4.07-.63.87-.63.95-1.26 1.02-1.44a3.17 3.17 0 0 0-.44-1.98c-.36-.54-.72-.9-1.23-.9-.88 0-2.04.63-3.2 1.9a6.4 6.4 0 0 0-1.31 2.24" /><path fill="url(#success_g)" d="M75.5 85h-2.13s1.97-10.85 8.2-12.63c1.24-.33 2.47-.65 3.78-.81.82-.16 1.97-.33 2.54-.57.17-.97-.24-2.27-.82-3.72-.32-1.22-.73-2.35-.9-3.65-.4-2.43.25-4.7 1.89-6.15 1.97-1.87 5.17-2.43 8.78-1.62 2.13.4 3.61 1.46 4.92 2.35 1.97 1.21 3.04 1.86 5.42.32 2.8-1.86-.82-9.31-2.87-13.52l7.39-3c.98 2.1 5.74 13.04 2.62 19.27a7.39 7.39 0 0 1-5.33 4.05c-5.17 1.14-8.21-.8-10.43-2.27a11.1 11.1 0 0 0-3.03-1.61c-6.9-1.87 2.79 8.17-1.73 12.7-2.79 2.76-9.43 3.5-9.84 3.57C79.69 78.76 75.5 85 75.5 85" /><path fill="#9C1713" d="M64.42 59c-.06 1.55-.13 2.45.2 4.55C66.13 65 69.38 65 69.38 65c-.2-.55-.27-1.1-.34-1.45v-.19c-3.46-2.18-4.6-4.36-4.6-4.36Z" /><path fill="#FFC107" d="M56.42 67 51 64.2l2.64-4.2L58 63.01z" /><path fill="#FB8C00" d="M46.43 58c-3-.38-6.07-2.68-6.43-2.94L43 52c.86.64 2.79 1.79 4 1.91z" /><path fill="url(#success_h)" d="M53.12 50 48 48.54c.51-1.6.68-3.2.43-4.81L53.8 43c.42 2.26.17 4.74-.68 6.93z" /><path fill="#FB8C00" d="m84 46.88 3.89-.88L89 51.19l-3.89.81L84 46.87Z" /><path fill="#FFC107" d="M95.9 47 93 44.1c1.52-1.3 1.85-3.1 1.85-3.1l4.15.62c0 .3-.6 3.1-3.1 5.38" /><path fill="#FB8C00" d="m99 68.09 3.73-1.09 1.27 3.85-3.73 1.15L99 68.15z" /><path fill="url(#success_i)" d="m99.94 109.92-5.33-.55c.25-1.72-1.19-3.92-1.61-4.39l4.32-2.98c.33.4 3.13 3.92 2.62 8z" /><path fill="#FB8C00" d="M114.36 103c-1.79-.3-3.5-.37-5.22-.3L109 98c2 0 4 0 6 .37l-.71 4.63z" /><path fill="#F48FB1" d="m108 111 2.94-3 4.06 4-2.94 3z" /><path fill="url(#success_j)" d="m96.75 78 3.25 3.71L96.25 85 93 81.29z" /><defs><filter id="success_a" width="64" height="25" x="27.37" y="109" color-interpolation-filters="sRGB" filterUnits="userSpaceOnUse"><feFlood flood-opacity="0" result="BackgroundImageFix"></feFlood><feBlend in="SourceGraphic" in2="BackgroundImageFix" result="shape"></feBlend><feGaussianBlur result="effect1_foregroundBlur_215_437" stdDeviation="6"></feGaussianBlur></filter><filter id="success_b" width="47.98" height="49.31" x="41.25" y="67.96" color-interpolation-filters="sRGB" filterUnits="userSpaceOnUse"><feFlood flood-opacity="0" result="BackgroundImageFix"></feFlood><feBlend in="SourceGraphic" in2="BackgroundImageFix" result="shape"></feBlend><feColorMatrix in="SourceAlpha" result="hardAlpha" values="0 0 0 0 0 0 0 0 0 0 0 0 0 0 0 0 0 0 127 0"></feColorMatrix><feOffset dx=".5" dy=".25"></feOffset><feGaussianBlur stdDeviation=".5"></feGaussianBlur><feComposite in2="hardAlpha" k2="-1" k3="1" operator="arithmetic"></feComposite><feColorMatrix values="0 0 0 0 1 0 0 0 0 1 0 0 0 0 1 0 0 0 1 0"></feColorMatrix><feBlend in2="shape" result="effect1_innerShadow_215_437"></feBlend></filter></defs></symbol><linearGradient id="success_c" x1="64.99" x2="64.99" y1="67.96" y2="117.02" gradientUnits="userSpaceOnUse"><stop stop-color="#EEF0F3" /><stop offset=".93" stop-color="#D8D8D8" /></linearGradient><linearGradient id="success_d" x1="72.65" x2="72.65" y1="70.4" y2="97.72" gradientUnits="userSpaceOnUse"><stop stop-color="#DDDEE0" /><stop offset=".93" stop-color="#9F9F9F" /></linearGradient><linearGradient id="success_e" x1="73.37" x2="120.24" y1="91.5" y2="72.41" gradientUnits="userSpaceOnUse"><stop stop-color="#008BCA" /><stop offset="1" stop-color="#00A3FF" /></linearGradient><linearGradient id="success_f" x1="73.44" x2="58.84" y1="33.93" y2="82.14" gradientUnits="userSpaceOnUse"><stop stop-color="#FF2010" /><stop offset="1" stop-color="#C12317" /></linearGradient><linearGradient id="success_g" x1="108.96" x2="74.28" y1="44.48" y2="83.14" gradientUnits="userSpaceOnUse"><stop stop-color="#FF6FA0" /><stop offset="1" stop-color="#DB2D68" /></linearGradient><linearGradient id="success_h" x1="48" x2="55" y1="48.25" y2="47.29" gradientUnits="userSpaceOnUse"><stop stop-color="#008BCA" /><stop offset="1" stop-color="#00A3FF" /></linearGradient><linearGradient id="success_i" x1="97.45" x2="96.36" y1="101.99" y2="110.27" gradientUnits="userSpaceOnUse"><stop stop-color="#FF2010" /><stop offset="1" stop-color="#C12317" /></linearGradient><linearGradient id="success_j" x1="97.45" x2="96.61" y1="77.99" y2="85.26" gradientUnits="userSpaceOnUse"><stop stop-color="#FF2010" /><stop offset="1" stop-color="#C12317" /></linearGradient><symbol fill="none" viewBox="0 0 160 160" id="ufo"><path fill="#8E8E8E" fill-opacity=".07" d="M160 80A80 80 0 1 0 0 80a80 80 0 0 0 160 0" /><path fill="#C6C6C6" d="m90.76 36.58 1.25.36-1.24 4.33-1.25-.36z" /><ellipse cx="87.07" cy="51.33" fill="url(#ufo_a)" rx="15.28" ry="11.06" transform="rotate(13 87.07 51.33)" /><ellipse cx="84.63" cy="60.44" fill="url(#ufo_b)" rx="40.97" ry="14.63" transform="rotate(13 84.63 60.44)" /><g filter="url(#ufo_c)"><ellipse cx="84.34" cy="61.71" fill="url(#ufo_d)" rx="40.97" ry="14.63" transform="rotate(13 84.34 61.71)" /></g><ellipse cx="81.95" cy="69.17" fill="#F9F9F9" rx="16.26" ry="5.53" transform="rotate(13 81.95 69.17)" /><circle cx="91.77" cy="35.41" r="1.95" fill="#C6C6C6" transform="rotate(13 91.77 35.41)" /><g filter="url(#ufo_e)"><circle cx="114.59" cy="63.69" r="2.6" fill="#F9FBFF" transform="rotate(13 114.59 63.69)" /></g><g filter="url(#ufo_f)"><circle cx="76.81" cy="50.96" r="2.6" fill="#F9FBFF" transform="rotate(13 76.81 50.96)" /></g><g filter="url(#ufo_g)"><circle cx="96.45" cy="55.5" r="2.6" fill="#F9FBFF" transform="rotate(13 96.45 55.5)" /></g><g filter="url(#ufo_h)"><circle cx="56.92" cy="50.37" r="2.6" fill="#F9FBFF" transform="rotate(13 56.92 50.37)" /></g><g filter="url(#ufo_i)"><path fill="url(#ufo_j)" fill-rule="evenodd" d="m97.7 73.13.1-.3c.68-2.98-5.86-7.03-14.6-9.05-8.75-2.02-16.4-1.25-17.09 1.73-.02.1-.04.21-.04.32h-.03l-30.18 53.2 58.88 13.53 2.98-59.42h-.03Z" clip-rule="evenodd" /></g><defs><filter id="ufo_c" width="80.46" height="34.21" x="44.28" y="44.73" color-interpolation-filters="sRGB" filterUnits="userSpaceOnUse"><feFlood flood-opacity="0" result="BackgroundImageFix"></feFlood><feBlend in="SourceGraphic" in2="BackgroundImageFix" result="shape"></feBlend><feColorMatrix in="SourceAlpha" result="hardAlpha" values="0 0 0 0 0 0 0 0 0 0 0 0 0 0 0 0 0 0 127 0"></feColorMatrix><feOffset dx=".5" dy=".25"></feOffset><feGaussianBlur stdDeviation=".17"></feGaussianBlur><feComposite in2="hardAlpha" k2="-1" k3="1" operator="arithmetic"></feComposite><feColorMatrix values="0 0 0 0 1 0 0 0 0 1 0 0 0 0 1 0 0 0 1 0"></feColorMatrix><feBlend in2="shape" result="effect1_innerShadow_212_445"></feBlend></filter><filter id="ufo_e" width="5.45" height="5.45" x="111.73" y="60.84" color-interpolation-filters="sRGB" filterUnits="userSpaceOnUse"><feFlood flood-opacity="0" result="BackgroundImageFix"></feFlood><feColorMatrix in="SourceAlpha" result="hardAlpha" values="0 0 0 0 0 0 0 0 0 0 0 0 0 0 0 0 0 0 127 0"></feColorMatrix><feOffset dx="-.25" dy="-.25"></feOffset><feComposite in2="hardAlpha" operator="out"></feComposite><feColorMatrix values="0 0 0 0 0.807775 0 0 0 0 0.807775 0 0 0 0 0.807775 0 0 0 1 0"></feColorMatrix><feBlend in2="BackgroundImageFix" result="effect1_dropShadow_212_445"></feBlend><feBlend in="SourceGraphic" in2="effect1_dropShadow_212_445" result="shape"></feBlend></filter><filter id="ufo_f" width="5.45" height="5.45" x="73.96" y="48.11" color-interpolation-filters="sRGB" filterUnits="userSpaceOnUse"><feFlood flood-opacity="0" result="BackgroundImageFix"></feFlood><feColorMatrix in="SourceAlpha" result="hardAlpha" values="0 0 0 0 0 0 0 0 0 0 0 0 0 0 0 0 0 0 127 0"></feColorMatrix><feOffset dx="-.25" dy="-.25"></feOffset><feComposite in2="hardAlpha" operator="out"></feComposite><feColorMatrix values="0 0 0 0 0.807775 0 0 0 0 0.807775 0 0 0 0 0.807775 0 0 0 1 0"></feColorMatrix><feBlend in2="BackgroundImageFix" result="effect1_dropShadow_212_445"></feBlend><feBlend in="SourceGraphic" in2="effect1_dropShadow_212_445" result="shape"></feBlend></filter><filter id="ufo_g" width="5.45" height="5.45" x="93.6" y="52.64" color-interpolation-filters="sRGB" filterUnits="userSpaceOnUse"><feFlood flood-opacity="0" result="BackgroundImageFix"></feFlood><feColorMatrix in="SourceAlpha" result="hardAlpha" values="0 0 0 0 0 0 0 0 0 0 0 0 0 0 0 0 0 0 127 0"></feColorMatrix><feOffset dx="-.25" dy="-.25"></feOffset><feComposite in2="hardAlpha" operator="out"></feComposite><feColorMatrix values="0 0 0 0 0.807775 0 0 0 0 0.807775 0 0 0 0 0.807775 0 0 0 1 0"></feColorMatrix><feBlend in2="BackgroundImageFix" result="effect1_dropShadow_212_445"></feBlend><feBlend in="SourceGraphic" in2="effect1_dropShadow_212_445" result="shape"></feBlend></filter><filter id="ufo_h" width="5.45" height="5.45" x="54.07" y="47.52" color-interpolation-filters="sRGB" filterUnits="userSpaceOnUse"><feFlood flood-opacity="0" result="BackgroundImageFix"></feFlood><feColorMatrix in="SourceAlpha" result="hardAlpha" values="0 0 0 0 0 0 0 0 0 0 0 0 0 0 0 0 0 0 127 0"></feColorMatrix><feOffset dx="-.25" dy="-.25"></feOffset><feComposite in2="hardAlpha" operator="out"></feComposite><feColorMatrix values="0 0 0 0 0.807775 0 0 0 0 0.807775 0 0 0 0 0.807775 0 0 0 1 0"></feColorMatrix><feBlend in2="BackgroundImageFix" result="effect1_dropShadow_212_445"></feBlend><feBlend in="SourceGraphic" in2="effect1_dropShadow_212_445" result="shape"></feBlend></filter><filter id="ufo_i" width="63.98" height="71.91" x="34.86" y="61.66" color-interpolation-filters="sRGB" filterUnits="userSpaceOnUse"><feFlood flood-opacity="0" result="BackgroundImageFix"></feFlood><feGaussianBlur in="BackgroundImageFix" stdDeviation=".5"></feGaussianBlur><feComposite in2="SourceAlpha" operator="in" result="effect1_backgroundBlur_212_445"></feComposite><feBlend in="SourceGraphic" in2="effect1_backgroundBlur_212_445" result="shape"></feBlend></filter></defs></symbol><linearGradient id="ufo_a" x1="87.07" x2="87.07" y1="40.27" y2="62.38" gradientUnits="userSpaceOnUse"><stop stop-color="#ECEEF1" /><stop offset=".93" stop-color="#D8D8D8" /></linearGradient><linearGradient id="ufo_b" x1="84.63" x2="84.63" y1="45.81" y2="75.07" gradientUnits="userSpaceOnUse"><stop stop-color="#D8D8D8" /><stop offset="1" stop-color="#ECEEF1" /></linearGradient><linearGradient id="ufo_d" x1="84.34" x2="84.34" y1="47.08" y2="76.34" gradientUnits="userSpaceOnUse"><stop stop-color="#ECEEF1" /><stop offset=".93" stop-color="#D8D8D8" /></linearGradient><linearGradient id="ufo_j" x1="79.8" x2="65.65" y1="63" y2="126.54" gradientUnits="userSpaceOnUse"><stop stop-color="#fff" stop-opacity=".85" /><stop offset="1" stop-color="#fff" stop-opacity="0" /></linearGradient></defs><use id="disconnect-usage" xlink:href="#disconnect" class="sprite-symbol-usage" /><use id="empty-pack-usage" xlink:href="#empty-pack" class="sprite-symbol-usage" /><use id="empty-page-usage" xlink:href="#empty-page" class="sprite-symbol-usage" /><use id="no-media-usage" xlink:href="#no-media" class="sprite-symbol-usage" /><use id="no-plugins-usage" xlink:href="#no-plugins" class="sprite-symbol-usage" /><use id="not-found-usage" xlink:href="#not-found" class="sprite-symbol-usage" /><use id="success-usage" xlink:href="#success" class="sprite-symbol-usage" /><use id="ufo-usage" xlink:href="#ufo" class="sprite-symbol-usage" /></svg>