<svg xmlns="http://www.w3.org/2000/svg" width="512" height="512" viewBox="0 0 512 512"><mask id="a"><circle cx="256" cy="256" r="256" fill="#fff"/></mask><g mask="url(#a)"><path fill="#0052b4" d="M0 0h145l36 255-36 257H0z"/><path fill="#d80027" d="M367 0h145v512H367l-29-257z"/><path fill="#ffda44" d="M145 0h222v512H145z"/><path fill="#d80027" d="M256 355v-99h67v47zm-67-166h67v67h-67z"/><path fill="#ff9811" d="M289 167a22 22 0 0 0-33-19 22 22 0 0 0-11-3c-12 0-22 10-22 22h-56v111c0 42 33 66 59 78a22 22 0 0 0-3 11 22 22 0 0 0 33 20 22 22 0 0 0 11 3 22 22 0 0 0 19-34c26-12 59-36 59-78V167zm23 111c0 6 0 24-28 41a137 137 0 0 1-28 13c-7-2-18-6-28-13-28-17-28-35-28-41v-78h112z"/></g></svg>