<svg xmlns="http://www.w3.org/2000/svg" width="160" height="160" fill="none">
    <path fill="#8E8E8E" fill-opacity=".07" d="M160 80A80 80 0 1 0 0 80a80 80 0 0 0 160 0Z"/>
    <path stroke="#ABAAAA" stroke-linecap="round" stroke-linejoin="round" stroke-width="4" d="M63.33 57.78V45.44c0-6.69 5.97-12.1 13.34-12.1 7.36 0 13.33 5.41 13.33 12.1v12.34"/>
    <path stroke="url(#a)" stroke-linecap="round" stroke-linejoin="round" stroke-width="4" d="M63.33 57.78V45.44c0-6.69 5.97-12.1 13.34-12.1 7.36 0 13.33 5.41 13.33 12.1v12.34"/>
    <g filter="url(#b)">
        <path fill="#8F8F8F" d="M52.04 114.84h49.6v4.8h-49.6z"/>
    </g>
    <path fill="url(#c)" d="M54.44 44.44h45.75l.92 18.9H53.33l1.11-18.9Z"/>
    <path fill="#C6C6C6" fill-rule="evenodd" d="m100 44.44 1.11 18.9H110l-4.44-6.12L100 44.44ZM54.44 44.44l-1.1 18.9h-8.9l4.45-6.12 5.55-12.78Z" clip-rule="evenodd"/>
    <path fill="url(#d)" d="M44.44 63.33H110V115a5 5 0 0 1-5 5H49.44a5 5 0 0 1-5-5V63.33Z"/>
    <path fill="url(#e)" fill-rule="evenodd" d="M64.04 88.04c0-.28.15-.54.4-.67a6.21 6.21 0 0 1 2.64-.75 5.9 5.9 0 0 1 2.59.75c.24.13.37.39.37.66 0 .64-.74 1.07-1.34.85a4.93 4.93 0 0 0-1.64-.32c-.59 0-1.18.15-1.68.33-.6.22-1.34-.2-1.34-.85Z" clip-rule="evenodd" opacity=".5"/>
    <path fill="url(#f)" fill-rule="evenodd" d="M84.44 88.04c0-.28.15-.54.4-.67a6.21 6.21 0 0 1 2.64-.75 5.9 5.9 0 0 1 2.59.75c.24.13.37.39.37.66 0 .64-.74 1.07-1.34.85a4.93 4.93 0 0 0-1.64-.32c-.59 0-1.18.15-1.68.33-.6.22-1.34-.2-1.34-.85Z" clip-rule="evenodd" opacity=".5"/>
    <ellipse cx="77.24" cy="96.22" fill="url(#g)" opacity=".5" rx="6.4" ry="2.8"/>
    <path stroke="url(#h)" stroke-linecap="round" stroke-linejoin="round" stroke-width="4" d="M62.22 70V55.42c0-7.9 6.47-14.3 14.45-14.3 7.97 0 14.44 6.4 14.44 14.3V70"/>
    <circle cx="108.89" cy="110" r="7.78" fill="url(#i)"/>
    <path fill="#fff" d="M106.34 113.22v-.84c0-.48.08-.89.24-1.2.16-.33.39-.6.69-.8a4 4 0 0 1 1.12-.53l.67-.2c.25-.09.45-.18.62-.3a1.21 1.21 0 0 0 .52-1v-.04c0-.33-.11-.6-.34-.79-.23-.2-.54-.3-.93-.3s-.7.1-.94.32c-.23.2-.35.5-.35.9v.18h-1.28v-.16c0-.5.11-.93.34-1.29.23-.35.53-.62.92-.8.4-.2.83-.29 1.31-.29.48 0 .91.1 1.3.28.39.18.69.44.91.77.23.33.34.72.34 1.16v.1c0 .45-.1.83-.28 1.14-.18.3-.43.56-.74.76-.31.2-.67.36-1.07.48l-.64.2c-.29.09-.51.19-.67.3a.93.93 0 0 0-.34.33.98.98 0 0 0-.09.44v.04h3.77v1.14h-5.08Z"/>
    <defs>
        <linearGradient id="a" x1="76.67" x2="76.67" y1="33.33" y2="57.78" gradientUnits="userSpaceOnUse">
            <stop stop-color="#B9BBBE"/>
            <stop offset=".93" stop-color="#8F8F8F"/>
        </linearGradient>
        <linearGradient id="c" x1="77.22" x2="77.22" y1="44.44" y2="63.33" gradientUnits="userSpaceOnUse">
            <stop stop-color="#ECEEF1"/>
            <stop offset=".93" stop-color="#D8D8D8"/>
        </linearGradient>
        <linearGradient id="d" x1="77.22" x2="77.22" y1="63.33" y2="120" gradientUnits="userSpaceOnUse">
            <stop stop-color="#F9F9F9"/>
            <stop offset="1" stop-color="#fff"/>
        </linearGradient>
        <linearGradient id="e" x1="67.04" x2="67.04" y1="86.62" y2="89.3" gradientUnits="userSpaceOnUse">
            <stop stop-color="#B9BBBE"/>
            <stop offset=".93" stop-color="#8F8F8F"/>
        </linearGradient>
        <linearGradient id="f" x1="87.44" x2="87.44" y1="86.62" y2="89.3" gradientUnits="userSpaceOnUse">
            <stop stop-color="#B9BBBE"/>
            <stop offset=".93" stop-color="#8F8F8F"/>
        </linearGradient>
        <linearGradient id="g" x1="77.24" x2="77.24" y1="93.42" y2="99.02" gradientUnits="userSpaceOnUse">
            <stop stop-color="#B9BBBE"/>
            <stop offset=".93" stop-color="#8F8F8F"/>
        </linearGradient>
        <linearGradient id="h" x1="76.67" x2="76.67" y1="41.11" y2="70" gradientUnits="userSpaceOnUse">
            <stop stop-color="#B9BBBE"/>
            <stop offset=".93" stop-color="#8F8F8F"/>
        </linearGradient>
        <linearGradient id="i" x1="101.11" x2="119.13" y1="113.89" y2="111.02" gradientUnits="userSpaceOnUse">
            <stop stop-color="#008BCA"/>
            <stop offset="1" stop-color="#00A3FF"/>
        </linearGradient>
        <filter id="b" width="97.97" height="53.17" x="27.86" y="90.66" color-interpolation-filters="sRGB" filterUnits="userSpaceOnUse">
            <feFlood flood-opacity="0" result="BackgroundImageFix"/>
            <feBlend in="SourceGraphic" in2="BackgroundImageFix" result="shape"/>
            <feGaussianBlur result="effect1_foregroundBlur_212_408" stdDeviation="12.09"/>
        </filter>
    </defs>
</svg>