<svg xmlns="http://www.w3.org/2000/svg" width="160" height="160" fill="none">
    <path fill="#8E8E8E" fill-opacity=".07" d="M160 80A79.99 79.99 0 1 0 .02 80 79.99 79.99 0 0 0 160 80Z"/>
    <g filter="url(#a)">
        <rect width="46.9" height="40.87" x="58.04" y="56.13" fill="url(#b)" rx="3"/>
    </g>
    <rect width="37.52" height="4.02" x="62.74" y="60.15" fill="#fff" rx="1"/>
    <g filter="url(#c)">
        <path fill="#C6C6C6" d="M55.95 50.96a5.34 5.34 0 0 1 4.3-6.2l37.4-6.8a5.34 5.34 0 0 1 6.2 4.3l1.17 6.38-47.9 8.7-1.17-6.38Z"/>
    </g>
    <path fill="#fff" d="m60.09 45.69-.76.13c-1.3.24-2.3 1.2-2.63 2.4l5.95 7.22 4.77-.87-7.33-8.88ZM76.56 52.9l-4.76.87-7.33-8.88 4.76-.87 7.33 8.89ZM85.7 51.24l-4.76.87-7.33-8.88 4.77-.87 7.33 8.88ZM94.85 49.58l-4.76.87-7.33-8.88 4.76-.87 7.33 8.88ZM103.97 47.89l.01.03-4.75.87-7.33-8.89 4.77-.86 7.3 8.85Z"/>
    <g filter="url(#d)">
        <path fill="url(#e)" d="M115.7 118.45a5 5 0 0 1-6.4 2.98l-30.44-11.07a5 5 0 0 1-2.99-6.41l14.44-39.67c.52-1.44 2.24-2.15 3.84-1.57l26.83 9.77a5 5 0 0 1 2.71 2.37l3.63 6.9a5 5 0 0 1 .28 4.03l-11.9 32.67Z"/>
    </g>
    <path fill="#F5F5F5" d="m89.8 105.84-6.03-2.2c-.22-.08-.27-.5-.11-.95.16-.44.47-.73.7-.65l6.02 2.2c.23.07.27.5.11.94-.18.51-.47.74-.7.66Z"/>
    <path fill="#fff" d="m110.19 78.51-15-5.46c-.36-.13-.52-.6-.36-1.04.15-.43.59-.7.94-.56l15 5.46c.35.12.51.6.36 1.03-.16.44-.6.7-.94.57ZM98.88 78.64l-5.13-1.87c-.31-.11-.45-.58-.29-1.01.16-.43.56-.7.87-.6l5.1 1.86c.3.11.43.58.28 1.01-.16.44-.56.7-.83.61ZM113.13 104.02l-17.99-6.55-1.98-.72-6-2.18c-.24-.09-.6.16-.77.63-.15.4-.1.87.19.98l6 2.18 1.98.72 17.98 6.55c.24.09.6-.16.78-.63.12-.49.05-.9-.2-.98ZM114.68 99.74 108 97.3l-2.28-.83-17-6.2c-.24-.08-.6.17-.77.64-.15.4-.1.87.19.97l17 6.2 2.28.82 6.68 2.43c.24.1.6-.15.78-.62.12-.49.05-.9-.2-.98ZM116.1 96l-1.74-.63-1.74-.63-22.54-8.2c-.24-.09-.6.16-.77.63-.15.4-.1.87.19.98l22.53 8.2 1.93.7 1.5.54c.24.1.6-.15.77-.62.2-.39.1-.88-.14-.96ZM117.61 91.71l-5.6-2.04-1.38-.5-18.99-6.91c-.24-.1-.6.16-.77.63-.15.4-.1.87.19.97l18.98 6.91 1.4.5 5.54 2.03c.33.12.65-.14.82-.61.14-.4.1-.88-.19-.98Z"/>
    <path fill="#C6C6C6" d="m122.68 73.45-.7 1.9a6 6 0 0 0 3.6 7.7l2.66.97"/>
    <g filter="url(#f)">
        <path fill="url(#g)" d="M80.45 105.82a5 5 0 0 1-2.99 6.41l-26.66 9.7a5 5 0 0 1-6.4-2.98L29.94 79.28a2.78 2.78 0 0 1 1.66-3.57l23.98-8.73a5 5 0 0 1 3.83.17l6.51 3.05a5 5 0 0 1 2.58 2.82l11.94 32.8Z"/>
    </g>
    <path fill="#C6C6C6" d="m57.66 66.59.69 1.9a6 6 0 0 0 7.69 3.59l1.88-.68"/>
    <path fill="#F6F6F6" d="m66.82 94.47-4.65-2.52a3.95 3.95 0 0 0-5.54 2.07l-2.36 5.91-.55-.3a3.84 3.84 0 0 0-5.37 2.05c-1.22 3.13 1.75 6.21 4.85 5.04l8.05-3.03 5.04-1.92c3.19-1.22 3.52-5.68.53-7.3ZM48.41 94.34c1.87-.97 2.65-3.11 1.79-4.88-.87-1.76-3.01-2.39-4.88-1.42-1.86.97-2.65 3.11-1.79 4.87.87 1.77 3.01 2.4 4.88 1.43Z"/>
    <defs>
        <filter id="a" width="90.9" height="84.87" x="36.04" y="45.13" color-interpolation-filters="sRGB" filterUnits="userSpaceOnUse">
            <feFlood flood-opacity="0" result="BackgroundImageFix"/>
            <feColorMatrix in="SourceAlpha" result="hardAlpha" values="0 0 0 0 0 0 0 0 0 0 0 0 0 0 0 0 0 0 127 0"/>
            <feOffset dy="11"/>
            <feGaussianBlur stdDeviation="11"/>
            <feColorMatrix values="0 0 0 0 0.624442 0 0 0 0 0.624442 0 0 0 0 0.624442 0 0 0 0.27 0"/>
            <feBlend in2="BackgroundImageFix" result="effect1_dropShadow_223_1174"/>
            <feBlend in="SourceGraphic" in2="effect1_dropShadow_223_1174" result="shape"/>
            <feColorMatrix in="SourceAlpha" result="hardAlpha" values="0 0 0 0 0 0 0 0 0 0 0 0 0 0 0 0 0 0 127 0"/>
            <feOffset dx=".5" dy=".25"/>
            <feGaussianBlur stdDeviation=".17"/>
            <feComposite in2="hardAlpha" k2="-1" k3="1" operator="arithmetic"/>
            <feColorMatrix values="0 0 0 0 1 0 0 0 0 1 0 0 0 0 1 0 0 0 1 0"/>
            <feBlend in2="shape" result="effect2_innerShadow_223_1174"/>
        </filter>
        <filter id="c" width="49.5" height="19.73" x="55.87" y="37.87" color-interpolation-filters="sRGB" filterUnits="userSpaceOnUse">
            <feFlood flood-opacity="0" result="BackgroundImageFix"/>
            <feBlend in="SourceGraphic" in2="BackgroundImageFix" result="shape"/>
            <feColorMatrix in="SourceAlpha" result="hardAlpha" values="0 0 0 0 0 0 0 0 0 0 0 0 0 0 0 0 0 0 127 0"/>
            <feOffset dx=".5" dy=".25"/>
            <feGaussianBlur stdDeviation=".17"/>
            <feComposite in2="hardAlpha" k2="-1" k3="1" operator="arithmetic"/>
            <feColorMatrix values="0 0 0 0 1 0 0 0 0 1 0 0 0 0 1 0 0 0 1 0"/>
            <feBlend in2="shape" result="effect1_innerShadow_223_1174"/>
        </filter>
        <filter id="d" width="96.33" height="103.23" x="53.57" y="51.51" color-interpolation-filters="sRGB" filterUnits="userSpaceOnUse">
            <feFlood flood-opacity="0" result="BackgroundImageFix"/>
            <feColorMatrix in="SourceAlpha" result="hardAlpha" values="0 0 0 0 0 0 0 0 0 0 0 0 0 0 0 0 0 0 127 0"/>
            <feOffset dy="11"/>
            <feGaussianBlur stdDeviation="11"/>
            <feColorMatrix values="0 0 0 0 0.624442 0 0 0 0 0.624442 0 0 0 0 0.624442 0 0 0 0.27 0"/>
            <feBlend in2="BackgroundImageFix" result="effect1_dropShadow_223_1174"/>
            <feBlend in="SourceGraphic" in2="effect1_dropShadow_223_1174" result="shape"/>
            <feColorMatrix in="SourceAlpha" result="hardAlpha" values="0 0 0 0 0 0 0 0 0 0 0 0 0 0 0 0 0 0 127 0"/>
            <feOffset dx=".5" dy=".25"/>
            <feGaussianBlur stdDeviation=".17"/>
            <feComposite in2="hardAlpha" k2="-1" k3="1" operator="arithmetic"/>
            <feColorMatrix values="0 0 0 0 1 0 0 0 0 1 0 0 0 0 1 0 0 0 1 0"/>
            <feBlend in2="shape" result="effect2_innerShadow_223_1174"/>
        </filter>
        <filter id="f" width="94.97" height="99.56" x="7.78" y="55.68" color-interpolation-filters="sRGB" filterUnits="userSpaceOnUse">
            <feFlood flood-opacity="0" result="BackgroundImageFix"/>
            <feColorMatrix in="SourceAlpha" result="hardAlpha" values="0 0 0 0 0 0 0 0 0 0 0 0 0 0 0 0 0 0 127 0"/>
            <feOffset dy="11"/>
            <feGaussianBlur stdDeviation="11"/>
            <feColorMatrix values="0 0 0 0 0.624442 0 0 0 0 0.624442 0 0 0 0 0.624442 0 0 0 0.27 0"/>
            <feBlend in2="BackgroundImageFix" result="effect1_dropShadow_223_1174"/>
            <feBlend in="SourceGraphic" in2="effect1_dropShadow_223_1174" result="shape"/>
            <feColorMatrix in="SourceAlpha" result="hardAlpha" values="0 0 0 0 0 0 0 0 0 0 0 0 0 0 0 0 0 0 127 0"/>
            <feOffset dx=".5" dy=".25"/>
            <feGaussianBlur stdDeviation=".17"/>
            <feComposite in2="hardAlpha" k2="-1" k3="1" operator="arithmetic"/>
            <feColorMatrix values="0 0 0 0 1 0 0 0 0 1 0 0 0 0 1 0 0 0 1 0"/>
            <feBlend in2="shape" result="effect2_innerShadow_223_1174"/>
        </filter>
        <linearGradient id="b" x1="81.5" x2="81.5" y1="56.13" y2="97" gradientUnits="userSpaceOnUse">
            <stop stop-color="#FDFDFD"/>
            <stop offset=".93" stop-color="#D5D5D5"/>
        </linearGradient>
        <linearGradient id="e" x1="111.18" x2="94.08" y1="68.91" y2="115.89" gradientUnits="userSpaceOnUse">
            <stop stop-color="#FDFDFD"/>
            <stop offset=".93" stop-color="#D5D5D5"/>
        </linearGradient>
        <linearGradient id="g" x1="47.03" x2="64.13" y1="70.1" y2="117.08" gradientUnits="userSpaceOnUse">
            <stop stop-color="#FDFDFD"/>
            <stop offset=".93" stop-color="#D5D5D5"/>
        </linearGradient>
    </defs>
</svg>