<svg xmlns="http://www.w3.org/2000/svg" width="160" height="163" fill="none">
    <path fill="#8E8E8E" fill-opacity=".07" d="M160 80A79.99 79.99 0 1 0 .02 80 79.99 79.99 0 0 0 160 80Z"/>
    <path fill="#C6C6C6" d="m81.5 26 4.3 1.28-2.1 18.3-2.3-.83.1-18.75ZM81.22 46.85l2.1.83-.27 1.74-2.1-.74.27-1.83ZM89.18 35.79l4.3 1.19-2.01 11.7-2.38-.82.1-12.07ZM88.9 49.87l2.11.83-.27 1.64-2.1-.73.27-1.74Z"/>
    <path fill="url(#a)" d="M111.32 116.74H55.06s3.11-1-2.28 0c-5.5 1-5.5.82-5.03-2.66.45-3.47 3.75-7.04 6.3-10.88-.27-3.66.92-7.5 5.22-11.07v-.27c-2.1-20.95 8.96-14.09 18.2-17.56l-1.19-.83 13.54-5.85s3.84 1 7.41 3.02c2.65 1.55 5.12 3.56 5.49 6.13.46 2.92 0 6.76-.64 10.33-.55 3.2-1.2 6.13-1.37 8.05 0 .37-.1.64-.1.92.64 3.01 4.85 7.5 4.3 10.42 1.47 1.56 3.3 6.22 3.57 8.23.37 2.02 2.84 2.02 2.84 2.02Z"/>
    <path stroke="#C6C6C6" stroke-linecap="round" stroke-linejoin="round" stroke-miterlimit="10" stroke-width="1.59" d="m32.25 116.83 94 .15"/>
    <path fill="url(#b)" d="M93.94 93.96c-.73.46-1.65.82-2.47 1.1-1.1.36-2.38.73-3.57.91-3.66.74-7.4.92-11.16.1a29.97 29.97 0 0 1-9.05-3.3c-1.01-.55-1.92-1.19-2.75-1.92-4.66-3.93-7.13-6.86-6.03-12.9 1.1-6.03 2.46-10.51 2.46-10.51.1-.46.83-1.1 1.1-1.47.46-.46.73-1 1.2-1.46a65.2 65.2 0 0 1 2.37-2.84 17.85 17.85 0 0 1 6.22-4.2c3.84-1.38 7.96-1.2 11.9-.64 2.92.36 5.84 1 8.4 2.46a16.36 16.36 0 0 1 5.5 5.13c1.55 2.28 2.65 4.84 3.93 7.4 0 0 .45 4.76.27 10.9 0 6.12-3.02 8.31-8.32 11.24Z"/>
    <path fill="#D7D6D6" d="M74.18 78.41c-.91.64-2.29 3.11-6.13 1.1-5.4-2.93-4.02-10.25-.64-12.26 6.04-3.56 11.53-1 11.8 4.58.28 5.94-3.1 5.4-5.03 6.58Z"/>
    <path fill="url(#c)" d="M104.64 113.35a2.1 2.1 0 0 0 .46 3.02c.55.37 1.1.73 1.37 1.65.64 1.83 6.5 6.13 9.51 5.21 3.11-.91 6.5-3.2 5.67-6.95-.73-3.75-4.02-5.58-5.67-5.67-1.65-.18-7.4-.83-9.33.64-.73.64-1.46 1.46-2.01 2.1Z"/>
    <path fill="url(#d)" d="M56.53 113.35a2.1 2.1 0 0 1-.46 3.02c-.55.37-1.1.73-1.37 1.65-.64 1.83-6.5 6.13-9.52 5.21-3.01-.91-6.49-3.2-5.67-6.95.74-3.75 4.03-5.58 5.68-5.67 1.64-.1 7.4-.83 9.32.64.83.64 1.56 1.46 2.02 2.1Z"/>
    <path fill="#fff" d="M71.07 77.22a4.32 4.32 0 1 0 .92-8.6 4.32 4.32 0 1 0-.92 8.6Z"/>
    <path fill="#C6C6C6" d="M75.28 73.84a3.37 3.37 0 0 1-3.66 3.02 3.37 3.37 0 0 1-3.02-3.66c.28.27.64.55 1 .64.83.09 1.56-.46 1.65-1.37.1-.83-.45-1.56-1.28-1.65a3.3 3.3 0 0 1 2.29-.55c1.92.1 3.2 1.65 3.02 3.57Z"/>
    <path fill="#fff" d="M91.93 79.42a4.32 4.32 0 1 0 .91-8.6 4.32 4.32 0 0 0-4.76 3.84 4.22 4.22 0 0 0 3.85 4.76Z"/>
    <path fill="#C6C6C6" d="M88.45 75.21a3.37 3.37 0 0 0 3.02 3.66 3.37 3.37 0 0 0 3.66-3.02c-.28.27-.73.46-1.1.37a1.53 1.53 0 0 1-1.37-1.65c.09-.82.82-1.37 1.64-1.37a3.45 3.45 0 0 0-5.85 2.01ZM73.72 62.68c-1.55.27-2.92.55-4.02 1.28a7.52 7.52 0 0 0-2.75 3.3c0 .08-.09.08-.18.08s-.09-.09-.09-.09c.1-.73.46-1.55.91-2.2.37-.72 1.01-1.27 1.74-1.73a9.86 9.86 0 0 1 2.2-1.1c.82-.09 1.64-.18 2.38.18-.1 0 .09.19-.19.28.1 0 .1 0 0 0ZM92.47 65.97a11.3 11.3 0 0 1 3.57 2.01 7.45 7.45 0 0 1 1.92 3.66c0 .1.1.1.19.1s.09-.1.09-.1c.09-.73-.19-1.55-.37-2.2a4.74 4.74 0 0 0-1.28-2c-.55-.55-1.1-1.1-1.83-1.47a5.01 5.01 0 0 0-2.29-.36c-.09.09-.09.18 0 .36-.18 0 0 0 0 0ZM100.61 61.95c-1.64-2.2-4.02-1.56-3.1 1 1.46 4.03 4.2 5.95 4.93 20.95.19 2.65 9.06-3.02 9.06-12.44 0-1.74-2.1-2.38-2.1-2.38-1.28-.36-6.13-3.75-8.79-7.13Z"/>
    <path fill="#EEE" d="M25.24 69.08s-9.7-2.83-8.14.37c1.56 3.2 5.86 9.6 12.72 11.16 6.86 1.46 2.74-4.58 2.83-4.49l-7.4-7.04Z"/>
    <g filter="url(#e)">
        <path fill="url(#f)" d="M15 62.86c2.47 2.75 12.8 6.77 21.22 6.4 1.19 8.79 2.1 11.44 3.66 12.54-4.2 1.1-15.55.18-17.1-8.33-7.96.37-7.78-10.6-7.78-10.6Z"/>
    </g>
    <g filter="url(#g)">
        <path fill="url(#h)" d="M124.3 95.33c2.75-1.83 7.69-10.33 8.42-17.65 7.78 0 10.15-.37 11.43-1.65.37 3.85-.36 13.27-6.95 18.85-7.31.73-12.9.45-12.9.45Z"/>
    </g>
    <g filter="url(#i)">
        <path fill="url(#j)" d="M103.72 125.24c-12.7 2.1-15 2.47-19.84 1.83-4.85-.64-11.62-1.46-13.9 2.93-1.01-5.76-3.3-11.07-7.5-15.1.27-.36.45-.9.45-1.46 0-1.1-.64-2-1.65-2.37.19-.37.28-.74.28-1.1a2.56 2.56 0 0 0-4.58-1.56c.1-.45.19-.82.19-1 0-1.38-1.1-2.56-2.56-2.56-.74 0-1.47.36-1.92.91a1.92 1.92 0 0 0-1.65-.91c-1.1 0-1.92.82-1.92 1.92v1.19c-6.5-2.1-7.87-2.2-7.87-2.2C45.18 98 63.85 86.64 77.3 88.75c8.6 1.28 18.3 3.66 23.23 13.08-.27-.1-.55-.19-.82-.19-.1 0-.27 0-.46.1-.45-.64-1.19-1.01-2-1.01-1.29 0-2.3.91-2.48 2.1h-.73a2.46 2.46 0 0 0-.92 4.76 2.46 2.46 0 0 0 1.74 4.2c.92 0 1.65-.45 2.1-1.09.46.64 1.2 1.1 2.11 1.1 1.37 0 2.47-1.1 2.47-2.47v-.19a2.4 2.4 0 0 0 1.37-1.46c1.2 4.57 1.65 10.34.82 17.56Z"/>
    </g>
    <path fill="#fff" d="M71.8 118.57c3.57-1.1 18.75-4.49 27.44-3.48Z"/>
    <path fill="#D7D6D6" fill-rule="evenodd" d="M83.7 116.63c-5.31.85-9.97 1.97-11.72 2.5l-.35-1.13c1.82-.56 6.53-1.69 11.88-2.55 5.33-.86 11.37-1.46 15.8-.95l-.14 1.18c-4.25-.5-10.15.1-15.47.95Z" clip-rule="evenodd"/>
    <path fill="#fff" d="M68.24 113.72c2.92-1.28 17-4.2 24.14-4.48Z"/>
    <path fill="#D7D6D6" fill-rule="evenodd" d="M72.38 113.1c-1.84.45-3.23.87-3.9 1.16l-.48-1.09c.78-.34 2.26-.77 4.1-1.23 1.85-.46 4.12-.96 6.52-1.42 4.78-.93 10.13-1.74 13.74-1.88l.05 1.2c-3.52.13-8.8.92-13.57 1.84-2.38.47-4.63.96-6.46 1.41Z" clip-rule="evenodd"/>
    <path fill="#fff" d="M64.85 108.32c11.62-6.5 20.76-3.75 28.26-9.51Z"/>
    <path fill="#D7D6D6" fill-rule="evenodd" d="M80.63 103.88c-4.67.84-9.78 1.77-15.49 4.96l-.58-1.04c5.9-3.29 11.16-4.24 15.83-5.09h.03c4.7-.85 8.71-1.6 12.33-4.37l.73.94c-3.87 2.97-8.16 3.75-12.8 4.59h-.05Z" clip-rule="evenodd"/>
    <path fill="#fff" d="M61.1 104.2c4.94-3.38 9.15-4.93 14.82-5.4Z"/>
    <path fill="#D7D6D6" fill-rule="evenodd" d="M75.97 99.4c-5.56.45-9.67 1.97-14.53 5.3l-.68-.98c5.02-3.44 9.33-5.04 15.11-5.5l.1 1.18Z" clip-rule="evenodd"/>
    <path fill="#A5A5A5" d="M91.74 90.85V91.31c0 .09 0 .18-.09.27-.55 1.47-2.93 3.2-5.4 3.48-2.47.27-5.03-.73-6.12-4.85-2.66 2.56-5.22 2.93-7.32 2.38-2.75-.73-4.58-2.93-4.67-3.57 0-.27 0-.55.1-.82.64-5.95 6.4-10.15 12.9-9.42 6.49.82 11.24 6.22 10.6 12.07Z"/>
    <path fill="#C6C6C6" d="M81.13 79.7c-.55-.1-1.19-.1-1.74 0-.73.18-1.83.36-2 1.27-.1 1.2 2.46 2.56 3.2 2.66.73.09 3.56-.64 3.74-1.83.1-1.2-.91-1.65-1.83-1.92-.45-.1-1-.28-1.37-.19Z"/>
    <path fill="#C6C6C6" fill-rule="evenodd" d="M80.38 85.82a30.3 30.3 0 0 0-.32-3.3l.74-.11c.13.82.28 2.13.32 3.38.02.63.02 1.25-.03 1.8a4.1 4.1 0 0 1-.32 1.4l-.67-.33c.11-.24.2-.63.25-1.14.04-.5.05-1.1.03-1.7Z" clip-rule="evenodd"/>
    <path fill="#A5A5A5" d="m65.86 61.49-.1 1c-.45.46-.82 1.01-1.28 1.56a26.49 26.49 0 0 0-5.2 12.72c-.2-.65-2.11-7.5-2.48-8.79-.09-.27-.18-.45-.18-.45V65.6l1.74-3.85 4.48-2.28 3.02 2.01Z"/>
    <path fill="#C6C6C6" d="M69.88 58.65c-1.28.92-2.74 2.2-4.11 3.85-.46.45-.83 1-1.29 1.55-.18-2.56-3.2-2.93-3.2-2.93-.36 2.3-2.37 4.85-4.57 6.86-1.83 1.65-3.84 2.84-5.12 2.93-.37 0-.64-.27-.46-.64.92-2.38.64-5.85.92-7.6.36-1.91 5.85-4.84 8.68-5.94 2.2-.82 7.96.37 9.15 1.92Z"/>
    <defs>
        <linearGradient id="a" x1="89.5" x2="79.44" y1="94.5" y2="117.27" gradientUnits="userSpaceOnUse">
            <stop stop-color="#CFCFCF"/>
            <stop offset=".93" stop-color="#B3B3B3"/>
        </linearGradient>
        <linearGradient id="b" x1="80.48" x2="80.48" y1="56.41" y2="96.61" gradientUnits="userSpaceOnUse">
            <stop stop-color="#FDFDFD"/>
            <stop offset=".93" stop-color="#D5D5D5"/>
        </linearGradient>
        <linearGradient id="c" x1="112.99" x2="112.99" y1="110.31" y2="123.36" gradientUnits="userSpaceOnUse">
            <stop stop-color="#FDFDFD"/>
            <stop offset=".93" stop-color="#D5D5D5"/>
        </linearGradient>
        <linearGradient id="d" x1="48.18" x2="48.18" y1="110.34" y2="123.36" gradientUnits="userSpaceOnUse">
            <stop stop-color="#FDFDFD"/>
            <stop offset=".93" stop-color="#D5D5D5"/>
        </linearGradient>
        <linearGradient id="f" x1="27.44" x2="27.44" y1="62.86" y2="82.17" gradientUnits="userSpaceOnUse">
            <stop stop-color="#F9F9F9"/>
            <stop offset="1" stop-color="#fff"/>
        </linearGradient>
        <linearGradient id="h" x1="134.27" x2="134.27" y1="76.03" y2="95.38" gradientUnits="userSpaceOnUse">
            <stop stop-color="#F9F9F9"/>
            <stop offset="1" stop-color="#fff"/>
        </linearGradient>
        <linearGradient id="j" x1="72.7" x2="72.7" y1="88.49" y2="130" gradientUnits="userSpaceOnUse">
            <stop stop-color="#F9F9F9"/>
            <stop offset="1" stop-color="#fff"/>
        </linearGradient>
        <filter id="e" width="44.88" height="39.31" x="1" y="52.86" color-interpolation-filters="sRGB" filterUnits="userSpaceOnUse">
            <feFlood flood-opacity="0" result="BackgroundImageFix"/>
            <feColorMatrix in="SourceAlpha" result="hardAlpha" values="0 0 0 0 0 0 0 0 0 0 0 0 0 0 0 0 0 0 127 0"/>
            <feOffset dx="-4"/>
            <feGaussianBlur stdDeviation="5"/>
            <feColorMatrix values="0 0 0 0 0.562537 0 0 0 0 0.562537 0 0 0 0 0.562537 0 0 0 0.15 0"/>
            <feBlend in2="BackgroundImageFix" result="effect1_dropShadow_223_1069"/>
            <feBlend in="SourceGraphic" in2="effect1_dropShadow_223_1069" result="shape"/>
        </filter>
        <filter id="g" width="39.93" height="39.35" x="110.31" y="66.03" color-interpolation-filters="sRGB" filterUnits="userSpaceOnUse">
            <feFlood flood-opacity="0" result="BackgroundImageFix"/>
            <feColorMatrix in="SourceAlpha" result="hardAlpha" values="0 0 0 0 0 0 0 0 0 0 0 0 0 0 0 0 0 0 127 0"/>
            <feOffset dx="-4"/>
            <feGaussianBlur stdDeviation="5"/>
            <feColorMatrix values="0 0 0 0 0.562537 0 0 0 0 0.562537 0 0 0 0 0.562537 0 0 0 0.15 0"/>
            <feBlend in2="BackgroundImageFix" result="effect1_dropShadow_223_1069"/>
            <feBlend in="SourceGraphic" in2="effect1_dropShadow_223_1069" result="shape"/>
        </filter>
        <filter id="i" width="106.89" height="85.51" x="19.25" y="77.49" color-interpolation-filters="sRGB" filterUnits="userSpaceOnUse">
            <feFlood flood-opacity="0" result="BackgroundImageFix"/>
            <feColorMatrix in="SourceAlpha" result="hardAlpha" values="0 0 0 0 0 0 0 0 0 0 0 0 0 0 0 0 0 0 127 0"/>
            <feOffset dy="11"/>
            <feGaussianBlur stdDeviation="11"/>
            <feColorMatrix values="0 0 0 0 0.576823 0 0 0 0 0.576823 0 0 0 0 0.576823 0 0 0 0.27 0"/>
            <feBlend in2="BackgroundImageFix" result="effect1_dropShadow_223_1069"/>
            <feBlend in="SourceGraphic" in2="effect1_dropShadow_223_1069" result="shape"/>
        </filter>
    </defs>
</svg>