<svg xmlns="http://www.w3.org/2000/svg" width="160" height="160" fill="none">
    <path fill="#8E8E8E" fill-opacity=".07" d="M160 80A79.99 79.99 0 1 0 .02 80 79.99 79.99 0 0 0 160 80Z"/>
    <g filter="url(#a)">
        <path fill="url(#b)" d="M80 88.33v20.36a5.3 5.3 0 0 1-2.6 4.42l-16.2 9c-.9.6-2.13.89-3.2.89V97.62l21.24-11.8c.45.74.76 1.62.76 2.5Z"/>
        <g filter="url(#c)">
            <path fill="url(#d)" d="M58 97.62V123a6.6 6.6 0 0 1-3.2-.89l-16.2-9a4.82 4.82 0 0 1-2.6-4.42V88.33c0-.89.3-1.77.76-2.5L58 97.62Z"/>
        </g>
        <path fill="#fff" d="M79.24 85.82 58 97.62 36.61 85.67a4.88 4.88 0 0 1 1.99-1.91l16.65-9.3a5.84 5.84 0 0 1 5.2-.15l17.1 9.6h.16c.6.58 1.22 1.17 1.53 1.91Z"/>
        <path fill="url(#e)" d="M124 88.33v20.36a5.3 5.3 0 0 1-2.6 4.42l-16.2 9c-.9.6-2.13.89-3.2.89V97.62l21.24-11.8c.45.74.76 1.62.76 2.5Z"/>
        <path fill="url(#f)" d="M102 97.62V123a6.6 6.6 0 0 1-3.2-.89l-16.2-9a4.82 4.82 0 0 1-2.6-4.42V88.33c0-.89.3-1.77.76-2.5L102 97.62Z"/>
        <path fill="#fff" d="M123.24 85.82 102 97.62 80.61 85.67a4.88 4.88 0 0 1 1.99-1.91l16.65-9.3a5.84 5.84 0 0 1 5.2-.15l17.1 9.6h.16c.6.58 1.22 1.17 1.53 1.91Z"/>
        <path fill="url(#g)" d="M102.6 50.33v20.79a5.1 5.1 0 0 1-2.8 4.59L83.17 85c-.98.55-2.1.82-3.21.82V59.78l21.94-12.15c.42.81.7 1.76.7 2.7Z"/>
        <g filter="url(#h)">
            <path fill="url(#i)" d="M79.96 59.78V85.83a6.67 6.67 0 0 1-3.22-.81l-7.26-4.05-9.5-5.26a5.64 5.64 0 0 1-2.8-4.46V50.2c0-.95.28-1.9.7-2.7l22.08 12.28Z"/>
        </g>
        <path fill="#fff" d="M101.76 47.63 79.82 59.78 57.88 47.5a4.34 4.34 0 0 1 1.95-1.9l17.05-9.57a5.7 5.7 0 0 1 5.31-.14l17.61 9.85s.14 0 .14.14c.84.54 1.4 1.08 1.82 1.75Z"/>
        <path fill="#C6C6C6" fill-rule="evenodd" d="M100.96 32c.65 0 1.18.53 1.18 1.18v7.05a1.18 1.18 0 1 1-2.35 0v-7.05c0-.65.52-1.18 1.17-1.18ZM116.7 32.34c.45.46.45 1.2 0 1.67l-8.63 8.62a1.18 1.18 0 1 1-1.66-1.66l8.62-8.63c.46-.45 1.2-.45 1.66 0ZM106.84 48.86c0-.65.53-1.18 1.18-1.18h7.84a1.18 1.18 0 1 1 0 2.35h-7.84c-.65 0-1.18-.52-1.18-1.17Z" clip-rule="evenodd"/>
        <path fill="#C6C6C6" d="M91.26 86.16c-.24 1.02-.6 2.1-1.02 3a11.77 11.77 0 0 1-5.17 5.09 11.75 11.75 0 1 1-2.94-21.98c2.28.47 4.26 1.61 5.95 3.17a11.68 11.68 0 0 1 3.18 10.72Z"/>
        <path fill="#fff" d="M83.45 82.75h-2.68v-2.68a1 1 0 0 0-1-1.01 1 1 0 0 0-1.02 1v2.69h-2.68a1 1 0 0 0-1.01 1.01c0 .6.41 1.01 1.01 1.01h2.68v2.68a1 1 0 0 0 1.01 1.02 1 1 0 0 0 1.01-1.02v-2.68h2.68a1 1 0 0 0 1.02-1 1 1 0 0 0-1.02-1.02Z"/>
    </g>
    <defs>
        <linearGradient id="b" x1="80" x2="58" y1="104.41" y2="104.41" gradientUnits="userSpaceOnUse">
            <stop stop-color="#FDFDFD"/>
            <stop offset=".93" stop-color="#E6E6E6"/>
        </linearGradient>
        <linearGradient id="d" x1="47" x2="47" y1="85.82" y2="123" gradientUnits="userSpaceOnUse">
            <stop stop-color="#FDFDFD"/>
            <stop offset=".93" stop-color="#D5D5D5"/>
        </linearGradient>
        <linearGradient id="e" x1="124" x2="102" y1="104.41" y2="104.41" gradientUnits="userSpaceOnUse">
            <stop stop-color="#FDFDFD"/>
            <stop offset=".93" stop-color="#E6E6E6"/>
        </linearGradient>
        <linearGradient id="f" x1="91" x2="91" y1="85.82" y2="123" gradientUnits="userSpaceOnUse">
            <stop stop-color="#FDFDFD"/>
            <stop offset=".93" stop-color="#D5D5D5"/>
        </linearGradient>
        <linearGradient id="g" x1="102.6" x2="79.96" y1="66.73" y2="66.73" gradientUnits="userSpaceOnUse">
            <stop stop-color="#FDFDFD"/>
            <stop offset=".93" stop-color="#E6E6E6"/>
        </linearGradient>
        <linearGradient id="i" x1="68.57" x2="68.57" y1="47.5" y2="85.83" gradientUnits="userSpaceOnUse">
            <stop stop-color="#FDFDFD"/>
            <stop offset=".93" stop-color="#D5D5D5"/>
        </linearGradient>
        <filter id="a" width="132" height="135" x="14" y="21" color-interpolation-filters="sRGB" filterUnits="userSpaceOnUse">
            <feFlood flood-opacity="0" result="BackgroundImageFix"/>
            <feColorMatrix in="SourceAlpha" result="hardAlpha" values="0 0 0 0 0 0 0 0 0 0 0 0 0 0 0 0 0 0 127 0"/>
            <feOffset dy="11"/>
            <feGaussianBlur stdDeviation="11"/>
            <feColorMatrix values="0 0 0 0 0.624442 0 0 0 0 0.624442 0 0 0 0 0.624442 0 0 0 0.27 0"/>
            <feBlend in2="BackgroundImageFix" result="effect1_dropShadow_227_379"/>
            <feBlend in="SourceGraphic" in2="effect1_dropShadow_227_379" result="shape"/>
        </filter>
        <filter id="c" width="22.5" height="37.68" x="36" y="85.82" color-interpolation-filters="sRGB" filterUnits="userSpaceOnUse">
            <feFlood flood-opacity="0" result="BackgroundImageFix"/>
            <feBlend in="SourceGraphic" in2="BackgroundImageFix" result="shape"/>
            <feColorMatrix in="SourceAlpha" result="hardAlpha" values="0 0 0 0 0 0 0 0 0 0 0 0 0 0 0 0 0 0 127 0"/>
            <feOffset dx=".5" dy=".5"/>
            <feGaussianBlur stdDeviation=".5"/>
            <feComposite in2="hardAlpha" k2="-1" k3="1" operator="arithmetic"/>
            <feColorMatrix values="0 0 0 0 1 0 0 0 0 1 0 0 0 0 1 0 0 0 1 0"/>
            <feBlend in2="shape" result="effect1_innerShadow_227_379"/>
        </filter>
        <filter id="h" width="23.28" height="38.83" x="57.18" y="47.5" color-interpolation-filters="sRGB" filterUnits="userSpaceOnUse">
            <feFlood flood-opacity="0" result="BackgroundImageFix"/>
            <feBlend in="SourceGraphic" in2="BackgroundImageFix" result="shape"/>
            <feColorMatrix in="SourceAlpha" result="hardAlpha" values="0 0 0 0 0 0 0 0 0 0 0 0 0 0 0 0 0 0 127 0"/>
            <feOffset dx=".5" dy=".5"/>
            <feGaussianBlur stdDeviation=".5"/>
            <feComposite in2="hardAlpha" k2="-1" k3="1" operator="arithmetic"/>
            <feColorMatrix values="0 0 0 0 1 0 0 0 0 1 0 0 0 0 1 0 0 0 1 0"/>
            <feBlend in2="shape" result="effect1_innerShadow_227_379"/>
        </filter>
    </defs>
</svg>