<svg xmlns="http://www.w3.org/2000/svg" width="160" height="163" fill="none">
    <path fill="#8E8E8E" fill-opacity=".07" d="M160 80A80.002 80.002 0 0 0 80 0a80 80 0 1 0 80 80Z"/>
    <path fill="#999" d="M118 114.5c0 1.933-15.5 3.5-39 3.5-23 0-39-1.567-39-3.5s17.46-3.5 39-3.5c21.539 0 39 1.567 39 3.5Z"/>
    <path fill="#C6C6C6" d="m81.498 26 4.299 1.28-2.104 18.294-2.287-.823L81.498 26ZM81.224 46.855l2.103.823-.274 1.738-2.104-.732.275-1.83ZM89.182 35.787l4.299 1.19-2.013 11.707-2.378-.823.092-12.074ZM88.907 49.873l2.104.824-.274 1.646-2.104-.732.274-1.738Z"/>
    <path fill="url(#a)" d="M107 117c-22.731 1.593-34.964 1.532-56 0 0-3 2-5.5 3-7-.274-3.659.972-14.038 5.271-17.605v-.274C57.167 71.174 77.5 74.5 77.5 74.5l25.219 2.528s0 6.769-.641 10.336c-.548 3.201-1.28 7.043-1.463 8.964C102.677 99.542 107 105.5 107 117Z"/>
    <path fill="url(#b)" d="M93.938 93.961c-.732.458-1.647.823-2.47 1.098-1.097.366-2.378.732-3.567.915-3.659.731-7.41.914-11.16.091-3.11-.64-6.22-1.646-9.055-3.293a14.725 14.725 0 0 1-2.744-1.92c-4.665-3.934-7.134-6.86-6.037-12.898 1.098-6.037 2.47-10.519 2.47-10.519.091-.457.823-1.097 1.097-1.463.458-.457.732-1.006 1.19-1.464a65.197 65.197 0 0 1 2.378-2.835c1.83-1.83 3.841-3.293 6.22-4.208 3.841-1.372 7.957-1.189 11.89-.64 2.928.366 5.855 1.006 8.416 2.47 2.287 1.28 4.024 3.018 5.488 5.122 1.555 2.287 2.653 4.848 3.933 7.409 0 0 .457 4.756.274 10.885 0 6.128-3.018 8.323-8.323 11.25Z"/>
    <path fill="#D7D6D6" d="M74.18 78.412c-.914.64-2.286 3.11-6.128 1.097-5.396-2.927-4.024-10.244-.64-12.257 6.037-3.567 11.525-1.006 11.8 4.574.274 5.945-3.11 5.397-5.031 6.586Z"/>
    <path fill="#fff" d="M71.07 77.222c2.379.275 4.483-1.463 4.757-3.841s-1.463-4.482-3.842-4.757c-2.378-.274-4.482 1.464-4.756 3.842-.275 2.378 1.463 4.482 3.842 4.757Z"/>
    <path fill="#C6C6C6" d="M75.278 73.838c-.183 1.83-1.83 3.202-3.658 3.019-1.83-.183-3.202-1.83-3.019-3.66.275.275.64.55 1.006.641.823.092 1.555-.457 1.647-1.372.091-.823-.458-1.555-1.28-1.646.64-.458 1.463-.64 2.286-.55 1.92.092 3.201 1.647 3.018 3.568Z"/>
    <path fill="#fff" d="M91.925 79.418c2.379.274 4.482-1.464 4.757-3.842.274-2.378-1.464-4.482-3.842-4.756-2.378-.275-4.482 1.463-4.756 3.841-.275 2.47 1.463 4.574 3.841 4.757Z"/>
    <path fill="#C6C6C6" d="M88.45 75.21c-.183 1.83 1.189 3.476 3.018 3.659 1.83.183 3.476-1.19 3.659-3.019-.274.275-.732.458-1.098.366-.823-.091-1.463-.823-1.372-1.646.092-.823.824-1.372 1.647-1.372a3.513 3.513 0 0 0-2.104-1.006c-1.83-.183-3.476 1.097-3.75 3.018ZM73.723 62.679c-1.555.274-2.927.549-4.025 1.28-1.097.732-2.195 1.921-2.744 3.293 0 .092-.091.092-.183.092-.091 0-.091-.092-.091-.092.091-.731.457-1.554.915-2.195.365-.732 1.006-1.28 1.737-1.738.732-.457 1.373-.823 2.196-1.097.823-.092 1.646-.183 2.378.183-.092 0 .091.182-.183.274.091 0 .091 0 0 0ZM92.475 65.972c1.372.549 2.56 1.098 3.567 2.012.915.915 1.646 2.287 1.92 3.659 0 .091.092.091.184.091.091 0 .091-.091.091-.091.092-.732-.183-1.555-.366-2.195-.274-.732-.64-1.464-1.28-2.013-.55-.548-1.098-1.097-1.83-1.463-.731-.274-1.555-.457-2.286-.366-.092.092-.092.183 0 .366 0 0-.183 0 0 0ZM100.615 61.947c-1.646-2.195-4.024-1.555-3.11 1.006 1.464 4.025 4.208 5.946 4.94 20.947.183 2.652 9.055-3.019 9.055-12.44 0-1.738-2.104-2.378-2.104-2.378-1.28-.366-6.128-3.75-8.781-7.135Z"/>
    <path fill="#EEE" d="M25.244 69.082s-9.695-2.836-8.14.366c1.555 3.201 5.854 9.604 12.714 11.159 6.86 1.463 2.744-4.574 2.835-4.482l-7.409-7.043Z"/>
    <g filter="url(#c)">
        <path fill="url(#d)" d="M15 62.862c2.47 2.744 12.806 6.769 21.221 6.403 1.19 8.78 2.104 11.433 3.659 12.53-4.208 1.099-15.55.184-17.105-8.323-7.958.366-7.775-10.61-7.775-10.61Z"/>
    </g>
    <g filter="url(#e)">
        <path fill="url(#f)" d="M124.305 95.333c2.744-1.829 7.684-10.336 8.416-17.653 7.774 0 10.153-.366 11.433-1.647.366 3.842-.366 13.263-6.951 18.843-7.318.732-12.898.457-12.898.457Z"/>
    </g>
    <g filter="url(#g)">
        <path fill="url(#h)" d="M103.725 125.244c-12.714 2.103-15.001 2.469-19.849 1.829-4.848-.64-11.616-1.464-13.903 2.927-1.006-5.763-2.973-11.908-5-13 .274-.366.457-.915.457-1.463 0-1.098-.64-2.013-1.647-2.379.183-.366.275-.731.275-1.097a2.557 2.557 0 0 0-2.561-2.561c-.824 0-1.555.365-2.013 1.006.092-.458.183-.824.183-1.006 0-1.372-1.167-2-2.167-2-2.606.154-3.5 2.5-3.5 2.5l-12.748-4.239c3.933-7.775 22.592-19.117 36.038-17.013 8.598 1.28 18.294 3.658 23.233 13.08-.274-.092-.548-.183-.823-.183-.091 0-.274 0-.457.091-.457-.64-1.19-1.006-2.012-1.006-1.28 0-2.287.915-2.47 2.104h-.732a2.459 2.459 0 0 0-2.47 2.469c0 1.007.64 1.921 1.556 2.287-.458.457-.732 1.006-.732 1.738a2.46 2.46 0 0 0 2.47 2.47c.914 0 1.646-.458 2.103-1.098.458.64 1.19 1.098 2.104 1.098a2.46 2.46 0 0 0 2.47-2.47v-.183c.64-.274 1.189-.823 1.372-1.463 1.189 4.573 1.646 10.336.823 17.562Z"/>
    </g>
    <path fill="#fff" d="M71.802 118.566c3.567-1.097 18.751-4.482 27.44-3.475l-27.44 3.475Z"/>
    <path fill="#D7D6D6" fill-rule="evenodd" d="M83.696 116.627c-5.31.854-9.97 1.97-11.719 2.508l-.35-1.137c1.818-.559 6.535-1.685 11.88-2.546 5.337-.858 11.373-1.465 15.804-.952l-.136 1.181c-4.259-.493-10.159.09-15.479.946Z" clip-rule="evenodd"/>
    <path fill="#fff" d="M68.235 113.718c2.927-1.28 17.013-4.207 24.148-4.481l-24.148 4.481Z"/>
    <path fill="#D7D6D6" fill-rule="evenodd" d="M72.383 113.094c-1.846.459-3.23.872-3.91 1.17l-.476-1.09c.783-.343 2.258-.776 4.099-1.234 1.856-.462 4.124-.959 6.522-1.424 4.787-.927 10.128-1.735 13.742-1.874l.046 1.189c-3.52.135-8.79.929-13.562 1.853-2.381.462-4.63.954-6.46 1.41Z" clip-rule="evenodd"/>
    <path fill="#fff" d="M64.85 108.322c11.617-6.494 20.764-3.75 28.264-9.513l-28.263 9.513Z"/>
    <path fill="#D7D6D6" fill-rule="evenodd" d="M80.632 103.876c-4.674.846-9.777 1.771-15.491 4.965l-.58-1.038c5.89-3.293 11.16-4.247 15.83-5.092l.03-.005c4.695-.85 8.713-1.588 12.331-4.368l.725.943c-3.868 2.971-8.157 3.747-12.794 4.586l-.05.009Z" clip-rule="evenodd"/>
    <path fill="#fff" d="M61.1 104.206c4.94-3.385 9.147-4.94 14.818-5.397L61.1 104.206Z"/>
    <path fill="#D7D6D6" fill-rule="evenodd" d="M75.966 99.402c-5.56.448-9.67 1.964-14.53 5.294l-.672-.981c5.018-3.438 9.324-5.032 15.106-5.499l.096 1.186Z" clip-rule="evenodd"/>
    <path fill="#A5A5A5" d="M91.743 90.851V91.31c0 .091 0 .183-.092.274-.549 1.464-2.927 3.201-5.397 3.476-2.47.274-5.03-.732-6.128-4.848-2.653 2.561-5.214 2.927-7.318 2.378-2.744-.731-4.573-2.927-4.664-3.567 0-.274 0-.549.091-.823.64-5.946 6.403-10.153 12.897-9.421 6.494.823 11.25 6.22 10.61 12.073Z"/>
    <path fill="#C6C6C6" d="M81.132 79.692a5.536 5.536 0 0 0-1.738 0c-.731.183-1.829.366-2.012 1.28-.091 1.19 2.47 2.562 3.201 2.653.732.092 3.568-.64 3.75-1.829.092-1.19-.914-1.647-1.829-1.92-.457-.092-1.006-.275-1.372-.184Z"/>
    <path fill="#C6C6C6" fill-rule="evenodd" d="M80.375 85.817a30.298 30.298 0 0 0-.314-3.293l.74-.114c.126.821.278 2.126.322 3.381.022.627.017 1.25-.032 1.796-.048.537-.143 1.04-.325 1.404l-.67-.334c.118-.235.204-.623.25-1.137.046-.504.05-1.093.03-1.703Z" clip-rule="evenodd"/>
    <path fill="#A5A5A5" d="m65.857 61.49-.091 1.006c-.458.457-.824 1.006-1.281 1.555-2.378 3.201-4.574 7.409-5.214 12.714-.183-.64-2.104-7.5-2.47-8.78-.09-.275-.182-.458-.182-.458v-1.921l1.738-3.842 4.482-2.286 3.018 2.012Z"/>
    <path fill="#C6C6C6" d="M69.882 58.654a22.32 22.32 0 0 0-4.117 3.842c-.457.457-.823 1.006-1.28 1.555-.183-2.561-3.202-2.927-3.202-2.927-.365 2.287-2.378 4.848-4.573 6.86-1.83 1.647-3.842 2.836-5.122 2.927-.366 0-.64-.274-.458-.64.915-2.378.64-5.854.915-7.592.366-1.92 5.854-4.848 8.69-5.946 2.195-.823 7.957.366 9.147 1.921Z"/>
    <defs>
        <linearGradient id="a" x1="89.5" x2="79.44" y1="94.5" y2="117.269" gradientUnits="userSpaceOnUse">
            <stop stop-color="#CFCFCF"/>
            <stop offset=".927" stop-color="#B3B3B3"/>
        </linearGradient>
        <linearGradient id="b" x1="80.476" x2="80.476" y1="56.414" y2="96.607" gradientUnits="userSpaceOnUse">
            <stop stop-color="#FDFDFD"/>
            <stop offset=".927" stop-color="#D5D5D5"/>
        </linearGradient>
        <linearGradient id="d" x1="27.44" x2="27.44" y1="62.862" y2="82.169" gradientUnits="userSpaceOnUse">
            <stop stop-color="#F9F9F9"/>
            <stop offset="1" stop-color="#fff"/>
        </linearGradient>
        <linearGradient id="f" x1="134.268" x2="134.268" y1="76.033" y2="95.384" gradientUnits="userSpaceOnUse">
            <stop stop-color="#F9F9F9"/>
            <stop offset="1" stop-color="#fff"/>
        </linearGradient>
        <linearGradient id="h" x1="72.697" x2="72.697" y1="88.492" y2="130" gradientUnits="userSpaceOnUse">
            <stop stop-color="#F9F9F9"/>
            <stop offset="1" stop-color="#fff"/>
        </linearGradient>
        <filter id="c" width="44.88" height="39.308" x="1" y="52.862" color-interpolation-filters="sRGB" filterUnits="userSpaceOnUse">
            <feFlood flood-opacity="0" result="BackgroundImageFix"/>
            <feColorMatrix in="SourceAlpha" result="hardAlpha" values="0 0 0 0 0 0 0 0 0 0 0 0 0 0 0 0 0 0 127 0"/>
            <feOffset dx="-4"/>
            <feGaussianBlur stdDeviation="5"/>
            <feColorMatrix values="0 0 0 0 0.562537 0 0 0 0 0.562537 0 0 0 0 0.562537 0 0 0 0.15 0"/>
            <feBlend in2="BackgroundImageFix" result="effect1_dropShadow_223_1069"/>
            <feBlend in="SourceGraphic" in2="effect1_dropShadow_223_1069" result="shape"/>
        </filter>
        <filter id="e" width="39.925" height="39.35" x="110.305" y="66.033" color-interpolation-filters="sRGB" filterUnits="userSpaceOnUse">
            <feFlood flood-opacity="0" result="BackgroundImageFix"/>
            <feColorMatrix in="SourceAlpha" result="hardAlpha" values="0 0 0 0 0 0 0 0 0 0 0 0 0 0 0 0 0 0 127 0"/>
            <feOffset dx="-4"/>
            <feGaussianBlur stdDeviation="5"/>
            <feColorMatrix values="0 0 0 0 0.562537 0 0 0 0 0.562537 0 0 0 0 0.562537 0 0 0 0.15 0"/>
            <feBlend in2="BackgroundImageFix" result="effect1_dropShadow_223_1069"/>
            <feBlend in="SourceGraphic" in2="effect1_dropShadow_223_1069" result="shape"/>
        </filter>
        <filter id="g" width="106.891" height="85.508" x="19.252" y="77.492" color-interpolation-filters="sRGB" filterUnits="userSpaceOnUse">
            <feFlood flood-opacity="0" result="BackgroundImageFix"/>
            <feColorMatrix in="SourceAlpha" result="hardAlpha" values="0 0 0 0 0 0 0 0 0 0 0 0 0 0 0 0 0 0 127 0"/>
            <feOffset dy="11"/>
            <feGaussianBlur stdDeviation="11"/>
            <feColorMatrix values="0 0 0 0 0.576823 0 0 0 0 0.576823 0 0 0 0 0.576823 0 0 0 0.27 0"/>
            <feBlend in2="BackgroundImageFix" result="effect1_dropShadow_223_1069"/>
            <feBlend in="SourceGraphic" in2="effect1_dropShadow_223_1069" result="shape"/>
        </filter>
    </defs>
</svg>