<?xml version="1.0" standalone="no"?>
<!DOCTYPE svg PUBLIC "-//W3C//DTD SVG 20010904//EN"
 "http://www.w3.org/TR/2001/REC-SVG-20010904/DTD/svg10.dtd">
<svg version="1.0" xmlns="http://www.w3.org/2000/svg"
 width="700.000000pt" height="700.000000pt" viewBox="0 0 700.000000 700.000000"
 preserveAspectRatio="xMidYMid meet">
<metadata>
Created by potrace 1.14, written by Peter Selinger 2001-2017
</metadata>
<g transform="translate(0.000000,700.000000) scale(0.100000,-0.100000)"
fill="#000000" stroke="none">
<path d="M2680 6950 c-41 -4 -106 -10 -145 -14 -330 -33 -706 -124 -975 -238
-173 -74 -380 -187 -471 -259 -20 -16 -40 -29 -44 -29 -4 0 -19 -11 -33 -24
-15 -13 -63 -55 -107 -93 -494 -430 -787 -1100 -853 -1953 -9 -124 -9 -1580 0
-1690 12 -137 41 -348 62 -455 7 -34 37 -179 41 -195 16 -66 86 -291 105 -335
4 -11 19 -47 31 -80 34 -88 158 -329 215 -415 100 -153 258 -342 359 -429 16
-14 39 -35 50 -46 12 -11 57 -47 101 -80 73 -56 98 -73 202 -139 41 -27 222
-126 229 -126 2 0 23 -9 46 -19 128 -58 361 -141 395 -141 6 0 12 -4 12 -9 0
-5 6 -8 13 -7 24 2 227 -48 227 -56 0 -5 4 -7 9 -3 6 3 61 -3 123 -14 62 -11
140 -22 173 -26 33 -4 71 -8 85 -10 30 -4 152 -15 235 -20 89 -6 1377 -6 1470
0 140 9 309 26 395 40 14 2 45 7 70 10 125 18 375 77 505 120 146 48 189 65
337 133 59 28 109 47 112 44 3 -3 6 -1 6 5 0 5 24 23 53 38 28 16 89 53 135
84 46 31 91 61 100 66 9 6 19 12 22 15 3 3 37 32 75 64 441 368 720 880 844
1551 11 61 23 130 26 155 3 25 8 56 10 70 5 37 24 234 30 320 7 91 6 1376 0
1475 -7 114 -15 211 -19 231 -2 11 -7 48 -11 84 -6 64 -11 95 -19 135 -2 11
-7 40 -10 65 -22 147 -123 524 -156 582 -6 10 -10 23 -10 28 0 6 -9 32 -21 58
-11 26 -27 63 -36 82 -61 140 -217 408 -278 476 -5 6 -21 26 -35 44 -50 64
-277 289 -345 342 -168 131 -371 252 -527 315 -22 9 -35 20 -31 26 3 5 1 7 -5
3 -6 -3 -41 5 -79 20 -212 82 -502 156 -738 189 -23 3 -50 7 -60 9 -11 2 -56
7 -100 11 -44 4 -89 10 -100 13 -31 8 -1610 11 -1695 2z"/>
</g>
</svg>
