<svg xmlns="http://www.w3.org/2000/svg" width="160" height="160" fill="none">
    <path fill="#8E8E8E" fill-opacity=".07" d="M160 80A80 80 0 1 0 0 80a80 80 0 0 0 160 0Z"/>
    <path stroke="#ABAAAA" stroke-linecap="round" stroke-linejoin="round" stroke-width="4" d="M65.33 59.44V47.11C65.33 40.42 71.3 35 78.67 35 86.03 35 92 40.42 92 47.1v12.34"/>
    <path stroke="url(#a)" stroke-linecap="round" stroke-linejoin="round" stroke-width="4" d="M65.33 59.44V47.11C65.33 40.42 71.3 35 78.67 35 86.03 35 92 40.42 92 47.1v12.34"/>
    <g filter="url(#b)">
        <path fill="#8F8F8F" d="M54.04 116.51h49.6v4.8h-49.6z"/>
    </g>
    <path fill="url(#c)" d="M56.44 46.11h45.75l.92 18.89H55.33l1.11-18.89Z"/>
    <path fill="#C6C6C6" fill-rule="evenodd" d="M102 46.11 103.11 65H112l-4.44-6.11L102 46.1ZM56.44 46.11 55.34 65h-8.9l4.45-6.11 5.55-12.78Z" clip-rule="evenodd"/>
    <path fill="url(#d)" d="M46.44 65H112v51.67a5 5 0 0 1-5 5H51.44a5 5 0 0 1-5-5V65Z"/>
    <path fill="url(#e)" fill-rule="evenodd" d="M66.04 89.7c0-.27.15-.53.4-.66a6.21 6.21 0 0 1 2.64-.75 5.9 5.9 0 0 1 2.59.75c.24.13.37.38.37.66 0 .64-.74 1.06-1.34.84a4.93 4.93 0 0 0-1.64-.31c-.59 0-1.18.15-1.68.33-.6.21-1.34-.2-1.34-.85Z" clip-rule="evenodd" opacity=".5"/>
    <path fill="url(#f)" fill-rule="evenodd" d="M86.44 89.7c0-.27.15-.53.4-.66a6.21 6.21 0 0 1 2.64-.75 5.9 5.9 0 0 1 2.59.75c.24.13.37.38.37.66 0 .64-.74 1.06-1.34.84a4.92 4.92 0 0 0-1.64-.31c-.59 0-1.18.15-1.68.33-.6.21-1.34-.2-1.34-.85Z" clip-rule="evenodd" opacity=".5"/>
    <ellipse cx="79.24" cy="97.89" fill="url(#g)" opacity=".5" rx="6.4" ry="2.8"/>
    <path stroke="url(#h)" stroke-linecap="round" stroke-linejoin="round" stroke-width="4" d="M64.22 71.67V57.09c0-7.9 6.47-14.31 14.45-14.31 7.97 0 14.44 6.4 14.44 14.3v14.59"/>
    <circle cx="110.89" cy="111.67" r="7.78" fill="url(#i)"/>
    <path fill="#fff" d="M108.34 114.89v-.84c0-.49.08-.9.24-1.21.16-.33.39-.6.69-.8.3-.21.68-.39 1.12-.52l.67-.21c.25-.08.45-.18.62-.3a1.21 1.21 0 0 0 .52-1v-.03c0-.33-.11-.6-.34-.8-.23-.2-.54-.3-.93-.3s-.7.12-.94.33c-.23.2-.35.5-.35.9v.18h-1.28v-.16c0-.5.11-.94.34-1.3.23-.34.53-.61.92-.8.4-.19.83-.28 1.31-.28.48 0 .91.1 1.3.28.39.18.69.44.91.77.23.33.34.71.34 1.16v.1c0 .45-.1.83-.28 1.14-.18.3-.43.56-.74.76-.31.2-.67.35-1.07.48l-.64.2c-.29.09-.51.18-.67.29a.92.92 0 0 0-.34.34.98.98 0 0 0-.09.44v.04h3.77v1.14h-5.08Z"/>
    <defs>
        <linearGradient id="a" x1="78.67" x2="78.67" y1="35" y2="59.44" gradientUnits="userSpaceOnUse">
            <stop stop-color="#B9BBBE"/>
            <stop offset=".93" stop-color="#8F8F8F"/>
        </linearGradient>
        <linearGradient id="c" x1="79.22" x2="79.22" y1="46.11" y2="65" gradientUnits="userSpaceOnUse">
            <stop stop-color="#ECEEF1"/>
            <stop offset=".93" stop-color="#D8D8D8"/>
        </linearGradient>
        <linearGradient id="d" x1="79.22" x2="79.22" y1="65" y2="121.67" gradientUnits="userSpaceOnUse">
            <stop stop-color="#F9F9F9"/>
            <stop offset="1" stop-color="#fff"/>
        </linearGradient>
        <linearGradient id="e" x1="69.04" x2="69.04" y1="88.29" y2="90.97" gradientUnits="userSpaceOnUse">
            <stop stop-color="#B9BBBE"/>
            <stop offset=".93" stop-color="#8F8F8F"/>
        </linearGradient>
        <linearGradient id="f" x1="89.44" x2="89.44" y1="88.29" y2="90.97" gradientUnits="userSpaceOnUse">
            <stop stop-color="#B9BBBE"/>
            <stop offset=".93" stop-color="#8F8F8F"/>
        </linearGradient>
        <linearGradient id="g" x1="79.24" x2="79.24" y1="95.09" y2="100.69" gradientUnits="userSpaceOnUse">
            <stop stop-color="#B9BBBE"/>
            <stop offset=".93" stop-color="#8F8F8F"/>
        </linearGradient>
        <linearGradient id="h" x1="78.67" x2="78.67" y1="42.78" y2="71.67" gradientUnits="userSpaceOnUse">
            <stop stop-color="#B9BBBE"/>
            <stop offset=".93" stop-color="#8F8F8F"/>
        </linearGradient>
        <linearGradient id="i" x1="103.11" x2="121.13" y1="115.56" y2="112.68" gradientUnits="userSpaceOnUse">
            <stop stop-color="#008BCA"/>
            <stop offset="1" stop-color="#00A3FF"/>
        </linearGradient>
        <filter id="b" width="97.97" height="53.17" x="29.86" y="92.32" color-interpolation-filters="sRGB" filterUnits="userSpaceOnUse">
            <feFlood flood-opacity="0" result="BackgroundImageFix"/>
            <feBlend in="SourceGraphic" in2="BackgroundImageFix" result="shape"/>
            <feGaussianBlur result="effect1_foregroundBlur_212_408" stdDeviation="12.09"/>
        </filter>
    </defs>
</svg>