<svg xmlns="http://www.w3.org/2000/svg" width="160" height="160" fill="none">
    <path fill="#8E8E8E" fill-opacity=".07" d="M160 80A80 80 0 1 0 0 80a80 80 0 0 0 160 0Z"/>
    <g filter="url(#a)">
        <path fill="#8F8F8F" d="M58 113.73h44.64v4.8H58z"/>
    </g>
    <path fill="#C6C6C6" d="M111.98 54.65h-62.4a3.18 3.18 0 0 0-3.18 3.17v57.26a3.18 3.18 0 0 0 3.17 3.18h62.41a3.18 3.18 0 0 0 3.18-3.18V57.82a3.18 3.18 0 0 0-3.18-3.17Z"/>
    <path fill="#F9F9F9" d="M107.87 98.36H53.68a3.18 3.18 0 0 1-3.17-3.18V44.6a3.18 3.18 0 0 1 3.17-3.17h54.2a3.17 3.17 0 0 1 3.17 3.17v50.6a3.17 3.17 0 0 1-3.18 3.17Z"/>
    <path fill="url(#b)" d="M51.51 96.19V45.6a3.18 3.18 0 0 1 3.18-3.18h54.19c.62 0 1.2.18 1.68.5a3.17 3.17 0 0 0-2.69-1.5H53.68a3.18 3.18 0 0 0-3.17 3.17v50.6c0 1.13.6 2.12 1.49 2.68a3.16 3.16 0 0 1-.49-1.68Z"/>
    <path fill="#fff" d="M101.2 52.1H60.35v2.34h40.85V52.1Zm0 8.9H60.35v2.33h40.85V61Zm0 8.89H60.35v2.33h40.85v-2.33Zm0 8.89H60.35v2.33h40.85v-2.33Z"/>
    <path fill="url(#c)" d="m65 71 11 10H65V71Z"/>
    <path fill="#C6C6C6" d="M115.16 82.38V58.76l-4.11-4.11v27.73h4.1Z"/>
    <path fill="url(#d)" d="m119.97 84.51-4.43 31.34a3.18 3.18 0 0 1-3.14 2.73H49.16a3.18 3.18 0 0 1-3.15-2.73l-5.98-42.34a3.17 3.17 0 0 1 3.15-3.62H62.7a3.17 3.17 0 0 1 3.14 2.73l.78 5.54a3.17 3.17 0 0 0 3.15 2.74h47.05c1.92 0 3.4 1.7 3.14 3.61Z"/>
    <path fill="#C6C6C6" d="M99.66 104.44H61.34c-.2 0-.41-.04-.57-.13-.16-.08-.26-.2-.28-.32l-.48-2.3a.33.33 0 0 1 .03-.21c.03-.07.1-.14.18-.2a1.38 1.38 0 0 1 .65-.18h39.27c.12.01.24.03.35.06.11.03.21.07.3.13.07.05.14.12.17.19.04.07.05.14.03.22l-.48 2.29c-.02.13-.12.24-.28.32-.16.09-.36.13-.57.13Z"/>
    <defs>
        <linearGradient id="b" x1="82.64" x2="42.49" y1="71.75" y2="31.59" gradientUnits="userSpaceOnUse">
            <stop stop-color="#fff"/>
        </linearGradient>
        <linearGradient id="c" x1="72.27" x2="60.24" y1="82.6" y2="69.37" gradientUnits="userSpaceOnUse">
            <stop stop-color="#C6C6C6" stop-opacity=".06"/>
            <stop offset=".18" stop-color="#C6C6C6" stop-opacity=".18"/>
            <stop offset="1" stop-color="#C6C6C6"/>
        </linearGradient>
        <linearGradient id="d" x1="80" x2="80" y1="69.89" y2="118.58" gradientUnits="userSpaceOnUse">
            <stop stop-color="#ECEEF1"/>
            <stop offset=".93" stop-color="#D8D8D8"/>
        </linearGradient>
        <filter id="a" width="93.01" height="53.17" x="33.81" y="89.55" color-interpolation-filters="sRGB" filterUnits="userSpaceOnUse">
            <feFlood flood-opacity="0" result="BackgroundImageFix"/>
            <feBlend in="SourceGraphic" in2="BackgroundImageFix" result="shape"/>
            <feGaussianBlur result="effect1_foregroundBlur_212_390" stdDeviation="12.09"/>
        </filter>
    </defs>
</svg>