<svg xmlns="http://www.w3.org/2000/svg" width="172" height="172" fill="none">
    <path stroke="url(#a)" stroke-opacity=".05" d="M45.75 172V0"/>
    <path stroke="url(#b)" stroke-opacity=".05" d="M86.31 172V0"/>
    <path stroke="url(#c)" stroke-opacity=".05" d="M126.07 172V0"/>
    <path stroke="url(#d)" stroke-opacity=".05" d="M0 45.75h169.57"/>
    <path stroke="url(#e)" stroke-opacity=".05" d="M2.43 126.07H172"/>
    <path stroke="url(#f)" stroke-opacity=".05" d="M2.43 86.31H172"/>
    <g filter="url(#g)">
        <path fill="url(#h)" d="M81.33 126.57c-23.93 0-35.9-11.97-35.9-35.9v-9.34c0-23.93 11.97-35.9 35.9-35.9h9.34c23.93 0 35.9 11.97 35.9 35.9v9.34c0 23.93-11.97 35.9-35.9 35.9h-9.34Z"/>
    </g>
    <path stroke="url(#i)" d="M81.33 126.07c-11.89 0-20.71-2.98-26.57-8.83-5.85-5.86-8.83-14.68-8.83-26.57v-9.34c0-11.89 2.98-20.71 8.83-26.57 5.86-5.85 14.68-8.83 26.57-8.83h9.34c11.89 0 20.71 2.98 26.57 8.83 5.85 5.86 8.83 14.68 8.83 26.57v9.34c0 11.89-2.98 20.71-8.83 26.57-5.86 5.85-14.68 8.83-26.57 8.83h-9.34Z"/>
    <g fill="#fff" filter="url(#j)">
        <path d="m75.83 95.06 20.09-16.3 4.68-3.8V59.23L68.14 85.55l7.68 9.51Z"/>
        <path fill-opacity=".8" d="m82.97 103.92 9.24-7.5 3.7-3V78.76l-20.08 16.3 7.14 8.86Z"/>
        <path fill-opacity=".6" d="m88.8 111.15 3.41-2.76V96.43l-9.24 7.5 5.83 7.22Z"/>
    </g>
    <defs>
        <linearGradient id="a" x1="46.75" x2="46.75" y1="0" y2="172" gradientUnits="userSpaceOnUse">
            <stop stop-color="#666" stop-opacity="0"/>
            <stop offset=".27"/>
            <stop offset=".73"/>
            <stop offset="1" stop-color="#666" stop-opacity="0"/>
        </linearGradient>
        <linearGradient id="b" x1="87.31" x2="87.31" y1="0" y2="172" gradientUnits="userSpaceOnUse">
            <stop stop-color="#666" stop-opacity="0"/>
            <stop offset=".27"/>
            <stop offset=".73"/>
            <stop offset="1" stop-color="#666" stop-opacity="0"/>
        </linearGradient>
        <linearGradient id="c" x1="127.07" x2="127.07" y1="0" y2="172" gradientUnits="userSpaceOnUse">
            <stop stop-color="#666" stop-opacity="0"/>
            <stop offset=".27"/>
            <stop offset=".73"/>
            <stop offset="1" stop-color="#666" stop-opacity="0"/>
        </linearGradient>
        <linearGradient id="d" x1="169.57" x2="0" y1="46.75" y2="46.75" gradientUnits="userSpaceOnUse">
            <stop stop-color="#666" stop-opacity="0"/>
            <stop offset=".27"/>
            <stop offset=".73"/>
            <stop offset="1" stop-color="#666" stop-opacity="0"/>
        </linearGradient>
        <linearGradient id="e" x1="172" x2="2.43" y1="127.07" y2="127.07" gradientUnits="userSpaceOnUse">
            <stop stop-color="#666" stop-opacity="0"/>
            <stop offset=".27"/>
            <stop offset=".73"/>
            <stop offset="1" stop-color="#666" stop-opacity="0"/>
        </linearGradient>
        <linearGradient id="f" x1="172" x2="2.43" y1="87.31" y2="87.31" gradientUnits="userSpaceOnUse">
            <stop stop-color="#666" stop-opacity="0"/>
            <stop offset=".27"/>
            <stop offset=".73"/>
            <stop offset="1" stop-color="#666" stop-opacity="0"/>
        </linearGradient>
        <linearGradient id="h" x1="54.36" x2="113.58" y1="54.36" y2="116.02" gradientUnits="userSpaceOnUse">
            <stop stop-color="#4178E3"/>
            <stop offset="1" stop-color="#1554CF"/>
        </linearGradient>
        <linearGradient id="i" x1="64.5" x2="116.42" y1="46.65" y2="122.51" gradientUnits="userSpaceOnUse">
            <stop offset=".28" stop-color="#497FE7"/>
            <stop offset=".72" stop-color="#0941AD"/>
        </linearGradient>
        <filter id="g" width="81.13" height="81.13" x="45.43" y="45.43" color-interpolation-filters="sRGB" filterUnits="userSpaceOnUse">
            <feFlood flood-opacity="0" result="BackgroundImageFix"/>
            <feBlend in="SourceGraphic" in2="BackgroundImageFix" result="shape"/>
            <feColorMatrix in="SourceAlpha" result="hardAlpha" values="0 0 0 0 0 0 0 0 0 0 0 0 0 0 0 0 0 0 127 0"/>
            <feOffset/>
            <feGaussianBlur stdDeviation="12"/>
            <feComposite in2="hardAlpha" k2="-1" k3="1" operator="arithmetic"/>
            <feColorMatrix values="0 0 0 0 0 0 0 0 0 0 0 0 0 0 0 0 0 0 0.2 0"/>
            <feBlend in2="shape" result="effect1_innerShadow_107_582"/>
        </filter>
        <filter id="j" width="112.45" height="131.93" x="28.15" y="19.23" color-interpolation-filters="sRGB" filterUnits="userSpaceOnUse">
            <feFlood flood-opacity="0" result="BackgroundImageFix"/>
            <feColorMatrix in="SourceAlpha" result="hardAlpha" values="0 0 0 0 0 0 0 0 0 0 0 0 0 0 0 0 0 0 127 0"/>
            <feOffset/>
            <feGaussianBlur stdDeviation="20"/>
            <feComposite in2="hardAlpha" operator="out"/>
            <feColorMatrix values="0 0 0 0 0.498214 0 0 0 0 0.668821 0 0 0 0 1 0 0 0 1 0"/>
            <feBlend in2="BackgroundImageFix" result="effect1_dropShadow_107_582"/>
            <feBlend in="SourceGraphic" in2="effect1_dropShadow_107_582" result="shape"/>
        </filter>
    </defs>
</svg>