<svg xmlns="http://www.w3.org/2000/svg" width="82" height="82" fill="none">
    <g clip-path="url(#a)">
        <g filter="url(#b)">
            <path fill="url(#c)" d="M36.3 81.6c-23.9 0-35.9-12-35.9-36v-9.3C.4 12.4 12.4.4 36.4.4h9.3c23.9 0 35.9 12 35.9 36v9.3c0 23.9-12 35.9-36 35.9h-9.3Z"/>
        </g>
        <path stroke="url(#d)" d="M36.3 81c-11.9 0-20.7-3-26.5-8.8C3.9 66.4.9 57.6.9 45.7v-9.4C1 24.4 4 15.6 9.8 9.8 15.6 3.9 24.4.9 36.3.9h9.4c11.9 0 20.7 3 26.5 8.9 5.9 5.8 8.9 14.6 8.9 26.5v9.4c0 11.9-3 20.7-8.9 26.5-5.8 5.9-14.6 8.9-26.5 8.9h-9.4Z"/>
        <g fill="#fff" filter="url(#e)">
            <path d="M30.8 50 51 33.9l4.7-3.8V14.2L23.2 40.5l7.6 9.6Z"/>
            <path fill-opacity=".8" d="m38 59 9.2-7.6 3.7-3V33.8L31 50l7 8.8Z"/>
            <path fill-opacity=".6" d="m43.8 66.2 3.4-2.8v-12L38 59l5.8 7.3Z"/>
        </g>
    </g>
    <defs>
        <linearGradient id="c" x1="9.4" x2="68.6" y1="9.4" y2="71" gradientUnits="userSpaceOnUse">
            <stop stop-color="#4178E3"/>
            <stop offset="1" stop-color="#1554CF"/>
        </linearGradient>
        <linearGradient id="d" x1="19.5" x2="71.4" y1="1.7" y2="77.5" gradientUnits="userSpaceOnUse">
            <stop offset=".3" stop-color="#497FE7"/>
            <stop offset=".7" stop-color="#0941AD"/>
        </linearGradient>
        <filter id="b" width="81.1" height="81.1" x=".4" y=".4" color-interpolation-filters="sRGB" filterUnits="userSpaceOnUse">
            <feFlood flood-opacity="0" result="BackgroundImageFix"/>
            <feBlend in="SourceGraphic" in2="BackgroundImageFix" result="shape"/>
            <feColorMatrix in="SourceAlpha" result="hardAlpha" values="0 0 0 0 0 0 0 0 0 0 0 0 0 0 0 0 0 0 127 0"/>
            <feOffset/>
            <feGaussianBlur stdDeviation="12"/>
            <feComposite in2="hardAlpha" k2="-1" k3="1" operator="arithmetic"/>
            <feColorMatrix values="0 0 0 0 0 0 0 0 0 0 0 0 0 0 0 0 0 0 0.2 0"/>
            <feBlend in2="shape" result="effect1_innerShadow_107_593"/>
        </filter>
        <filter id="e" width="112.5" height="131.9" x="-16.8" y="-25.8" color-interpolation-filters="sRGB" filterUnits="userSpaceOnUse">
            <feFlood flood-opacity="0" result="BackgroundImageFix"/>
            <feColorMatrix in="SourceAlpha" result="hardAlpha" values="0 0 0 0 0 0 0 0 0 0 0 0 0 0 0 0 0 0 127 0"/>
            <feOffset/>
            <feGaussianBlur stdDeviation="20"/>
            <feComposite in2="hardAlpha" operator="out"/>
            <feColorMatrix values="0 0 0 0 0.498214 0 0 0 0 0.668821 0 0 0 0 1 0 0 0 1 0"/>
            <feBlend in2="BackgroundImageFix" result="effect1_dropShadow_107_593"/>
            <feBlend in="SourceGraphic" in2="effect1_dropShadow_107_593" result="shape"/>
        </filter>
        <clipPath id="a">
            <path fill="#fff" d="M.4.4h81.1v81.1H.5z"/>
        </clipPath>
    </defs>
</svg>