<svg xmlns="http://www.w3.org/2000/svg" width="32" height="32" fill="none">
    <path fill="#206bc4" d="m18.5 4.7 1.7-3.1s-1.7-.9-1.8 1c0 .8-.5 1-1 1a.8.8 0 0 1-.5-.2.9.9 0 0 1-.2-.6c0-.2 0-.5.2-.6a.8.8 0 0 1 .8-.2c.2-.9-.6-1.1-1-.9l-.1-.6A1 1 0 0 0 16 0a1 1 0 0 0-.4.4 1 1 0 0 0-.1.7c-.5-.2-1.2 0-1 .9h.2c.2 0 .4 0 .6.2l.2.6c0 .2 0 .4-.2.6l-.6.3c-.4 0-.8-.3-.9-1-.1-2-2-1.3-2-1.3l1.9 3.3h4.7zm10.8 10.4c2.7-.3 2.7-2.7 2.7-2.7-3.4.7-5.3-1.3-5.3-1.3s2.1 1 3.8 0c1.7-1 1.5-3 1.5-3-4 1.4-5.4-.1-5.4-.1s1.6.3 3-.5c1.8-1.2 1-3 1-3-3 1.6-4.3.8-4.3.8s1.5 0 2.3-1.8c.7-1.4-.4-2.5-.4-2.5-1.5 2.4-3.9 2-5.5 3-1 .7-.1 2-.1 2 1-.5 2 .7 2 2.6 0 2.6-2 4.1-4.2 4.1s-3.2-1-3.2-3.4c0-1 .3-1.4 1-1.4l.5.1.4.4c.3-.4.4-1 .4-1.5 0-1.1-.7-1.4-1.6-1.4h-4.5c0 .6.2 1.3.8 1.6l-.4 3.8c-.2 1.3-1.1 1.8-2.2 1.8-2 0-4.2-1.4-4.2-4.1 0-1.6.8-3.1 2-2.7.4-.4.7-1.3 0-1.8-1.2-1-4.1-.7-5.6-3 0 0-1 1-.4 2.4.8 1.8 2.3 1.8 2.3 1.8s-1.3.8-4.3-.7c0 0-.8 1.7 1 2.9 1.4.8 3 .5 3 .5S4 9.5 0 8.1c0 0-.2 2 1.5 3s3.8 0 3.8 0-1.9 2-5.3 1.3c0 0 0 2.4 2.7 2.7 2.1.3 3.9-1.3 3.9-1.3S6 16 1 16.8c0 0 1.3 2.3 4.3 1.5 2-.6 3.3-2.5 3.3-2.5s-.8 2.8-5.1 4.5c0 0 1.3 1.6 4.2.4C10 19.6 11 17 11 17s-.3 2.4-2.4 4.7h1.2c2-1 3.2-2.3 3.5-4.5 0 0 .6.6.4 1.8-.2 1.6-2.7 3.4-2.7 3.4l.4.6-2 1.2L7.7 23c-.7-.4-2-.4-2.1 1.3.6-.7 1.1-.6 1.8-.3l1.2.8-.6.4c-.7.4-1.3 1.6 0 2.5-.3-.9 0-1.3.7-1.8l.8-.5.7.5c.6.5 1 1 .6 1.8 1.3-.9.8-2.1.2-2.5l-.6-.4 1.6-1 .3.5 2.2-1.4v1c-.2 1.7-1 3.2-3 4.6 0 .4.3.7.6 1l1 .2c1 0 1.6-1.2 2-2.3-.4 2-.4 3.4.9 4.6 1.3-1.2 1.3-2.7.9-4.6.4 1 1 2.3 2 2.3.4 0 .8 0 1-.3.3-.2.6-.5.7-.9-2-1.4-3-3-3.1-4.7V23l2.2 1.4.3-.5 1.6 1-.6.4c-.6.4-1.1 1.6.2 2.5-.4-.9 0-1.3.6-1.8l.7-.5.8.5c.6.5 1 1 .7 1.8 1.3-.9.7-2.1 0-2.5l-.6-.4 1.2-.8c.7-.3 1.2-.4 1.8.3-.1-1.7-1.4-1.7-2-1.3l-2 1.2-1.9-1.2.4-.6s-2.5-1.8-2.7-3.4c-.2-1.2.4-1.8.4-1.8.2 2 1.5 3.7 3.5 4.4.4.1.8.2 1.2.1-2-2.3-2.4-4.7-2.4-4.7s1 2.6 3.4 3.7c2.9 1.2 4.2-.4 4.2-.4-4.3-1.7-5.1-4.5-5.1-4.5s1.2 2 3.3 2.5c3 .8 4.3-1.6 4.3-1.6-5-.7-5.6-2.9-5.6-2.9s1.8 1.6 4 1.3z"/>
</svg>
