<svg xmlns="http://www.w3.org/2000/svg" width="274" height="160" fill="none">
    <path stroke="url(#a)" stroke-opacity=".06" d="M99.5 160V0"/>
    <path stroke="url(#b)" stroke-opacity=".06" d="M63.5 160V0"/>
    <path stroke="url(#c)" stroke-opacity=".06" d="M136.5 160V0"/>
    <path stroke="url(#d)" stroke-opacity=".06" d="M172.5 160V0"/>
    <path stroke="url(#e)" stroke-opacity=".06" d="M209.5 160V0"/>
    <path stroke="url(#f)" stroke-opacity=".06" d="M0 128.5h274"/>
    <path stroke="url(#g)" stroke-opacity=".06" d="M27.4 92.5h220"/>
    <path stroke="url(#h)" stroke-opacity=".06" d="M40 55.5h194"/>
    <path stroke="url(#i)" stroke-opacity=".06" d="M58 19.5h157"/>
    <g filter="url(#j)">
        <path fill="url(#k)" d="M131.75 129C109.92 129 99 118.08 99 96.25v-8.5C99 65.92 109.92 55 131.75 55h8.5C162.1 55 173 65.92 173 87.75v8.5c0 21.83-10.91 32.75-32.75 32.75h-8.5Z"/>
    </g>
    <path stroke="url(#l)" d="M131.75 128.5c-10.84 0-18.88-2.7-24.21-8.04-5.33-5.33-8.04-13.37-8.04-24.2v-8.52c0-10.83 2.7-18.87 8.04-24.2 5.33-5.33 13.37-8.04 24.2-8.04h8.51c10.84 0 18.88 2.7 24.21 8.04 5.33 5.33 8.04 13.37 8.04 24.2v8.52c0 10.83-2.7 18.87-8.04 24.2-5.33 5.33-13.37 8.04-24.2 8.04h-8.51Z"/>
    <g fill="#fff" filter="url(#m)">
        <path d="m127.7 100.96 18.36-14.89 4.28-3.47-.01-14.37-29.63 24.04 7 8.69Z"/>
        <path fill-opacity=".8" d="m134.23 109.05 8.44-6.85 3.39-2.75V86.07l-18.35 14.89 6.52 8.09Z"/>
        <path fill-opacity=".6" d="m139.56 115.65 3.11-2.52V102.2l-8.44 6.85 5.33 6.6Z"/>
    </g>
    <path fill="#fff" stroke="#E6E6E6" d="M60.5 89.5h6v6h-6zM169.5 52.5h6v6h-6zM206.5 125.5h6v6h-6z"/>
    <defs>
        <linearGradient id="a" x1="100.5" x2="100.5" y1="0" y2="160" gradientUnits="userSpaceOnUse">
            <stop stop-color="#666" stop-opacity="0"/>
            <stop offset=".18"/>
            <stop offset=".9"/>
            <stop offset="1" stop-color="#666" stop-opacity="0"/>
        </linearGradient>
        <linearGradient id="b" x1="64.5" x2="64.5" y1="0" y2="160" gradientUnits="userSpaceOnUse">
            <stop offset=".11" stop-color="#666" stop-opacity="0"/>
            <stop offset=".31"/>
            <stop offset=".77"/>
            <stop offset="1" stop-color="#666" stop-opacity="0"/>
        </linearGradient>
        <linearGradient id="c" x1="137.5" x2="137.5" y1="0" y2="160" gradientUnits="userSpaceOnUse">
            <stop stop-color="#666" stop-opacity="0"/>
            <stop offset=".04"/>
            <stop offset=".97"/>
            <stop offset="1" stop-color="#666" stop-opacity="0"/>
        </linearGradient>
        <linearGradient id="d" x1="173.5" x2="173.5" y1="0" y2="160" gradientUnits="userSpaceOnUse">
            <stop stop-color="#666" stop-opacity="0"/>
            <stop offset=".18"/>
            <stop offset=".9"/>
            <stop offset="1" stop-color="#666" stop-opacity="0"/>
        </linearGradient>
        <linearGradient id="e" x1="210.5" x2="210.5" y1="0" y2="160" gradientUnits="userSpaceOnUse">
            <stop offset=".12" stop-color="#666" stop-opacity="0"/>
            <stop offset=".3"/>
            <stop offset=".76"/>
            <stop offset="1" stop-color="#666" stop-opacity="0"/>
        </linearGradient>
        <linearGradient id="f" x1="274" x2="0" y1="129.5" y2="129.5" gradientUnits="userSpaceOnUse">
            <stop offset=".1" stop-color="#666" stop-opacity="0"/>
            <stop offset=".33"/>
            <stop offset=".68"/>
            <stop offset=".88" stop-color="#666" stop-opacity="0"/>
        </linearGradient>
        <linearGradient id="g" x1="247.4" x2="27.4" y1="93.5" y2="93.5" gradientUnits="userSpaceOnUse">
            <stop stop-color="#666" stop-opacity="0"/>
            <stop offset=".12"/>
            <stop offset=".88"/>
            <stop offset="1" stop-color="#666" stop-opacity="0"/>
        </linearGradient>
        <linearGradient id="h" x1="234" x2="40" y1="56.5" y2="56.5" gradientUnits="userSpaceOnUse">
            <stop offset=".1" stop-color="#666" stop-opacity="0"/>
            <stop offset=".27"/>
            <stop offset=".73"/>
            <stop offset=".88" stop-color="#666" stop-opacity="0"/>
        </linearGradient>
        <linearGradient id="i" x1="215" x2="58" y1="20.5" y2="20.5" gradientUnits="userSpaceOnUse">
            <stop offset=".1" stop-color="#666" stop-opacity="0"/>
            <stop offset=".31"/>
            <stop offset=".67"/>
            <stop offset=".88" stop-color="#666" stop-opacity="0"/>
        </linearGradient>
        <linearGradient id="k" x1="107.14" x2="161.16" y1="63.14" y2="119.38" gradientUnits="userSpaceOnUse">
            <stop stop-color="#4178E3"/>
            <stop offset="1" stop-color="#1554CF"/>
        </linearGradient>
        <linearGradient id="l" x1="116.39" x2="163.75" y1="56.11" y2="125.3" gradientUnits="userSpaceOnUse">
            <stop offset=".2" stop-color="#548BF4"/>
            <stop offset=".72" stop-color="#0940AB"/>
        </linearGradient>
        <filter id="j" width="74" height="74" x="99" y="55" color-interpolation-filters="sRGB" filterUnits="userSpaceOnUse">
            <feFlood flood-opacity="0" result="BackgroundImageFix"/>
            <feBlend in="SourceGraphic" in2="BackgroundImageFix" result="shape"/>
            <feColorMatrix in="SourceAlpha" result="hardAlpha" values="0 0 0 0 0 0 0 0 0 0 0 0 0 0 0 0 0 0 127 0"/>
            <feOffset/>
            <feGaussianBlur stdDeviation="12"/>
            <feComposite in2="hardAlpha" k2="-1" k3="1" operator="arithmetic"/>
            <feColorMatrix values="0 0 0 0 0 0 0 0 0 0 0 0 0 0 0 0 0 0 0.2 0"/>
            <feBlend in2="shape" result="effect1_innerShadow_116_312"/>
        </filter>
        <filter id="m" width="109.64" height="127.42" x="80.7" y="28.23" color-interpolation-filters="sRGB" filterUnits="userSpaceOnUse">
            <feFlood flood-opacity="0" result="BackgroundImageFix"/>
            <feColorMatrix in="SourceAlpha" result="hardAlpha" values="0 0 0 0 0 0 0 0 0 0 0 0 0 0 0 0 0 0 127 0"/>
            <feOffset/>
            <feGaussianBlur stdDeviation="20"/>
            <feComposite in2="hardAlpha" operator="out"/>
            <feColorMatrix values="0 0 0 0 0.498214 0 0 0 0 0.668821 0 0 0 0 1 0 0 0 1 0"/>
            <feBlend in2="BackgroundImageFix" result="effect1_dropShadow_116_312"/>
            <feBlend in="SourceGraphic" in2="effect1_dropShadow_116_312" result="shape"/>
        </filter>
    </defs>
</svg>