<svg xmlns="http://www.w3.org/2000/svg" xmlns:xlink="http://www.w3.org/1999/xlink"><defs><style>
    .sprite-symbol-usage {display: none;}
    .sprite-symbol-usage:target {display: inline;}
  </style><symbol fill="none" viewBox="0 0 160 160" id="empty-state-pack"><path fill="#8E8E8E" fill-opacity=".07" d="M160 80A80 80 0 1 0 0 80a80 80 0 0 0 160 0" /><path stroke="#ABAAAA" stroke-linecap="round" stroke-linejoin="round" stroke-width="4" d="M63.33 57.78V45.44c0-6.69 5.97-12.1 13.34-12.1 7.36 0 13.33 5.41 13.33 12.1v12.34" /><path stroke="url(#empty-state-pack_a)" stroke-linecap="round" stroke-linejoin="round" stroke-width="4" d="M63.33 57.78V45.44c0-6.69 5.97-12.1 13.34-12.1 7.36 0 13.33 5.41 13.33 12.1v12.34" /><g filter="url(#empty-state-pack_b)"><path fill="#8F8F8F" d="M52.04 114.84h49.6v4.8h-49.6z" /></g><path fill="url(#empty-state-pack_c)" d="M54.44 44.44h45.75l.92 18.9H53.33z" /><path fill="#C6C6C6" fill-rule="evenodd" d="m100 44.44 1.11 18.9H110l-4.44-6.12zm-45.56 0-1.1 18.9h-8.9l4.45-6.12z" clip-rule="evenodd" /><path fill="url(#empty-state-pack_d)" d="M44.44 63.33H110V115a5 5 0 0 1-5 5H49.44a5 5 0 0 1-5-5z" /><path fill="url(#empty-state-pack_e)" fill-rule="evenodd" d="M64.04 88.04c0-.28.15-.54.4-.67a6.2 6.2 0 0 1 2.64-.75 5.9 5.9 0 0 1 2.59.75c.24.13.37.39.37.66 0 .64-.74 1.07-1.34.85a4.9 4.9 0 0 0-1.64-.32c-.59 0-1.18.15-1.68.33-.6.22-1.34-.2-1.34-.85" clip-rule="evenodd" opacity=".5" /><path fill="url(#empty-state-pack_f)" fill-rule="evenodd" d="M84.44 88.04c0-.28.15-.54.4-.67a6.2 6.2 0 0 1 2.64-.75 5.9 5.9 0 0 1 2.59.75c.24.13.37.39.37.66 0 .64-.74 1.07-1.34.85a4.9 4.9 0 0 0-1.64-.32c-.59 0-1.18.15-1.68.33-.6.22-1.34-.2-1.34-.85" clip-rule="evenodd" opacity=".5" /><ellipse cx="77.24" cy="96.22" fill="url(#empty-state-pack_g)" opacity=".5" rx="6.4" ry="2.8" /><path stroke="url(#empty-state-pack_h)" stroke-linecap="round" stroke-linejoin="round" stroke-width="4" d="M62.22 70V55.42c0-7.9 6.47-14.3 14.45-14.3 7.97 0 14.44 6.4 14.44 14.3V70" /><circle cx="108.89" cy="110" r="7.78" fill="url(#empty-state-pack_i)" /><path fill="#fff" d="M106.34 113.22v-.84c0-.48.08-.89.24-1.2.16-.33.39-.6.69-.8a4 4 0 0 1 1.12-.53l.67-.2c.25-.09.45-.18.62-.3a1.21 1.21 0 0 0 .52-1v-.04c0-.33-.11-.6-.34-.79q-.345-.3-.93-.3c-.585 0-.7.1-.94.32-.23.2-.35.5-.35.9v.18h-1.28v-.16c0-.5.11-.93.34-1.29.23-.35.53-.62.92-.8.4-.2.83-.29 1.31-.29s.91.1 1.3.28.69.44.91.77c.23.33.34.72.34 1.16v.1c0 .45-.1.83-.28 1.14-.18.3-.43.56-.74.76s-.67.36-1.07.48l-.64.2c-.29.09-.51.19-.67.3a.93.93 0 0 0-.34.33 1 1 0 0 0-.09.44v.04h3.77v1.14z" /><defs><filter id="empty-state-pack_b" width="97.97" height="53.17" x="27.86" y="90.66" color-interpolation-filters="sRGB" filterUnits="userSpaceOnUse"><feFlood flood-opacity="0" result="BackgroundImageFix"></feFlood><feBlend in="SourceGraphic" in2="BackgroundImageFix" result="shape"></feBlend><feGaussianBlur result="effect1_foregroundBlur_212_408" stdDeviation="12.09"></feGaussianBlur></filter></defs></symbol><linearGradient id="empty-state-pack_a" x1="76.67" x2="76.67" y1="33.33" y2="57.78" gradientUnits="userSpaceOnUse"><stop stop-color="#B9BBBE" /><stop offset=".93" stop-color="#8F8F8F" /></linearGradient><linearGradient id="empty-state-pack_c" x1="77.22" x2="77.22" y1="44.44" y2="63.33" gradientUnits="userSpaceOnUse"><stop stop-color="#ECEEF1" /><stop offset=".93" stop-color="#D8D8D8" /></linearGradient><linearGradient id="empty-state-pack_d" x1="77.22" x2="77.22" y1="63.33" y2="120" gradientUnits="userSpaceOnUse"><stop stop-color="#F9F9F9" /><stop offset="1" stop-color="#fff" /></linearGradient><linearGradient id="empty-state-pack_e" x1="67.04" x2="67.04" y1="86.62" y2="89.3" gradientUnits="userSpaceOnUse"><stop stop-color="#B9BBBE" /><stop offset=".93" stop-color="#8F8F8F" /></linearGradient><linearGradient id="empty-state-pack_f" x1="87.44" x2="87.44" y1="86.62" y2="89.3" gradientUnits="userSpaceOnUse"><stop stop-color="#B9BBBE" /><stop offset=".93" stop-color="#8F8F8F" /></linearGradient><linearGradient id="empty-state-pack_g" x1="77.24" x2="77.24" y1="93.42" y2="99.02" gradientUnits="userSpaceOnUse"><stop stop-color="#B9BBBE" /><stop offset=".93" stop-color="#8F8F8F" /></linearGradient><linearGradient id="empty-state-pack_h" x1="76.67" x2="76.67" y1="41.11" y2="70" gradientUnits="userSpaceOnUse"><stop stop-color="#B9BBBE" /><stop offset=".93" stop-color="#8F8F8F" /></linearGradient><linearGradient id="empty-state-pack_i" x1="101.11" x2="119.13" y1="113.89" y2="111.02" gradientUnits="userSpaceOnUse"><stop stop-color="#008BCA" /><stop offset="1" stop-color="#00A3FF" /></linearGradient><symbol fill="none" viewBox="0 0 160 160" id="empty-state-page"><path fill="#8E8E8E" fill-opacity=".07" d="M160 80A80 80 0 1 0 0 80a80 80 0 0 0 160 0" /><g filter="url(#empty-state-page_a)"><path fill="#8F8F8F" d="M58 113.73h44.64v4.8H58z" /></g><path fill="#C6C6C6" d="M111.98 54.65h-62.4a3.18 3.18 0 0 0-3.18 3.17v57.26a3.18 3.18 0 0 0 3.17 3.18h62.41a3.18 3.18 0 0 0 3.18-3.18V57.82a3.18 3.18 0 0 0-3.18-3.17" /><path fill="#F9F9F9" d="M107.87 98.36H53.68a3.18 3.18 0 0 1-3.17-3.18V44.6a3.18 3.18 0 0 1 3.17-3.17h54.2a3.17 3.17 0 0 1 3.17 3.17v50.6a3.17 3.17 0 0 1-3.18 3.17Z" /><path fill="url(#empty-state-page_b)" d="M51.51 96.19V45.6a3.18 3.18 0 0 1 3.18-3.18h54.19c.62 0 1.2.18 1.68.5a3.17 3.17 0 0 0-2.69-1.5H53.68a3.18 3.18 0 0 0-3.17 3.17v50.6c0 1.13.6 2.12 1.49 2.68a3.16 3.16 0 0 1-.49-1.68" /><path fill="#fff" d="M101.2 52.1H60.35v2.34h40.85zm0 8.9H60.35v2.33h40.85zm0 8.89H60.35v2.33h40.85zm0 8.89H60.35v2.33h40.85z" /><path fill="url(#empty-state-page_c)" d="m65 71 11 10H65z" /><path fill="#C6C6C6" d="M115.16 82.38V58.76l-4.11-4.11v27.73h4.1Z" /><path fill="url(#empty-state-page_d)" d="m119.97 84.51-4.43 31.34a3.18 3.18 0 0 1-3.14 2.73H49.16a3.18 3.18 0 0 1-3.15-2.73l-5.98-42.34a3.17 3.17 0 0 1 3.15-3.62H62.7a3.17 3.17 0 0 1 3.14 2.73l.78 5.54a3.17 3.17 0 0 0 3.15 2.74h47.05c1.92 0 3.4 1.7 3.14 3.61Z" /><path fill="#C6C6C6" d="M99.66 104.44H61.34c-.2 0-.41-.04-.57-.13-.16-.08-.26-.2-.28-.32l-.48-2.3a.33.33 0 0 1 .03-.21c.03-.07.1-.14.18-.2a1.4 1.4 0 0 1 .65-.18h39.27c.12.01.24.03.35.06s.21.07.3.13c.07.05.14.12.17.19.04.07.05.14.03.22l-.48 2.29c-.02.13-.12.24-.28.32-.16.09-.36.13-.57.13" /><defs><filter id="empty-state-page_a" width="93.01" height="53.17" x="33.81" y="89.55" color-interpolation-filters="sRGB" filterUnits="userSpaceOnUse"><feFlood flood-opacity="0" result="BackgroundImageFix"></feFlood><feBlend in="SourceGraphic" in2="BackgroundImageFix" result="shape"></feBlend><feGaussianBlur result="effect1_foregroundBlur_212_390" stdDeviation="12.09"></feGaussianBlur></filter></defs></symbol><linearGradient id="empty-state-page_b" x1="82.64" x2="42.49" y1="71.75" y2="31.59" gradientUnits="userSpaceOnUse"><stop stop-color="#fff" /></linearGradient><linearGradient id="empty-state-page_c" x1="72.27" x2="60.24" y1="82.6" y2="69.37" gradientUnits="userSpaceOnUse"><stop stop-color="#C6C6C6" stop-opacity=".06" /><stop offset=".18" stop-color="#C6C6C6" stop-opacity=".18" /><stop offset="1" stop-color="#C6C6C6" /></linearGradient><linearGradient id="empty-state-page_d" x1="80" x2="80" y1="69.89" y2="118.58" gradientUnits="userSpaceOnUse"><stop stop-color="#ECEEF1" /><stop offset=".93" stop-color="#D8D8D8" /></linearGradient><symbol fill="none" viewBox="0 0 160 160" id="empty-state-success"><path fill="#8E8E8E" fill-opacity=".07" d="M160 80A79.99 79.99 0 1 0 .02 80 79.99 79.99 0 0 0 160 80" /><g filter="url(#empty-state-success_a)"><path fill="#8F8F8F" d="M39.37 121h40v1h-40z" /></g><g filter="url(#empty-state-success_b)"><path fill="url(#empty-state-success_c)" d="M41.63 116.53c1.39 1.63 7.51-1.14 12.25-3.43l25.3-10.61c1.96-.82 4.74-1.88 6.78-4.57 1.8-2.37 6.53-12.41-3.02-22.61-9.8-10.37-19.76-7.51-23.51-4.9-2.2 1.63-4.08 5.14-4.9 6.94-3.35 7.59-8.16 21.38-10.2 26.85-1.4 4.09-4.09 10.78-2.7 12.33" /></g><path fill="#C6C6C6" d="M53.55 79.63a48.2 48.2 0 0 0 3.27 13.15c1.48 3.85 4.37 7 8.08 8.81a29.4 29.4 0 0 0 8.65 3.27l-4.24 1.71s-2.45-.49-5.96-2.2c-3.27-1.64-6.7-4.41-9.23-9.8a28.9 28.9 0 0 1-2.61-9.88zm-5.14 13.15s.49 4.24 4 9.55a16.32 16.32 0 0 0 9.8 7.34l-3.76 1.47s-4.25-1.22-8.33-6.77c-2.45-3.43-3.18-7.51-3.18-7.51zm-3.6 10.04s.9 3.67 3.03 6.36c2.45 3.27 5.63 4.17 5.63 4.17l-2.94 1.3s-2.2-.49-4.57-3.5c-1.88-2.37-2.45-4.99-2.45-4.99z" /><path fill="url(#empty-state-success_d)" d="M63.84 90.49c7.75 8.98 16.57 7.92 19.5 5.63 2.95-2.28 5.23-10.2-2.44-19.1-8.17-9.3-17.23-6.7-19.35-4.65-2.12 2.04-4.9 9.8 2.29 18.12" /><path fill="url(#empty-state-success_e)" d="M92.72 92.61c-2.97-1.8-4.5-1.44-6.62-.84a24.4 24.4 0 0 1-12.73 0L74.5 90c3.4.84 6.5-.75 8.63-1.66 2.8-1.2 6.53-2.76 12.39.79 2.54 1.44 5 2.4 6.79 1.98 1.36-.36 2.12-1.8 2.46-2.89l.09-.6c.33-1.8.84-5.6 4.92-7.52 4.24-2.1 8.74-2.1 8.74-2.1l.85 5.71a9.9 9.9 0 0 0-4.76.6c-4.58 1.8-.59 8.66-7.63 11-6.88 2.23-12.48-1.61-14.26-2.7" /><path fill="url(#empty-state-success_f)" d="M65.35 83.91 63 82c4.65-6.4 3.22-11.96 2.35-15.39a23.1 23.1 0 0 1-.87-7.66 19.1 19.1 0 0 1-2.62-5.76c-1.09-4.05-.29-8.02 1.6-11.71C67.16 34 74 34 74 34l2.26 7.48c-1.67 0-7.35 0-9.1 3.42-2.17 4.33-.72 6.94-.72 7.2l1.31-1.61c2.76-3.07 5.16-3.43 6.69-3.34.91.14 1.8.51 2.59 1.1.8.57 1.48 1.34 2.03 2.26.54.92.93 1.97 1.14 3.08a8.87 8.87 0 0 1-1.15 6.57 6.9 6.9 0 0 1-2.21 2.22c-3.13 1.98-5.82 1.8-7.56.99v.18l.43 1.44c1.02 3.97 2.91 10.18-4.43 19.01zm4.22-26.94 1.09.81c1.24.54 2.54.36 4.07-.63.87-.63.95-1.26 1.02-1.44a3.17 3.17 0 0 0-.44-1.98c-.36-.54-.72-.9-1.23-.9-.88 0-2.04.63-3.2 1.9a6.4 6.4 0 0 0-1.31 2.24" /><path fill="url(#empty-state-success_g)" d="M75.5 85h-2.13s1.97-10.85 8.2-12.63c1.24-.33 2.47-.65 3.78-.81.82-.16 1.97-.33 2.54-.57.17-.97-.24-2.27-.82-3.72-.32-1.22-.73-2.35-.9-3.65-.4-2.43.25-4.7 1.89-6.15 1.97-1.87 5.17-2.43 8.78-1.62 2.13.4 3.61 1.46 4.92 2.35 1.97 1.21 3.04 1.86 5.42.32 2.8-1.86-.82-9.31-2.87-13.52l7.39-3c.98 2.1 5.74 13.04 2.62 19.27a7.39 7.39 0 0 1-5.33 4.05c-5.17 1.14-8.21-.8-10.43-2.27a11.1 11.1 0 0 0-3.03-1.61c-6.9-1.87 2.79 8.17-1.73 12.7-2.79 2.76-9.43 3.5-9.84 3.57C79.69 78.76 75.5 85 75.5 85" /><path fill="#9C1713" d="M64.42 59c-.06 1.55-.13 2.45.2 4.55C66.13 65 69.38 65 69.38 65c-.2-.55-.27-1.1-.34-1.45v-.19c-3.46-2.18-4.6-4.36-4.6-4.36Z" /><path fill="#FFC107" d="M56.42 67 51 64.2l2.64-4.2L58 63.01z" /><path fill="#FB8C00" d="M46.43 58c-3-.38-6.07-2.68-6.43-2.94L43 52c.86.64 2.79 1.79 4 1.91z" /><path fill="url(#empty-state-success_h)" d="M53.12 50 48 48.54c.51-1.6.68-3.2.43-4.81L53.8 43c.42 2.26.17 4.74-.68 6.93z" /><path fill="#FB8C00" d="m84 46.88 3.89-.88L89 51.19l-3.89.81L84 46.87Z" /><path fill="#FFC107" d="M95.9 47 93 44.1c1.52-1.3 1.85-3.1 1.85-3.1l4.15.62c0 .3-.6 3.1-3.1 5.38" /><path fill="#FB8C00" d="m99 68.09 3.73-1.09 1.27 3.85-3.73 1.15L99 68.15z" /><path fill="url(#empty-state-success_i)" d="m99.94 109.92-5.33-.55c.25-1.72-1.19-3.92-1.61-4.39l4.32-2.98c.33.4 3.13 3.92 2.62 8z" /><path fill="#FB8C00" d="M114.36 103c-1.79-.3-3.5-.37-5.22-.3L109 98c2 0 4 0 6 .37l-.71 4.63z" /><path fill="#F48FB1" d="m108 111 2.94-3 4.06 4-2.94 3z" /><path fill="url(#empty-state-success_j)" d="m96.75 78 3.25 3.71L96.25 85 93 81.29z" /><defs><filter id="empty-state-success_a" width="64" height="25" x="27.37" y="109" color-interpolation-filters="sRGB" filterUnits="userSpaceOnUse"><feFlood flood-opacity="0" result="BackgroundImageFix"></feFlood><feBlend in="SourceGraphic" in2="BackgroundImageFix" result="shape"></feBlend><feGaussianBlur result="effect1_foregroundBlur_215_437" stdDeviation="6"></feGaussianBlur></filter><filter id="empty-state-success_b" width="47.48" height="50.06" x="41.25" y="67.96" color-interpolation-filters="sRGB" filterUnits="userSpaceOnUse"><feFlood flood-opacity="0" result="BackgroundImageFix"></feFlood><feBlend in="SourceGraphic" in2="BackgroundImageFix" result="shape"></feBlend><feColorMatrix in="SourceAlpha" result="hardAlpha" values="0 0 0 0 0 0 0 0 0 0 0 0 0 0 0 0 0 0 127 0"></feColorMatrix><feOffset dy="1"></feOffset><feGaussianBlur stdDeviation=".5"></feGaussianBlur><feComposite in2="hardAlpha" k2="-1" k3="1" operator="arithmetic"></feComposite><feColorMatrix values="0 0 0 0 1 0 0 0 0 1 0 0 0 0 1 0 0 0 0.75 0"></feColorMatrix><feBlend in2="shape" result="effect1_innerShadow_215_437"></feBlend></filter></defs></symbol><linearGradient id="empty-state-success_c" x1="64.99" x2="64.99" y1="67.96" y2="117.02" gradientUnits="userSpaceOnUse"><stop stop-color="#EEF0F3" /><stop offset=".93" stop-color="#D8D8D8" /></linearGradient><linearGradient id="empty-state-success_d" x1="72.65" x2="72.65" y1="70.4" y2="97.72" gradientUnits="userSpaceOnUse"><stop stop-color="#DDDEE0" /><stop offset=".93" stop-color="#9F9F9F" /></linearGradient><linearGradient id="empty-state-success_e" x1="73.37" x2="120.24" y1="91.5" y2="72.41" gradientUnits="userSpaceOnUse"><stop stop-color="#008BCA" /><stop offset="1" stop-color="#00A3FF" /></linearGradient><linearGradient id="empty-state-success_f" x1="73.44" x2="58.84" y1="33.93" y2="82.14" gradientUnits="userSpaceOnUse"><stop stop-color="#FF2010" /><stop offset="1" stop-color="#C12317" /></linearGradient><linearGradient id="empty-state-success_g" x1="108.96" x2="74.28" y1="44.48" y2="83.14" gradientUnits="userSpaceOnUse"><stop stop-color="#FF6FA0" /><stop offset="1" stop-color="#DB2D68" /></linearGradient><linearGradient id="empty-state-success_h" x1="48" x2="55" y1="48.25" y2="47.29" gradientUnits="userSpaceOnUse"><stop stop-color="#008BCA" /><stop offset="1" stop-color="#00A3FF" /></linearGradient><linearGradient id="empty-state-success_i" x1="97.45" x2="96.36" y1="101.99" y2="110.27" gradientUnits="userSpaceOnUse"><stop stop-color="#FF2010" /><stop offset="1" stop-color="#C12317" /></linearGradient><linearGradient id="empty-state-success_j" x1="97.45" x2="96.61" y1="77.99" y2="85.26" gradientUnits="userSpaceOnUse"><stop stop-color="#FF2010" /><stop offset="1" stop-color="#C12317" /></linearGradient><symbol fill="none" viewBox="0 0 160 160" id="empty-state-ufo"><path fill="#8E8E8E" fill-opacity=".07" d="M160 80A80 80 0 1 0 0 80a80 80 0 0 0 160 0" /><path fill="#C6C6C6" d="m90.76 36.58 1.25.36-1.24 4.33-1.25-.36z" /><ellipse cx="87.07" cy="51.33" fill="url(#empty-state-ufo_a)" rx="15.28" ry="11.06" transform="rotate(13 87.07 51.33)" /><ellipse cx="84.63" cy="60.44" fill="url(#empty-state-ufo_b)" rx="40.97" ry="14.63" transform="rotate(13 84.63 60.44)" /><ellipse cx="84.34" cy="61.71" fill="url(#empty-state-ufo_c)" rx="40.97" ry="14.63" transform="rotate(13 84.34 61.71)" /><ellipse cx="81.95" cy="69.17" fill="#F9F9F9" rx="16.26" ry="5.53" transform="rotate(13 81.95 69.17)" /><circle cx="91.77" cy="35.41" r="1.95" fill="#C6C6C6" transform="rotate(13 91.77 35.41)" /><g filter="url(#empty-state-ufo_d)"><circle cx="114.59" cy="63.69" r="2.6" fill="#F9FBFF" transform="rotate(13 114.59 63.69)" /></g><g filter="url(#empty-state-ufo_e)"><circle cx="76.81" cy="50.96" r="2.6" fill="#F9FBFF" transform="rotate(13 76.81 50.96)" /></g><g filter="url(#empty-state-ufo_f)"><circle cx="96.45" cy="55.5" r="2.6" fill="#F9FBFF" transform="rotate(13 96.45 55.5)" /></g><g filter="url(#empty-state-ufo_g)"><circle cx="56.92" cy="50.37" r="2.6" fill="#F9FBFF" transform="rotate(13 56.92 50.37)" /></g><g filter="url(#empty-state-ufo_h)"><path fill="url(#empty-state-ufo_i)" fill-rule="evenodd" d="m97.7 73.13.1-.3c.68-2.98-5.86-7.03-14.6-9.05-8.75-2.02-16.4-1.25-17.09 1.73-.02.1-.04.21-.04.32h-.03l-30.18 53.2 58.88 13.53 2.98-59.42h-.03Z" clip-rule="evenodd" /></g><defs><filter id="empty-state-ufo_d" width="5.45" height="5.45" x="111.73" y="60.84" color-interpolation-filters="sRGB" filterUnits="userSpaceOnUse"><feFlood flood-opacity="0" result="BackgroundImageFix"></feFlood><feColorMatrix in="SourceAlpha" result="hardAlpha" values="0 0 0 0 0 0 0 0 0 0 0 0 0 0 0 0 0 0 127 0"></feColorMatrix><feOffset dx="-.25" dy="-.25"></feOffset><feComposite in2="hardAlpha" operator="out"></feComposite><feColorMatrix values="0 0 0 0 0.807775 0 0 0 0 0.807775 0 0 0 0 0.807775 0 0 0 1 0"></feColorMatrix><feBlend in2="BackgroundImageFix" result="effect1_dropShadow_212_445"></feBlend><feBlend in="SourceGraphic" in2="effect1_dropShadow_212_445" result="shape"></feBlend></filter><filter id="empty-state-ufo_e" width="5.45" height="5.45" x="73.96" y="48.11" color-interpolation-filters="sRGB" filterUnits="userSpaceOnUse"><feFlood flood-opacity="0" result="BackgroundImageFix"></feFlood><feColorMatrix in="SourceAlpha" result="hardAlpha" values="0 0 0 0 0 0 0 0 0 0 0 0 0 0 0 0 0 0 127 0"></feColorMatrix><feOffset dx="-.25" dy="-.25"></feOffset><feComposite in2="hardAlpha" operator="out"></feComposite><feColorMatrix values="0 0 0 0 0.807775 0 0 0 0 0.807775 0 0 0 0 0.807775 0 0 0 1 0"></feColorMatrix><feBlend in2="BackgroundImageFix" result="effect1_dropShadow_212_445"></feBlend><feBlend in="SourceGraphic" in2="effect1_dropShadow_212_445" result="shape"></feBlend></filter><filter id="empty-state-ufo_f" width="5.45" height="5.45" x="93.6" y="52.64" color-interpolation-filters="sRGB" filterUnits="userSpaceOnUse"><feFlood flood-opacity="0" result="BackgroundImageFix"></feFlood><feColorMatrix in="SourceAlpha" result="hardAlpha" values="0 0 0 0 0 0 0 0 0 0 0 0 0 0 0 0 0 0 127 0"></feColorMatrix><feOffset dx="-.25" dy="-.25"></feOffset><feComposite in2="hardAlpha" operator="out"></feComposite><feColorMatrix values="0 0 0 0 0.807775 0 0 0 0 0.807775 0 0 0 0 0.807775 0 0 0 1 0"></feColorMatrix><feBlend in2="BackgroundImageFix" result="effect1_dropShadow_212_445"></feBlend><feBlend in="SourceGraphic" in2="effect1_dropShadow_212_445" result="shape"></feBlend></filter><filter id="empty-state-ufo_g" width="5.45" height="5.45" x="54.07" y="47.52" color-interpolation-filters="sRGB" filterUnits="userSpaceOnUse"><feFlood flood-opacity="0" result="BackgroundImageFix"></feFlood><feColorMatrix in="SourceAlpha" result="hardAlpha" values="0 0 0 0 0 0 0 0 0 0 0 0 0 0 0 0 0 0 127 0"></feColorMatrix><feOffset dx="-.25" dy="-.25"></feOffset><feComposite in2="hardAlpha" operator="out"></feComposite><feColorMatrix values="0 0 0 0 0.807775 0 0 0 0 0.807775 0 0 0 0 0.807775 0 0 0 1 0"></feColorMatrix><feBlend in2="BackgroundImageFix" result="effect1_dropShadow_212_445"></feBlend><feBlend in="SourceGraphic" in2="effect1_dropShadow_212_445" result="shape"></feBlend></filter><filter id="empty-state-ufo_h" width="63.98" height="71.91" x="34.86" y="61.66" color-interpolation-filters="sRGB" filterUnits="userSpaceOnUse"><feFlood flood-opacity="0" result="BackgroundImageFix"></feFlood><feGaussianBlur in="BackgroundImageFix" stdDeviation=".5"></feGaussianBlur><feComposite in2="SourceAlpha" operator="in" result="effect1_backgroundBlur_212_445"></feComposite><feBlend in="SourceGraphic" in2="effect1_backgroundBlur_212_445" result="shape"></feBlend></filter></defs></symbol><linearGradient id="empty-state-ufo_a" x1="87.07" x2="87.07" y1="40.27" y2="62.38" gradientUnits="userSpaceOnUse"><stop stop-color="#ECEEF1" /><stop offset=".93" stop-color="#D8D8D8" /></linearGradient><linearGradient id="empty-state-ufo_b" x1="84.63" x2="84.63" y1="45.81" y2="75.07" gradientUnits="userSpaceOnUse"><stop stop-color="#D8D8D8" /><stop offset="1" stop-color="#ECEEF1" /></linearGradient><linearGradient id="empty-state-ufo_c" x1="84.34" x2="84.34" y1="47.08" y2="76.34" gradientUnits="userSpaceOnUse"><stop stop-color="#ECEEF1" /><stop offset=".93" stop-color="#D8D8D8" /></linearGradient><linearGradient id="empty-state-ufo_i" x1="79.8" x2="65.65" y1="63" y2="126.54" gradientUnits="userSpaceOnUse"><stop stop-color="#fff" stop-opacity=".7" /><stop offset="1" stop-color="#fff" stop-opacity="0" /></linearGradient></defs><use id="empty-state-pack-usage" xlink:href="#empty-state-pack" class="sprite-symbol-usage" /><use id="empty-state-page-usage" xlink:href="#empty-state-page" class="sprite-symbol-usage" /><use id="empty-state-success-usage" xlink:href="#empty-state-success" class="sprite-symbol-usage" /><use id="empty-state-ufo-usage" xlink:href="#empty-state-ufo" class="sprite-symbol-usage" /></svg>