<svg xmlns="http://www.w3.org/2000/svg" width="32" height="32" fill="none" viewBox="0 0 32 32">
    <defs>
	<style type="text/css">
	<![CDATA[
		.am-weather-moon {
		  -webkit-transform-origin: 12.5px 15.15px 0;
			 -moz-transform-origin: 12.5px 15.15px 0;
			  -ms-transform-origin: 12.5px 15.15px 0;
				  transform-origin: 12.5px 15.15px 0;
			-webkit-animation: am-weather-moon 6s linear 0s infinite;
			   -moz-animation: am-weather-moon 6s linear 0s infinite;
				 -o-animation: am-weather-moon 6s linear 0s infinite;
					animation: am-weather-moon 6s linear 0s infinite;
		}
		.am-weather-moon-star-2 {
			-webkit-animation: am-weather-moon-star-2 4s linear 0s infinite;
			   -moz-animation: am-weather-moon-star-2 4s linear 0s infinite;
				 -o-animation: am-weather-moon-star-2 4s linear 0s infinite;
					animation: am-weather-moon-star-2 4s linear 0s infinite;
		}
		@keyframes am-weather-moon {
			0% {
			-webkit-transform: rotate(0deg);
			   -moz-transform: rotate(0deg);
				-ms-transform: rotate(0deg);
					transform: rotate(0deg);
			}
			50% {
			-webkit-transform: rotate(15deg);
			   -moz-transform: rotate(15deg);
				-ms-transform: rotate(15deg);
					transform: rotate(15deg);
			}

			100% {
			-webkit-transform: rotate(0deg);
			   -moz-transform: rotate(0deg);
				-ms-transform: rotate(0deg);
					transform: rotate(0deg);
			}
		}
		@keyframes am-weather-moon-star-2 {
			0% {
				opacity: 0;
			}
			100% {
				opacity: 1;
			}
		}
		
		
		.am-weather-cloud-2 {
			-webkit-animation: am-weather-cloud-2 3s ease-in-out 0s infinite;
			   -moz-animation: am-weather-cloud-2 3s ease-in-out 0s infinite;
				 -o-animation: am-weather-cloud-2 3s ease-in-out 0s infinite;
					animation: am-weather-cloud-2 3s ease-in-out 0s infinite;
		}
		@keyframes am-weather-cloud-2 {
			0% {
				-webkit-transform: translate(0px,2px);
					-ms-transform: translate(0px,2px);
						transform: translate(0px,2px);
			}
			50% {
				-webkit-transform: translate(2px,2px);
					-ms-transform: translate(2px,2px);
						transform: translate(2px,2px);
			}
			100% {
				-webkit-transform: translate(0px,2px);
					-ms-transform: translate(0px,2px);
						transform: translate(0px,2px);
			}
		}
		@-webkit-keyframes am-weather-cloud-2 {
			0% {
				-webkit-transform: translate(0px,2px);
					-ms-transform: translate(0px,2px);
						transform: translate(0px,2px);
			}
			50% {
				-webkit-transform: translate(2px,2px);
					-ms-transform: translate(2px,2px);
						transform: translate(2px,2px);
			}
			100% {
				-webkit-transform: translate(0px,2px);
					-ms-transform: translate(0px,2px);
						transform: translate(0px,2px);
			}
		}
	
		.am-weather-rain-1 {
			-webkit-animation: am-weather-rain 8s linear 0s infinite;
			   -moz-animation: am-weather-rain 8s linear 0s infinite;
				 -o-animation: am-weather-rain 8s linear 0s infinite;
					animation: am-weather-rain 8s linear 0s infinite;
		}
		.am-weather-rain-2 {
			-webkit-animation: am-weather-rain 8s linear 0.26s infinite;
			   -moz-animation: am-weather-rain 8s linear 0.26s infinite;
				 -o-animation: am-weather-rain 8s linear 0.26s infinite;
					animation: am-weather-rain 8s linear 0.26s infinite;
		}
		@-webkit-keyframes am-weather-rain {
			0% {
				stroke-dashoffset: 0;
			}
			100% {
				stroke-dashoffset: -100;
			}
		}
		@keyframes am-weather-rain {
			0% {
				stroke-dashoffset: 0;
			}
			100% {
				stroke-dashoffset: -100;
			}
		}
	]]>
	</style>
    </defs>
	<g transform="translate(-13,-3)">
		<g class="am-weather-moon-star-2">
			<polygon fill="#FFC107" points="3.3,1.5 4,2.7 5.2,3.3 4,4 3.3,5.2 2.7,4 1.5,3.3 2.7,2.7" stroke="none" stroke-miterlimit="10" transform="translate(34,6)"/>
		</g>
		<g class="am-weather-moon">
			<path fill="#FFC107" stroke="#FFC107" stroke-linejoin="round" stroke-width="1.6" d="M23 11.7c0-3 1.7-5.7 4.2-7.2-1.3-.8-2.7-1-4.2-1a8.4 8.4 0 00-8.5 8.2c0 4.6 3.8 8.3 8.5 8.3a9 9 0 004.2-1 8.3 8.3 0 01-4.2-7.3z"/>
		</g>
	</g>
	<g class="am-weather-cloud-2">
		<path fill="#DBDBDB" stroke="#fff" stroke-linejoin="round" stroke-width="1.5" d="M29 18c0-3.3-2.4-5.8-4.9-5.8-.7 0-1-.2-1.6 0-.2-2.4-2.9-4.2-5.3-4.2-2.6 0-5.1 2.2-5.1 4.8 0 .6.1 1.2.3 1.7l-.7-.1A4.7 4.7 0 007 19.2c0 2.6 2 4.7 4.5 4.8h12c3-.4 5.5-2.9 5.5-6z"/>
	</g>
	<g transform="translate(21,29), rotate(10)">
		<line class="am-weather-rain-1" fill="none" stroke="#dbdbdb" stroke-dasharray="4,7" stroke-linecap="round" stroke-width="2" transform="translate(-6,1)" x1="0" x2="0" y1="0" y2="8" />
		<line class="am-weather-rain-2" fill="none" stroke="#dbdbdb" stroke-dasharray="4,7" stroke-linecap="round" stroke-width="2" transform="translate(0,-1)" x1="0" x2="0" y1="0" y2="8" />
	</g>
</svg>