<svg xmlns="http://www.w3.org/2000/svg" fill="none" viewBox="0 0 32 32">
    <defs>
    <style type="text/css">
	<![CDATA[
		.am-weather-moon {
		  -webkit-transform-origin: 12.5px 15.15px 0;
			 -moz-transform-origin: 12.5px 15.15px 0;
			  -ms-transform-origin: 12.5px 15.15px 0;
				  transform-origin: 12.5px 15.15px 0;
			-webkit-animation: am-weather-moon 6s linear 0s infinite;
			   -moz-animation: am-weather-moon 6s linear 0s infinite;
				 -o-animation: am-weather-moon 6s linear 0s infinite;
					animation: am-weather-moon 6s linear 0s infinite;
		}
		.am-weather-moon-star-1 {
			-webkit-animation: am-weather-moon-star-1 5s linear 0s infinite;
			   -moz-animation: am-weather-moon-star-1 5s linear 0s infinite;
				 -o-animation: am-weather-moon-star-1 5s linear 0s infinite;
					animation: am-weather-moon-star-1 5s linear 0s infinite;
		}
		.am-weather-moon-star-2 {
			-webkit-animation: am-weather-moon-star-2 4s linear 0s infinite;
			   -moz-animation: am-weather-moon-star-2 4s linear 0s infinite;
				 -o-animation: am-weather-moon-star-2 4s linear 0s infinite;
					animation: am-weather-moon-star-2 4s linear 0s infinite;
		}
		@keyframes am-weather-moon {
			0% {
			-webkit-transform: rotate(0deg);
			   -moz-transform: rotate(0deg);
				-ms-transform: rotate(0deg);
					transform: rotate(0deg);
			}
			50% {
			-webkit-transform: rotate(15deg);
			   -moz-transform: rotate(15deg);
				-ms-transform: rotate(15deg);
					transform: rotate(15deg);
			}

			100% {
			-webkit-transform: rotate(0deg);
			   -moz-transform: rotate(0deg);
				-ms-transform: rotate(0deg);
					transform: rotate(0deg);
			}
		}
		@keyframes am-weather-moon-star-1 {
			0% {
				opacity: 0;
			}
			100% {
				opacity: 1;
			}
		}
		@keyframes am-weather-moon-star-2 {
			0% {
				opacity: 0;
			}
			100% {
				opacity: 1;
			}
		}
        ]]>
	</style>
    </defs>
    <g id="moon">
        <g transform="translate(0,0)">
            <g class="am-weather-moon-star-1">
                <polygon fill="#FFC107" points="3.3,1.5 4,2.7 5.2,3.3 4,4 3.3,5.2 2.7,4 1.5,3.3 2.7,2.7" stroke="none" stroke-miterlimit="10"/>
            </g>
            <g class="am-weather-moon-star-2">
                <polygon fill="#FFC107" points="3.3,1.5 4,2.7 5.2,3.3 4,4 3.3,5.2 2.7,4 1.5,3.3 2.7,2.7" stroke="none" stroke-miterlimit="10" transform="translate(20,20)"/>
            </g>
            <g class="am-weather-moon">
                <path fill="#FFC107" stroke="#FFC107" stroke-linejoin="round" stroke-width="2" d="M17 19.5c0-3.5 2-6.6 5-8.3a10 10 0 00-5-1.2c-5.5 0-10 4.3-10 9.5S11.5 29 17 29a11 11 0 005-1.2c-3-1.7-5-4.8-5-8.3z"/>
            </g>
        </g>
    </g>
</svg>