<svg xmlns="http://www.w3.org/2000/svg" width="33" height="32" fill="none" viewBox="0 0 33 32">
    <defs>
	<style type="text/css">
	<![CDATA[
	.am-weather-cloud-1 {
		-webkit-animation: am-weather-cloud-1 7s ease-in-out 0s infinite;
		   -moz-animation: am-weather-cloud-1 7s ease-in-out 0s infinite;
			 -o-animation: am-weather-cloud-1 7s ease-in-out 0s infinite;
				animation: am-weather-cloud-1 7s ease-in-out 0s infinite;
	}
	@keyframes am-weather-cloud-1 {
		0% {
		-webkit-transform: translate(-5px,0px);
			-ms-transform: translate(-5px,0px);
				transform: translate(-5px,0px);
		}

		50% {
		-webkit-transform: translate(5px,0px);
			-ms-transform: translate(5px,0px);
				transform: translate(5px,0px);
		}

		100% {
		-webkit-transform: translate(-5px,0px);
			-ms-transform: translate(-5px,0px);
				transform: translate(-5px,0px);
		}
	}
	@-webkit-keyframes am-weather-cloud-1 {
		0% {
		-webkit-transform: translate(-5px,0px);
			-ms-transform: translate(-5px,0px);
				transform: translate(-5px,0px);
		}

		50% {
		-webkit-transform: translate(5px,0px);
			-ms-transform: translate(5px,0px);
				transform: translate(5px,0px);
		}

		100% {
		-webkit-transform: translate(-5px,0px);
			-ms-transform: translate(-5px,0px);
				transform: translate(-5px,0px);
		}
	}
	
	.am-weather-cloud-2 {
		-webkit-animation: am-weather-cloud-2 3s ease-in-out 0s infinite;
		   -moz-animation: am-weather-cloud-2 3s ease-in-out 0s infinite;
			 -o-animation: am-weather-cloud-2 3s ease-in-out 0s infinite;
				animation: am-weather-cloud-2 3s ease-in-out 0s infinite;
	}
	@keyframes am-weather-cloud-2 {
		0% {
			-webkit-transform: translate(0px,0px);
				-ms-transform: translate(0px,0px);
					transform: translate(0px,0px);
		}
		50% {
			-webkit-transform: translate(2px,0px);
				-ms-transform: translate(2px,0px);
					transform: translate(2px,0px);
		}
		100% {
			-webkit-transform: translate(0px,0px);
				-ms-transform: translate(0px,0px);
					transform: translate(0px,0px);
		}
	}
	@-webkit-keyframes am-weather-cloud-2 {
		0% {
			-webkit-transform: translate(0px,0px);
				-ms-transform: translate(0px,0px);
					transform: translate(0px,0px);
		}
		50% {
			-webkit-transform: translate(2px,0px);
				-ms-transform: translate(2px,0px);
					transform: translate(2px,0px);
		}
		100% {
			-webkit-transform: translate(0px,0px);
				-ms-transform: translate(0px,0px);
					transform: translate(0px,0px);
		}
	}
	]]>
	</style>
    </defs>
	<g class="am-weather-cloud-1">
		<path fill="#DBDBDB" stroke="#fff" stroke-linejoin="round" stroke-width=".7" d="M26.8 13c0-3.3-2.4-6-5.4-6-.6 0-1.2.2-1.8.4-.2-2.4-2-4.4-4.3-4.4-2.4 0-4.4 2.2-4.4 4.8 0 .6.1 1.2.3 1.7l-.7-.1c-2.4 0-4.4 2.1-4.4 4.8 0 2.6 2 4.7 4.3 4.8h11.2a6 6 0 005.2-6z"/>
	</g>
	<g class="am-weather-cloud-2">
		<path fill="#8B8B8B" stroke="#fff" stroke-linejoin="round" stroke-width="1.5" d="M32 23c0-4.2-3.4-7.6-7.5-7.6-1 0-1.8.2-2.6.4a6.2 6.2 0 00-6-5.8 6.2 6.2 0 00-6.2 6.3c0 .8.2 1.5.4 2.2l-1-.1A6.2 6.2 0 003 24.7C3 28 5.7 30.9 9 31h15.8a8 8 0 007.2-8z"/>
	</g>
</svg>