<svg xmlns="http://www.w3.org/2000/svg" width="32" height="32" fill="none" viewBox="0 0 32 32">
    <defs>
	<style type="text/css">
	<![CDATA[
	.am-weather-cloud-1 {
		-webkit-animation: am-weather-cloud-1 7s ease-in-out 0s infinite;
		   -moz-animation: am-weather-cloud-1 7s ease-in-out 0s infinite;
			 -o-animation: am-weather-cloud-1 7s ease-in-out 0s infinite;
				animation: am-weather-cloud-1 7s ease-in-out 0s infinite;
	}
	@keyframes am-weather-cloud-1 {
		0% {
		-webkit-transform: translate(0,0px);
			-ms-transform: translate(0,0px);
				transform: translate(0,0px);
		}

		50% {
		-webkit-transform: translate(3px,0px);
			-ms-transform: translate(3px,0px);
				transform: translate(3px,0px);
		}

		100% {
		-webkit-transform: translate(0,0px);
			-ms-transform: translate(0,0px);
				transform: translate(0,0px);
		}
	}
	@-webkit-keyframes am-weather-cloud-1 {
		0% {
		-webkit-transform: translate(0,0px);
			-ms-transform: translate(0,0px);
				transform: translate(0,0px);
		}

		50% {
		-webkit-transform: translate(3px,0px);
			-ms-transform: translate(3px,0px);
				transform: translate(3px,0px);
		}

		100% {
		-webkit-transform: translate(0,0px);
			-ms-transform: translate(0,0px);
				transform: translate(0,0px);
		}
	}
	

	@keyframes am-weather-snow {
		0% {
			opacity: 1;
			-webkit-transform: translateX(0) translateY(0);
			   -moz-transform: translateX(0) translateY(0);
				-ms-transform: translateX(0) translateY(0);
					transform: translateX(0) translateY(0);
		}
		33.33% {
			-webkit-transform: translateX(-1.2px) translateY(2px);
			   -moz-transform: translateX(-1.2px) translateY(2px);
				-ms-transform: translateX(-1.2px) translateY(2px);
					transform: translateX(-1.2px) translateY(2px);
		}
		66.66% {
			-webkit-transform: translateX(1.4px) translateY(4px);
			   -moz-transform: translateX(1.4px) translateY(4px);
				-ms-transform: translateX(1.4px) translateY(4px);
					transform: translateX(1.4px) translateY(4px);
			opacity: 1;
		}
		100% {
			-webkit-transform: translateX(-1.6px) translateY(6px);
			   -moz-transform: translateX(-1.6px) translateY(6px);
				-ms-transform: translateX(-1.6px) translateY(6px);
					transform: translateX(-1.6px) translateY(6px);
			opacity: 0;
		}
	}

	.am-weather-snow-1 {
		-webkit-animation: am-weather-snow 2s linear 0s infinite;
		   -moz-animation: am-weather-snow 2s linear 0s infinite;
			 -o-animation: am-weather-snow 2s linear 0s infinite;
				animation: am-weather-snow 2s linear 0s infinite;
	}

	.am-weather-snow-2 {
		-webkit-animation: am-weather-snow 2s linear 0.5s infinite;
		   -moz-animation: am-weather-snow 2s linear 0.5s infinite;
			 -o-animation: am-weather-snow 2s linear 0.5s infinite;
				animation: am-weather-snow 2s linear 0.5s infinite;
	}
	]]>
	</style>
    </defs>
	<g class="am-weather-cloud-1">
		<path fill="#DBDBDB" stroke="#fff" stroke-linejoin="round" stroke-width=".7" d="M19 9.1c0-2.7-2-4.8-4.7-4.8l-1.6.3C12.6 2.6 11 1 9 1a4 4 0 00-3.6 5.3l-.6-.1c-2 0-3.8 1.7-3.8 3.9A4 4 0 004.7 14h9.8c1.2-.2 2.4-.7 3.2-1.6.9-1 1.3-2 1.3-3.3v0z"/>
	</g>
	<g class="am-weather-cloud-2">
		<path fill="#8B8B8B" stroke="#fff" stroke-linejoin="round" stroke-width="1.5" d="M30 13.5a6 6 0 00-8-5.8 5 5 0 00-1.5-3.3c-.9-.9-2-1.4-3.3-1.4a4.8 4.8 0 00-3.5 1.5 5 5 0 00-1.4 3.6l.3 1.8-.8-.1a4.8 4.8 0 00-3.4 1.5A5 5 0 007 15c0 2.7 2.1 5 4.8 5.1h12.5c1.6-.2 3-1 4-2.1 1.1-1.2 1.7-2.8 1.7-4.4z"/>
	</g>
	<g class="am-weather-snow-1">
		<g transform="translate(0,-3)">
			<path stroke="#8B8B8B" stroke-linecap="round" stroke-width="1.2" d="M11.9 25L9 29.5"/>
			<path stroke="#8B8B8B" stroke-linecap="round" d="M9.1 25l2.8 4.5M13 27.3H8"/>
		</g>
	</g>
	<g class="am-weather-snow-2">
		<path stroke="#8B8B8B" stroke-linecap="round" stroke-width="1.2" d="M20.9 25L18 29.5"/>
		<path stroke="#8B8B8B" stroke-linecap="round" d="M18.1 25l2.8 4.5M22 27.3h-5"/>
	</g>
</svg>