<svg xmlns="http://www.w3.org/2000/svg" fill="none" width="387" height="272" viewBox="0 0 387 272">
  <g clip-path="url(#a)">
    <path fill="#fff" d="M0 0h387v272H0z"/>
    <path fill="#000" d="M25 47.6c0-9 0-13.5 2.3-16.65a12 12 0 0 1 2.65-2.66C33.1 26 37.6 26 46.6 26h292.8c9 0 13.5 0 16.65 2.3a12 12 0 0 1 2.66 2.65C361 34.1 361 38.6 361 47.6V272H25V47.6Z" opacity=".03"/>
    <path fill="#fff" d="M121 28h220c7.5 0 11.25 0 13.88 1.91a10 10 0 0 1 2.21 2.21C359 34.75 359 38.5 359 46v226H121V28Z"/>
    <path fill="#FF5D54" d="M40.19 44.18a3.75 3.75 0 1 0 0-7.5 3.75 3.75 0 0 0 0 7.5Z"/>
    <path fill="#FFBB29" d="M52.88 44.17a3.76 3.76 0 1 0 0-7.52 3.76 3.76 0 0 0 0 7.52Z"/>
    <path fill="#26CA40" d="M65.66 44.15a3.74 3.74 0 1 0 0-7.48 3.74 3.74 0 0 0 0 7.48Z"/>
    <g fill="#000" opacity=".3">
      <path d="M161.43 78.83a10.96 10.96 0 1 0 0-21.92 10.96 10.96 0 0 0 0 21.92ZM43.71 75.13a7.27 7.27 0 1 0 0-14.54 7.27 7.27 0 0 0 0 14.54Z"/>
    </g>
    <g fill="#000" opacity=".08">
      <path d="M155.92 135.67a5.4 5.4 0 1 0 0-10.8 5.4 5.4 0 0 0 0 10.8ZM155.92 150.42a5.38 5.38 0 1 0 0-10.76 5.38 5.38 0 0 0 0 10.76ZM155.89 165.12a5.38 5.38 0 1 0 0-10.76 5.38 5.38 0 0 0 0 10.76ZM155.91 187.21a5.41 5.41 0 1 0 0-10.82 5.41 5.41 0 0 0 0 10.82ZM155.89 201.92a5.41 5.41 0 1 0 0-10.82 5.41 5.41 0 0 0 0 10.82ZM155.91 224.06a5.44 5.44 0 1 0 0-10.88 5.44 5.44 0 0 0 0 10.88ZM155.88 238.74a5.4 5.4 0 1 0 0-10.8 5.4 5.4 0 0 0 0 10.8Z"/>
    </g>
    <g fill="#000" opacity=".15">
      <path d="m106.16 64.16-44.04-.08a3.57 3.57 0 0 0-3.58 3.57v.24c0 1.97 1.6 3.57 3.56 3.57l44.04.08c1.97 0 3.58-1.6 3.58-3.57v-.24c0-1.97-1.6-3.57-3.56-3.57ZM99.08 90.01H39.86a3.39 3.39 0 0 0-3.39 3.39v.46a3.39 3.39 0 0 0 3.39 3.39h59.22a3.39 3.39 0 0 0 3.39-3.39v-.46a3.39 3.39 0 0 0-3.39-3.39ZM220.44 90.03h-66.4a3.53 3.53 0 0 0-3.53 3.53v.16a3.53 3.53 0 0 0 3.53 3.53h66.4a3.53 3.53 0 0 0 3.53-3.53v-.16a3.53 3.53 0 0 0-3.53-3.53ZM76.97 104.8l-37.18-.06A3.28 3.28 0 0 0 36.5 108v.68a3.28 3.28 0 0 0 3.27 3.29l37.18.06a3.28 3.28 0 0 0 3.29-3.27v-.68a3.28 3.28 0 0 0-3.27-3.29ZM77.07 126.93l-37.6-.06c-1.61 0-2.92 1.3-2.92 2.9v1.26c0 1.6 1.3 2.91 2.9 2.92l37.6.06c1.61 0 2.92-1.3 2.92-2.9v-1.26c0-1.6-1.3-2.91-2.9-2.92ZM283.17 126.76h-110.9a3.28 3.28 0 0 0-3.28 3.28v.68a3.28 3.28 0 0 0 3.28 3.28h110.9a3.28 3.28 0 0 0 3.28-3.28v-.68a3.28 3.28 0 0 0-3.28-3.28ZM106.66 141.67l-67.22-.12a2.86 2.86 0 0 0-2.87 2.86v1.4a2.86 2.86 0 0 0 2.85 2.86l67.22.12a2.86 2.86 0 0 0 2.87-2.86v-1.4a2.86 2.86 0 0 0-2.85-2.86ZM328.76 141.5H172.68a3.71 3.71 0 0 0-3.71 3.71v.08a3.71 3.71 0 0 0 3.71 3.71h156.08a3.71 3.71 0 0 0 3.71-3.71v-.08a3.71 3.71 0 0 0-3.71-3.71ZM98.78 156.08l-58.6-.1a3.66 3.66 0 0 0-3.67 3.65v.28a3.66 3.66 0 0 0 3.65 3.67l58.6.1a3.66 3.66 0 0 0 3.67-3.65v-.28a3.66 3.66 0 0 0-3.65-3.67ZM315.79 156.01h-143.1a3.71 3.71 0 0 0-3.71 3.71v.08a3.71 3.71 0 0 0 3.71 3.71h143.1a3.71 3.71 0 0 0 3.71-3.71v-.08a3.71 3.71 0 0 0-3.71-3.71ZM297.39 178.17H172.63a3.57 3.57 0 0 0-3.57 3.57v.3c0 1.97 1.6 3.57 3.57 3.57h124.76c1.97 0 3.57-1.6 3.57-3.57v-.3c0-1.97-1.6-3.57-3.57-3.57ZM69.7 178.2l-30.1.11a3.05 3.05 0 0 0-3.03 3.06v1.26a3.05 3.05 0 0 0 3.06 3.04l30.1-.1a3.05 3.05 0 0 0 3.04-3.06v-1.26a3.05 3.05 0 0 0-3.06-3.04ZM277.55 193.01H172.29a3.25 3.25 0 0 0-3.25 3.25v.74c0 1.8 1.46 3.25 3.25 3.25h105.26c1.8 0 3.25-1.46 3.25-3.25v-.74c0-1.8-1.45-3.25-3.25-3.25ZM328.76 215.01H172.7a3.71 3.71 0 0 0-3.71 3.71v.06a3.71 3.71 0 0 0 3.71 3.71h156.06a3.71 3.71 0 0 0 3.71-3.71v-.06a3.71 3.71 0 0 0-3.71-3.71ZM312.66 230H172.28a3.27 3.27 0 0 0-3.27 3.27v.58c0 1.8 1.46 3.27 3.27 3.27h140.38c1.8 0 3.27-1.46 3.27-3.27v-.58c0-1.8-1.46-3.27-3.27-3.27Z"/>
    </g>
  </g>
  <g clip-path="url(#b)">
    <path fill="#1C1C1C" d="M.5 0h387v272H.5z"/>
    <path fill="#fff" d="M25.5 47.6c0-9 0-13.5 2.3-16.65a12 12 0 0 1 2.65-2.66C33.6 26 38.1 26 47.1 26h292.8c9 0 13.5 0 16.65 2.3a12 12 0 0 1 2.66 2.65c2.29 3.15 2.29 7.65 2.29 16.65V272h-336V47.6Z" opacity=".03"/>
    <path fill="#1C1C1C" d="M121.5 28h220c7.5 0 11.25 0 13.88 1.91a10 10 0 0 1 2.21 2.21c1.91 2.63 1.91 6.38 1.91 13.88v226h-238V28Z"/>
    <g fill="#fff" opacity=".15">
      <path d="M220.94 90.03h-66.4a3.53 3.53 0 0 0-3.53 3.53v.16a3.53 3.53 0 0 0 3.53 3.53h66.4a3.53 3.53 0 0 0 3.53-3.53v-.16a3.53 3.53 0 0 0-3.53-3.53ZM283.67 126.76h-110.9a3.28 3.28 0 0 0-3.28 3.28v.68a3.28 3.28 0 0 0 3.28 3.28h110.9a3.28 3.28 0 0 0 3.28-3.28v-.68a3.28 3.28 0 0 0-3.28-3.28ZM329.26 141.5H173.18a3.71 3.71 0 0 0-3.71 3.71v.08a3.71 3.71 0 0 0 3.71 3.71h156.08a3.71 3.71 0 0 0 3.71-3.71v-.08a3.71 3.71 0 0 0-3.71-3.71ZM316.29 156.01h-143.1a3.71 3.71 0 0 0-3.71 3.71v.08a3.71 3.71 0 0 0 3.71 3.71h143.1a3.71 3.71 0 0 0 3.71-3.71v-.08a3.71 3.71 0 0 0-3.71-3.71ZM297.89 178.17H173.13a3.57 3.57 0 0 0-3.57 3.57v.3c0 1.97 1.6 3.57 3.57 3.57h124.76c1.97 0 3.57-1.6 3.57-3.57v-.3c0-1.97-1.6-3.57-3.57-3.57ZM278.05 193.01H172.79a3.25 3.25 0 0 0-3.25 3.25v.74c0 1.8 1.46 3.25 3.25 3.25h105.26c1.8 0 3.25-1.46 3.25-3.25v-.74c0-1.8-1.45-3.25-3.25-3.25ZM329.26 215.01H173.2a3.71 3.71 0 0 0-3.71 3.71v.06a3.71 3.71 0 0 0 3.71 3.71h156.06a3.71 3.71 0 0 0 3.71-3.71v-.06a3.71 3.71 0 0 0-3.71-3.71ZM313.16 230H172.78a3.27 3.27 0 0 0-3.27 3.27v.58c0 1.8 1.46 3.27 3.27 3.27h140.38c1.8 0 3.27-1.46 3.27-3.27v-.58c0-1.8-1.46-3.27-3.27-3.27Z"/>
    </g>
  </g>
  <defs>
    <clipPath id="a">
      <path fill="#fff" d="M0 0h193.5v272H0z"/>
    </clipPath>
    <clipPath id="b">
      <path fill="#fff" d="M193.5 0H387v272H193.5z"/>
    </clipPath>
  </defs>
</svg>
