<svg xmlns="http://www.w3.org/2000/svg" width="48" height="48" fill="none">
    <g filter="url(#a)">
        <path fill="url(#b)" d="M21.24 48C7.08 48 0 40.92 0 26.76v-5.52C0 7.08 7.08 0 21.24 0h5.52C40.92 0 48 7.08 48 21.24v5.52C48 40.92 40.92 48 26.76 48h-5.52Z"/>
    </g>
    <path stroke="url(#c)" d="M21.24 47.5c-7 0-12.16-1.75-15.58-5.16C2.25 38.92.5 33.76.5 26.76v-5.52c0-7 1.75-12.16 5.16-15.58C9.08 2.25 14.24.5 21.24.5h5.52c7 0 12.16 1.75 15.58 5.16 3.41 3.42 5.16 8.58 5.16 15.58v5.52c0 7-1.75 12.16-5.16 15.58-3.42 3.41-8.58 5.16-15.58 5.16h-5.52Z"/>
    <path fill="#fff" d="M23.48 24.65c-.86 0-1.66-.1-2.4-.28l-1.32 1.3c.4.2.95.38 1.65.52.69.15 1.8.29 3.36.43 2.36.2 4.08.76 5.15 1.65a4.53 4.53 0 0 1 1.61 3.69c0 1.03-.28 2-.86 2.91a5.97 5.97 0 0 1-2.64 2.25c-1.2.59-2.72.88-4.58.88-2.53 0-4.57-.47-6.12-1.4A4.5 4.5 0 0 1 15 32.44c0-1.57.78-2.93 2.33-4.08-.48-.2-.9-.43-1.26-.66-.33-.24-.8-.6-1.07-.85l3.3-3.93a5.8 5.8 0 0 1-2.08-4.6c0-1.18.28-2.24.86-3.2a6.34 6.34 0 0 1 2.5-2.29 8.32 8.32 0 0 1 3.9-.84c1 0 1.93.14 2.8.42H33v2.74l-3.04.21c.48.9.71 1.88.71 2.95 0 1.18-.28 2.24-.85 3.2a6.03 6.03 0 0 1-2.51 2.29 8.15 8.15 0 0 1-3.83.84Zm0-3.44c.93 0 1.7-.25 2.3-.74.61-.5.92-1.2.92-2.11 0-.91-.3-1.62-.93-2.1-.6-.5-1.36-.75-2.29-.75a3.6 3.6 0 0 0-2.36.74c-.6.5-.9 1.2-.9 2.11 0 .91.3 1.62.9 2.1.6.5 1.38.75 2.36.75Zm-4.3 10.78c0 .87.41 1.51 1.22 1.93a6.4 6.4 0 0 0 3.05.67c1.14 0 2.07-.23 2.79-.7a2.06 2.06 0 0 0 1.07-1.83c0-.63-.24-1.16-.72-1.58-.45-.42-1.37-.68-2.75-.77-.98-.07-1.89-.18-2.72-.32-.7.38-1.2.79-1.5 1.23-.29.45-.43.9-.43 1.37Z"/>
    <defs>
        <linearGradient id="b" x1="5.28" x2="40.32" y1="5.28" y2="41.76" gradientUnits="userSpaceOnUse">
            <stop stop-color="#4178E3"/>
            <stop offset="1" stop-color="#1554CF"/>
        </linearGradient>
        <linearGradient id="c" x1="11.28" x2="42" y1=".72" y2="45.6" gradientUnits="userSpaceOnUse">
            <stop offset=".2" stop-color="#548BF4"/>
            <stop offset=".72" stop-color="#0940AB"/>
        </linearGradient>
        <filter id="a" width="48" height="48" x="0" y="0" color-interpolation-filters="sRGB" filterUnits="userSpaceOnUse">
            <feFlood flood-opacity="0" result="BackgroundImageFix"/>
            <feBlend in="SourceGraphic" in2="BackgroundImageFix" result="shape"/>
            <feColorMatrix in="SourceAlpha" result="hardAlpha" values="0 0 0 0 0 0 0 0 0 0 0 0 0 0 0 0 0 0 127 0"/>
            <feOffset/>
            <feGaussianBlur stdDeviation="12"/>
            <feComposite in2="hardAlpha" k2="-1" k3="1" operator="arithmetic"/>
            <feColorMatrix values="0 0 0 0 0 0 0 0 0 0 0 0 0 0 0 0 0 0 0.2 0"/>
            <feBlend in2="shape" result="effect1_innerShadow_195_766"/>
        </filter>
    </defs>
</svg>